<svg width="92" height="84" viewBox="0 0 92 84" fill="none" xmlns="http://www.w3.org/2000/svg">
<path d="M26.376 1.46527C27.1404 0.653406 28.4223 0.64369 29.2121 1.43075L34.4502 6.65027C35.0908 7.28861 35.2224 8.27699 34.7783 9.06478C31.3301 15.1813 28.2907 21.2977 25.66 27.4142C23.1052 33.1421 21.5143 38.7739 20.8871 44.3097C20.7747 45.301 21.4472 46.2008 22.4217 46.4145L36.7859 49.5634C37.7037 49.7646 38.3577 50.5775 38.3577 51.517V82C38.3577 83.1046 37.4622 84 36.3577 84H2.26465C1.16008 84 0.264648 83.1046 0.264648 82V59.3975C0.264648 44.8703 3.08636 33.1548 8.72977 24.251C14.204 15.7414 20.0861 8.14618 26.376 1.46527ZM79.283 1.46527C80.0473 0.653407 81.3292 0.64369 82.1191 1.43075L87.3572 6.65027C87.9978 7.28861 88.1294 8.27699 87.6852 9.06479C84.2371 15.1813 81.1976 21.2977 78.567 27.4142C76.0122 33.1421 74.4212 38.7739 73.794 44.3097C73.6817 45.301 74.3542 46.2008 75.3287 46.4145L89.6929 49.5634C90.6107 49.7646 91.2646 50.5775 91.2646 51.517V82C91.2646 83.1046 90.3692 84 89.2646 84H55.1716C54.0671 84 53.1716 83.1046 53.1716 82V59.3975C53.1716 44.8703 55.9933 33.1548 61.6367 24.251C67.111 15.7414 72.9931 8.14618 79.283 1.46527Z" fill="url(#paint0_linear_184_366)" fill-opacity="0.3"/>
<defs>
<linearGradient id="paint0_linear_184_366" x1="14.7647" y1="-11" x2="52.7647" y2="126" gradientUnits="userSpaceOnUse">
<stop stop-color="white"/>
<stop offset="1" stop-color="white" stop-opacity="0"/>
</linearGradient>
</defs>
</svg>
