<svg width="50" height="50" viewBox="0 0 50 50" fill="none" xmlns="http://www.w3.org/2000/svg">
<circle cx="25" cy="25" r="25" fill="white"/>
<path d="M37.4625 32.9125C37.4625 33.3625 37.3625 33.825 37.15 34.275C36.9375 34.725 36.6625 35.15 36.3 35.55C35.6875 36.225 35.0125 36.7125 34.25 37.025C33.5 37.3375 32.6875 37.5 31.8125 37.5C30.5375 37.5 29.175 37.2 27.7375 36.5875C26.3 35.975 24.8625 35.15 23.4375 34.1125C22 33.0625 20.6375 31.9 19.3375 30.6125C18.05 29.3125 16.8875 27.95 15.85 26.525C14.825 25.1 14 23.675 13.4 22.2625C12.8 20.8375 12.5 19.475 12.5 18.175C12.5 17.325 12.65 16.5125 12.95 15.7625C13.25 15 13.725 14.3 14.3875 13.675C15.1875 12.8875 16.0625 12.5 16.9875 12.5C17.3375 12.5 17.6875 12.575 18 12.725C18.325 12.875 18.6125 13.1 18.8375 13.425L21.7375 17.5125C21.9625 17.825 22.125 18.1125 22.2375 18.3875C22.35 18.65 22.4125 18.9125 22.4125 19.15C22.4125 19.45 22.325 19.75 22.15 20.0375C21.9875 20.325 21.75 20.625 21.45 20.925L20.5 21.9125C20.3625 22.05 20.3 22.2125 20.3 22.4125C20.3 22.5125 20.3125 22.6 20.3375 22.7C20.375 22.8 20.4125 22.875 20.4375 22.95C20.6625 23.3625 21.05 23.9 21.6 24.55C22.1625 25.2 22.7625 25.8625 23.4125 26.525C24.0875 27.1875 24.7375 27.8 25.4 28.3625C26.05 28.9125 26.5875 29.2875 27.0125 29.5125C27.075 29.5375 27.15 29.575 27.2375 29.6125C27.3375 29.65 27.4375 29.6625 27.55 29.6625C27.7625 29.6625 27.925 29.5875 28.0625 29.45L29.0125 28.5125C29.325 28.2 29.625 27.9625 29.9125 27.8125C30.2 27.6375 30.4875 27.55 30.8 27.55C31.0375 27.55 31.2875 27.6 31.5625 27.7125C31.8375 27.825 32.125 27.9875 32.4375 28.2L36.575 31.1375C36.9 31.3625 37.125 31.625 37.2625 31.9375C37.3875 32.25 37.4625 32.5625 37.4625 32.9125Z" stroke="#1681AB" stroke-width="1.5" stroke-miterlimit="10"/>
<path d="M33.125 21.25C33.125 20.5 32.5375 19.35 31.6625 18.4125C30.8625 17.55 29.8 16.875 28.75 16.875" stroke="#1681AB" stroke-width="1.5" stroke-linecap="round" stroke-linejoin="round"/>
<path d="M37.5 21.25C37.5 16.4125 33.5875 12.5 28.75 12.5" stroke="#1681AB" stroke-width="1.5" stroke-linecap="round" stroke-linejoin="round"/>
</svg>
