<svg width="166" height="81" viewBox="0 0 166 81" fill="none" xmlns="http://www.w3.org/2000/svg">
<path fill-rule="evenodd" clip-rule="evenodd" d="M48.7592 19.7756C53.7049 15.7392 64.3322 15.9485 69.2943 20.1407C68.329 21.1131 67.3048 22.0397 66.4285 23.0704C59.8988 30.7826 57.843 39.5501 60.4556 49.3976C60.9227 51.179 61.7946 52.7837 62.8996 54.3024C66.7536 59.5908 72.3335 59.126 75.9843 57.2571C78.8751 55.7764 80.8174 53.3571 82.1697 50.5013C85.2361 44.031 86.1412 37.2867 84.2024 30.2798C83.3903 27.3462 82.057 24.6323 80.1982 22.1999C80.0847 22.0468 79.9931 21.8746 79.892 21.6914C79.8742 21.6487 79.888 21.5981 79.8908 21.557C85.9142 18.231 101.627 23.5512 105.959 30.4564C105.263 30.963 104.557 31.479 103.859 32.0061C96.563 37.4806 91.9176 44.6814 90.1191 53.6127C88.5197 61.5975 90.3333 68.9259 95.6195 75.1783C102.512 83.3277 115.194 81.7358 119.937 72.2063C121.877 68.2985 122.755 64.0741 122.814 59.7271C122.916 50.8354 120.916 42.4493 116.521 34.6505C116.299 34.262 116.11 33.8654 115.828 33.2968C116.312 33.1673 116.714 33.0317 117.121 32.9689C124.161 31.7028 130.663 33.1668 136.826 36.7246C140.514 38.8482 143.696 41.5648 146.727 44.5286C150.398 48.1186 153.477 52.2022 156.48 56.3319C156.83 56.8024 157.136 57.3109 157.548 57.9409C157.109 58.0117 156.805 58.0821 156.503 58.1114C154.049 58.3429 151.569 58.5001 149.13 58.8154C148.223 58.9239 147.31 59.2902 146.495 59.7259C145.442 60.3094 145.454 61.3439 146.521 61.9088C147.19 62.2581 148.023 62.4646 148.775 62.4894C153.023 62.6183 157.277 62.665 161.538 62.7433C162.033 62.7593 162.529 62.7547 163.011 62.6664C164.371 62.4158 165.176 61.2145 165.218 59.3985C165.246 57.168 165.202 54.9425 165.271 52.7151C165.353 49.5481 165.187 46.3833 165.856 43.2494C166.025 42.4453 165.94 41.5708 165.821 40.7454C165.772 40.4007 165.348 39.9558 165.004 39.8476C164.752 39.7566 164.215 40.0476 164.041 40.3344C163.59 41.0348 163.207 41.792 162.927 42.5774C162.001 45.0824 161.309 47.6564 161.063 50.3462C161.034 50.6231 160.943 50.8954 160.81 51.4747C160.308 50.807 159.957 50.3572 159.637 49.8994C155.144 43.5197 149.868 37.8778 143.481 33.3731C139.282 30.4157 134.682 28.1729 129.61 27.1145C124.18 25.9781 118.776 26.1355 113.442 27.5487C112.232 27.8621 111.522 27.6648 110.645 26.7419C105.362 21.2028 99.1839 17.1168 91.5842 15.5403C86.3784 14.4618 81.2417 14.639 76.2462 16.5322C75.2805 16.905 74.6091 16.7518 73.7999 16.1957C69.0911 12.9835 63.9483 11.1344 58.2005 11.1837C54.779 11.209 51.544 11.9821 48.4668 13.4697C47.8152 13.7831 47.1458 14.0539 46.4845 14.3563C45.5561 12.9748 44.7358 11.6736 43.8277 10.4487C40.6137 6.07594 36.4325 3.00619 31.2055 1.48164C27.5487 0.414605 23.8567 -0.138225 20.0799 0.853041C17.1136 1.62533 14.4943 3.06419 12.0759 4.89004C8.31793 7.7225 4.99231 11.0315 1.85147 14.5092C1.40374 15.0135 1.08051 15.6613 0.810793 16.2822C0.280931 17.5349 0.386011 17.8114 1.57943 18.9438C1.96381 18.6106 2.36735 18.2994 2.74356 17.9345C3.67592 16.9907 4.5125 15.9365 5.51189 15.07C8.3014 12.6515 11.1033 10.203 14.2731 8.26746C15.6206 7.44747 17.0337 6.72539 18.4618 6.08709C22.702 4.21029 26.8953 4.98634 31.0242 6.5535C36.0601 8.45664 39.408 12.2295 41.9334 16.8509C42.3188 17.5616 41.922 17.925 41.4991 18.369C38.055 22.0517 35.6873 26.3102 34.6248 31.2754C34.0349 34.012 33.815 36.7761 34.7138 39.4991C35.082 40.6117 35.5832 41.7444 36.2629 42.6837C38.518 45.8174 42.1988 46.5348 45.6262 44.608C48.3018 43.101 49.815 40.7636 50.419 37.8213C51.4527 32.823 50.9127 27.8733 49.6887 22.9557C49.3875 21.9204 49.0657 20.8836 48.7592 19.7756ZM109.96 35.1149C110.327 35.6279 110.664 35.994 110.914 36.4156C115.243 43.6721 117.32 51.5264 117.127 59.9565C117.05 63.1963 116.452 66.3458 115.112 69.3266C114.259 71.2271 112.946 72.7525 111.083 73.71C106.66 75.997 101.564 74.5132 98.7601 70.1915C95.4404 65.0978 94.412 59.5848 95.8571 53.7075C97.3298 47.7288 100.521 42.7561 104.95 38.5677C106.366 37.205 108.011 36.1073 109.96 35.1149ZM74.0212 23.9951C74.2828 24.0972 74.3952 24.1159 74.4636 24.1726C74.6484 24.3414 74.8441 24.5006 74.9864 24.6868C76.7074 26.7163 78.0401 28.9856 78.7226 31.5479C80.3436 37.6113 79.5648 43.414 76.6276 48.9017C76.1531 49.7967 75.4458 50.6229 74.7058 51.3225C72.163 53.7593 68.7039 53.2754 66.9819 50.2019C66.3655 49.0916 65.892 47.8576 65.6254 46.6182C64.235 40.3548 65.4072 34.5399 68.8514 29.1932C70.1928 27.1014 71.9311 25.4009 74.0212 23.9951ZM44.1685 23.7557C44.3234 23.7568 44.4578 23.7564 44.6127 23.7576C44.8548 24.9022 45.1379 26.0498 45.3485 27.2023C45.8564 30.0514 45.9091 32.908 45.5177 35.7627C45.2901 37.4306 44.6119 38.8894 43.1312 39.8442C42.0293 40.548 41.1384 40.4303 40.4919 39.3074C40.0573 38.562 39.7572 37.6612 39.6915 36.8087C39.3011 31.7875 41.2615 27.5918 44.1685 23.7557Z" fill="url(#paint0_linear_149_15866)" fill-opacity="0.7"/>
<defs>
<linearGradient id="paint0_linear_149_15866" x1="4.6352" y1="2.3845" x2="167.198" y2="58.0247" gradientUnits="userSpaceOnUse">
<stop stop-color="#FF7B02" stop-opacity="0"/>
<stop offset="1" stop-color="#FF7B02"/>
</linearGradient>
</defs>
</svg>
