<svg width="172" height="68" viewBox="0 0 172 68" fill="none" xmlns="http://www.w3.org/2000/svg">
<path d="M39.0114 63.9712V52.3348H46.8523V54.3632H41.4716V57.136H46.4489V59.1644H41.4716V61.9428H46.875V63.9712H39.0114ZM52.9332 63.9712H48.8082V52.3348H52.9673C54.1378 52.3348 55.1454 52.5678 55.9901 53.0337C56.8348 53.4958 57.4844 54.1606 57.9389 55.028C58.3973 55.8954 58.6264 56.9333 58.6264 58.1416C58.6264 59.3538 58.3973 60.3954 57.9389 61.2666C57.4844 62.1379 56.831 62.8064 55.9787 63.2723C55.1302 63.7382 54.1151 63.9712 52.9332 63.9712ZM51.2685 61.8632H52.831C53.5582 61.8632 54.17 61.7344 54.6662 61.4769C55.1662 61.2155 55.5412 60.8121 55.7912 60.2666C56.045 59.7174 56.1719 59.0091 56.1719 58.1416C56.1719 57.2818 56.045 56.5791 55.7912 56.0337C55.5412 55.4882 55.1681 55.0867 54.6719 54.8291C54.1757 54.5716 53.5639 54.4428 52.8366 54.4428H51.2685V61.8632ZM67.6364 52.3348H70.0966V59.8916C70.0966 60.7401 69.8939 61.4826 69.4886 62.1189C69.0871 62.7553 68.5246 63.2515 67.8011 63.6076C67.0777 63.9598 66.2348 64.136 65.2727 64.136C64.3068 64.136 63.4621 63.9598 62.7386 63.6076C62.0152 63.2515 61.4527 62.7553 61.0511 62.1189C60.6496 61.4826 60.4489 60.7401 60.4489 59.8916V52.3348H62.9091V59.6814C62.9091 60.1246 63.0057 60.5185 63.1989 60.8632C63.3958 61.2079 63.6723 61.4788 64.0284 61.6757C64.3845 61.8727 64.7992 61.9712 65.2727 61.9712C65.75 61.9712 66.1648 61.8727 66.517 61.6757C66.8731 61.4788 67.1477 61.2079 67.3409 60.8632C67.5379 60.5185 67.6364 60.1246 67.6364 59.6814V52.3348ZM82.3878 56.4087H79.8991C79.8537 56.0867 79.7609 55.8007 79.6207 55.5507C79.4806 55.2969 79.3007 55.081 79.081 54.903C78.8613 54.725 78.6075 54.5886 78.3196 54.4939C78.0355 54.3992 77.7268 54.3519 77.3935 54.3519C76.7912 54.3519 76.2666 54.5015 75.8196 54.8007C75.3726 55.0962 75.026 55.528 74.7798 56.0962C74.5336 56.6606 74.4105 57.3462 74.4105 58.153C74.4105 58.9826 74.5336 59.6795 74.7798 60.2439C75.0298 60.8083 75.3783 61.2344 75.8253 61.5223C76.2723 61.8102 76.7893 61.9541 77.3764 61.9541C77.706 61.9541 78.0109 61.9106 78.2912 61.8235C78.5753 61.7363 78.8272 61.6094 79.0469 61.4428C79.2666 61.2723 79.4484 61.0659 79.5923 60.8235C79.7401 60.581 79.8423 60.3045 79.8991 59.9939L82.3878 60.0053C82.3234 60.5394 82.1624 61.0545 81.9048 61.5507C81.651 62.0432 81.3082 62.4844 80.8764 62.8746C80.4484 63.261 79.937 63.5678 79.3423 63.7951C78.7514 64.0185 78.0829 64.1303 77.3366 64.1303C76.2988 64.1303 75.3707 63.8954 74.5526 63.4257C73.7382 62.956 73.0942 62.2761 72.6207 61.386C72.151 60.4958 71.9162 59.4182 71.9162 58.153C71.9162 56.8841 72.1548 55.8045 72.6321 54.9144C73.1094 54.0242 73.7571 53.3462 74.5753 52.8803C75.3935 52.4106 76.3139 52.1757 77.3366 52.1757C78.0109 52.1757 78.6359 52.2704 79.2116 52.4598C79.7912 52.6492 80.3045 52.9257 80.7514 53.2894C81.1984 53.6492 81.562 54.0905 81.8423 54.6132C82.1264 55.136 82.3082 55.7344 82.3878 56.4087ZM85.9389 63.9712H83.3026L87.3196 52.3348H90.4901L94.5014 63.9712H91.8651L88.9503 54.9939H88.8594L85.9389 63.9712ZM85.7741 59.3973H92.0014V61.3178H85.7741V59.3973ZM94.0369 54.3632V52.3348H103.594V54.3632H100.031V63.9712H97.5994V54.3632H94.0369ZM107.628 52.3348V63.9712H105.168V52.3348H107.628ZM120.345 58.153C120.345 59.4219 120.105 60.5015 119.624 61.3916C119.146 62.2818 118.495 62.9617 117.669 63.4314C116.847 63.8973 115.923 64.1303 114.896 64.1303C113.862 64.1303 112.934 63.8954 112.112 63.4257C111.29 62.956 110.641 62.2761 110.163 61.386C109.686 60.4958 109.447 59.4182 109.447 58.153C109.447 56.8841 109.686 55.8045 110.163 54.9144C110.641 54.0242 111.29 53.3462 112.112 52.8803C112.934 52.4106 113.862 52.1757 114.896 52.1757C115.923 52.1757 116.847 52.4106 117.669 52.8803C118.495 53.3462 119.146 54.0242 119.624 54.9144C120.105 55.8045 120.345 56.8841 120.345 58.153ZM117.851 58.153C117.851 57.331 117.728 56.6379 117.482 56.0735C117.239 55.5091 116.896 55.081 116.453 54.7894C116.01 54.4977 115.491 54.3519 114.896 54.3519C114.302 54.3519 113.783 54.4977 113.339 54.7894C112.896 55.081 112.552 55.5091 112.305 56.0735C112.063 56.6379 111.942 57.331 111.942 58.153C111.942 58.975 112.063 59.6682 112.305 60.2326C112.552 60.7969 112.896 61.225 113.339 61.5166C113.783 61.8083 114.302 61.9541 114.896 61.9541C115.491 61.9541 116.01 61.8083 116.453 61.5166C116.896 61.225 117.239 60.7969 117.482 60.2326C117.728 59.6682 117.851 58.975 117.851 58.153ZM131.901 52.3348V63.9712H129.776L124.713 56.6473H124.628V63.9712H122.168V52.3348H124.327L129.349 59.653H129.452V52.3348H131.901Z" fill="white"/>
<path d="M168.517 35.1666C168.517 35.1666 120.384 15.9738 85.5039 43.4315C85.5039 43.4315 126.366 28.9221 171.002 44.9926L168.517 35.1666Z" fill="#FF7B02"/>
<path d="M164.921 29.5683L158.663 18.3648C110.53 9.08987 86.6016 40.588 86.6016 40.588C126.82 14.5997 164.921 29.5683 164.921 29.5683Z" fill="white"/>
<path d="M152.865 14.3296L144.49 4.87097C97.7375 4.87097 86.6016 38.0221 86.6016 38.0221C105.928 8.91156 152.865 14.3296 152.865 14.3296Z" fill="#FF7B02"/>
<path d="M2.48488 35.1666L0 44.9926C44.6356 28.9221 85.4979 43.4315 85.4979 43.4315C50.7098 15.9738 2.48488 35.1666 2.48488 35.1666Z" fill="#FF7B02"/>
<path d="M84.3897 40.6818C84.3897 40.6818 60.4614 9.18362 12.3285 18.4586L6.07031 29.662C6.07031 29.5702 44.2637 14.6017 84.3897 40.6818Z" fill="white"/>
<path d="M84.3921 38.0221C84.3921 38.0221 73.2562 4.87097 26.5038 4.87097L18.1289 14.3296C18.1289 14.3296 65.0653 8.91156 84.3921 38.0221Z" fill="#FF7B02"/>
<path d="M85.4934 17.269C81.8121 17.269 78.867 18.8302 77.3945 20.9423L80.3396 23.7891C81.1679 22.4116 83.1005 21.3096 85.4934 21.3096C87.8862 21.3096 89.8189 22.3198 90.6472 23.7891L93.5922 20.9423C92.1197 18.7383 89.1747 17.269 85.4934 17.269Z" fill="white"/>
<path d="M85.4936 0C76.2904 0 69.8482 4.95888 67.3633 11.1116L75.9223 19.4683C77.6709 16.897 81.0761 15.0604 85.4016 15.0604C89.7271 15.0604 93.2243 16.897 94.8809 19.4683L103.44 11.1116C101.139 4.95888 94.6969 0 85.4936 0Z" fill="white"/>
<path d="M85.4952 22.4993C83.4705 22.4993 81.8139 23.4176 81.2617 24.7032L82.7342 26.1725H83.1944H87.6119H88.0721L89.5446 24.7032C89.1765 23.4176 87.5199 22.4993 85.4952 22.4993Z" fill="white"/>
</svg>
