<svg width="340" height="224" viewBox="0 0 340 224" fill="none" xmlns="http://www.w3.org/2000/svg">
<path d="M67.9918 211V196.455H72.9066C74.0477 196.455 74.9805 196.661 75.7049 197.072C76.4341 197.48 76.9738 198.031 77.3242 198.727C77.6746 199.423 77.8498 200.2 77.8498 201.057C77.8498 201.914 77.6746 202.693 77.3242 203.393C76.9786 204.094 76.4435 204.653 75.7191 205.07C74.9947 205.482 74.0666 205.688 72.935 205.688H69.4123V204.125H72.8782C73.6594 204.125 74.2868 203.99 74.7603 203.72C75.2338 203.45 75.5771 203.086 75.7901 202.626C76.0079 202.162 76.1168 201.639 76.1168 201.057C76.1168 200.474 76.0079 199.954 75.7901 199.494C75.5771 199.035 75.2314 198.675 74.7532 198.415C74.275 198.15 73.6405 198.017 72.8498 198.017H69.7532V211H67.9918ZM84.9165 211.227C83.8654 211.227 82.9587 210.995 82.1964 210.531C81.4388 210.062 80.854 209.409 80.4421 208.571C80.0349 207.728 79.8313 206.748 79.8313 205.631C79.8313 204.513 80.0349 203.528 80.4421 202.676C80.854 201.819 81.427 201.152 82.1609 200.673C82.8995 200.19 83.7612 199.949 84.7461 199.949C85.3143 199.949 85.8754 200.044 86.4293 200.233C86.9833 200.422 87.4876 200.73 87.9421 201.156C88.3967 201.578 88.7589 202.136 89.0288 202.832C89.2987 203.528 89.4336 204.385 89.4336 205.403V206.114H81.0245V204.665H87.729C87.729 204.049 87.6059 203.5 87.3597 203.017C87.1183 202.534 86.7726 202.153 86.3228 201.874C85.8777 201.594 85.3522 201.455 84.7461 201.455C84.0785 201.455 83.5008 201.62 83.0131 201.952C82.5302 202.278 82.1585 202.705 81.8981 203.23C81.6377 203.756 81.5075 204.319 81.5075 204.92V205.886C81.5075 206.71 81.6495 207.409 81.9336 207.982C82.2224 208.55 82.6225 208.983 83.1339 209.281C83.6452 209.575 84.2395 209.722 84.9165 209.722C85.3569 209.722 85.7546 209.66 86.1097 209.537C86.4696 209.409 86.7797 209.22 87.0401 208.969C87.3005 208.713 87.5018 208.396 87.6438 208.017L89.2631 208.472C89.0927 209.021 88.8062 209.504 88.4038 209.92C88.0013 210.332 87.5041 210.654 86.9123 210.886C86.3204 211.114 85.6552 211.227 84.9165 211.227ZM91.9833 211V200.091H93.6026V201.739H93.7163C93.9151 201.199 94.275 200.761 94.7958 200.425C95.3166 200.089 95.9038 199.92 96.5572 199.92C96.6803 199.92 96.8342 199.923 97.0188 199.928C97.2035 199.932 97.3432 199.939 97.4379 199.949V201.653C97.381 201.639 97.2508 201.618 97.0472 201.589C96.8484 201.556 96.6377 201.54 96.4151 201.54C95.8848 201.54 95.4113 201.651 94.9947 201.874C94.5827 202.091 94.256 202.394 94.0146 202.783C93.7778 203.166 93.6594 203.604 93.6594 204.097V211H91.9833ZM107.152 202.534L105.646 202.96C105.552 202.709 105.412 202.465 105.227 202.229C105.047 201.987 104.801 201.788 104.489 201.632C104.176 201.476 103.776 201.398 103.288 201.398C102.621 201.398 102.064 201.552 101.619 201.859C101.179 202.162 100.959 202.548 100.959 203.017C100.959 203.434 101.11 203.763 101.413 204.004C101.716 204.246 102.19 204.447 102.834 204.608L104.453 205.006C105.429 205.242 106.155 205.605 106.634 206.092C107.112 206.575 107.351 207.198 107.351 207.96C107.351 208.585 107.171 209.144 106.811 209.636C106.456 210.129 105.959 210.517 105.32 210.801C104.68 211.085 103.937 211.227 103.089 211.227C101.977 211.227 101.056 210.986 100.327 210.503C99.5975 210.02 99.1359 209.314 98.9418 208.386L100.533 207.989C100.684 208.576 100.971 209.016 101.392 209.31C101.818 209.603 102.375 209.75 103.061 209.75C103.842 209.75 104.463 209.584 104.922 209.253C105.386 208.917 105.618 208.514 105.618 208.045C105.618 207.667 105.485 207.349 105.22 207.094C104.955 206.833 104.548 206.639 103.999 206.511L102.18 206.085C101.181 205.848 100.447 205.482 99.9787 204.984C99.5147 204.482 99.2827 203.855 99.2827 203.102C99.2827 202.487 99.4555 201.942 99.8011 201.469C100.152 200.995 100.627 200.624 101.229 200.354C101.835 200.084 102.521 199.949 103.288 199.949C104.368 199.949 105.215 200.186 105.831 200.659C106.451 201.133 106.892 201.758 107.152 202.534ZM109.874 211V200.091H111.55V211H109.874ZM110.726 198.273C110.4 198.273 110.118 198.161 109.881 197.939C109.649 197.716 109.533 197.449 109.533 197.136C109.533 196.824 109.649 196.556 109.881 196.334C110.118 196.111 110.4 196 110.726 196C111.053 196 111.332 196.111 111.564 196.334C111.801 196.556 111.919 196.824 111.919 197.136C111.919 197.449 111.801 197.716 111.564 197.939C111.332 198.161 111.053 198.273 110.726 198.273ZM122.347 202.534L120.842 202.96C120.747 202.709 120.607 202.465 120.423 202.229C120.243 201.987 119.996 201.788 119.684 201.632C119.371 201.476 118.971 201.398 118.484 201.398C117.816 201.398 117.26 201.552 116.815 201.859C116.374 202.162 116.154 202.548 116.154 203.017C116.154 203.434 116.306 203.763 116.609 204.004C116.912 204.246 117.385 204.447 118.029 204.608L119.648 205.006C120.624 205.242 121.351 205.605 121.829 206.092C122.307 206.575 122.546 207.198 122.546 207.96C122.546 208.585 122.366 209.144 122.006 209.636C121.651 210.129 121.154 210.517 120.515 210.801C119.876 211.085 119.132 211.227 118.285 211.227C117.172 211.227 116.251 210.986 115.522 210.503C114.793 210.02 114.331 209.314 114.137 208.386L115.728 207.989C115.879 208.576 116.166 209.016 116.587 209.31C117.013 209.603 117.57 209.75 118.256 209.75C119.038 209.75 119.658 209.584 120.117 209.253C120.581 208.917 120.813 208.514 120.813 208.045C120.813 207.667 120.681 207.349 120.415 207.094C120.15 206.833 119.743 206.639 119.194 206.511L117.376 206.085C116.377 205.848 115.643 205.482 115.174 204.984C114.71 204.482 114.478 203.855 114.478 203.102C114.478 202.487 114.651 201.942 114.996 201.469C115.347 200.995 115.823 200.624 116.424 200.354C117.03 200.084 117.717 199.949 118.484 199.949C119.563 199.949 120.411 200.186 121.026 200.659C121.647 201.133 122.087 201.758 122.347 202.534ZM129.814 200.091V201.511H124.16V200.091H129.814ZM125.808 197.477H127.484V207.875C127.484 208.348 127.553 208.704 127.69 208.94C127.832 209.172 128.012 209.329 128.23 209.409C128.452 209.485 128.687 209.523 128.933 209.523C129.118 209.523 129.269 209.513 129.387 209.494C129.506 209.471 129.6 209.452 129.672 209.438L130.012 210.943C129.899 210.986 129.74 211.028 129.537 211.071C129.333 211.118 129.075 211.142 128.762 211.142C128.289 211.142 127.825 211.04 127.37 210.837C126.921 210.633 126.547 210.323 126.248 209.906C125.955 209.49 125.808 208.964 125.808 208.33V197.477ZM132.335 211V200.091H134.011V211H132.335ZM133.187 198.273C132.86 198.273 132.579 198.161 132.342 197.939C132.11 197.716 131.994 197.449 131.994 197.136C131.994 196.824 132.11 196.556 132.342 196.334C132.579 196.111 132.86 196 133.187 196C133.514 196 133.793 196.111 134.025 196.334C134.262 196.556 134.38 196.824 134.38 197.136C134.38 197.449 134.262 197.716 134.025 197.939C133.793 198.161 133.514 198.273 133.187 198.273ZM138.757 204.438V211H137.081V200.091H138.7V201.795H138.842C139.098 201.241 139.486 200.796 140.007 200.46C140.528 200.119 141.2 199.949 142.024 199.949C142.763 199.949 143.409 200.1 143.963 200.403C144.517 200.702 144.948 201.156 145.256 201.767C145.563 202.373 145.717 203.14 145.717 204.068V211H144.041V204.182C144.041 203.325 143.819 202.657 143.374 202.179C142.929 201.696 142.318 201.455 141.541 201.455C141.006 201.455 140.528 201.571 140.107 201.803C139.69 202.035 139.361 202.373 139.119 202.818C138.878 203.263 138.757 203.803 138.757 204.438ZM153.184 215.318C152.374 215.318 151.678 215.214 151.096 215.006C150.513 214.802 150.028 214.532 149.64 214.196C149.256 213.865 148.951 213.509 148.723 213.131L150.059 212.193C150.21 212.392 150.402 212.619 150.634 212.875C150.866 213.135 151.183 213.36 151.586 213.55C151.993 213.744 152.525 213.841 153.184 213.841C154.064 213.841 154.791 213.628 155.364 213.202C155.937 212.776 156.223 212.108 156.223 211.199V208.983H156.081C155.958 209.182 155.783 209.428 155.556 209.722C155.333 210.01 155.011 210.268 154.59 210.496C154.173 210.718 153.61 210.83 152.9 210.83C152.019 210.83 151.228 210.621 150.527 210.205C149.831 209.788 149.28 209.182 148.873 208.386C148.47 207.591 148.269 206.625 148.269 205.489C148.269 204.371 148.465 203.398 148.858 202.57C149.251 201.736 149.798 201.092 150.499 200.638C151.2 200.179 152.009 199.949 152.928 199.949C153.638 199.949 154.202 200.067 154.618 200.304C155.04 200.536 155.362 200.801 155.584 201.099C155.811 201.393 155.987 201.634 156.11 201.824H156.28V200.091H157.9V211.312C157.9 212.25 157.686 213.012 157.26 213.599C156.839 214.191 156.271 214.625 155.556 214.899C154.846 215.179 154.055 215.318 153.184 215.318ZM153.127 209.324C153.799 209.324 154.367 209.17 154.831 208.862C155.295 208.554 155.648 208.112 155.89 207.534C156.131 206.956 156.252 206.265 156.252 205.46C156.252 204.674 156.133 203.981 155.897 203.379C155.66 202.778 155.31 202.307 154.846 201.966C154.382 201.625 153.809 201.455 153.127 201.455C152.417 201.455 151.825 201.634 151.351 201.994C150.882 202.354 150.53 202.837 150.293 203.443C150.061 204.049 149.945 204.722 149.945 205.46C149.945 206.218 150.063 206.888 150.3 207.47C150.542 208.048 150.897 208.502 151.365 208.834C151.839 209.161 152.426 209.324 153.127 209.324ZM171.451 200.091V201.511H165.57V200.091H171.451ZM167.331 211V198.585C167.331 197.96 167.478 197.439 167.772 197.023C168.065 196.606 168.446 196.294 168.915 196.085C169.384 195.877 169.879 195.773 170.4 195.773C170.811 195.773 171.148 195.806 171.408 195.872C171.668 195.938 171.863 196 171.99 196.057L171.507 197.506C171.422 197.477 171.304 197.442 171.152 197.399C171.006 197.357 170.811 197.335 170.57 197.335C170.016 197.335 169.616 197.475 169.37 197.754C169.128 198.034 169.007 198.443 169.007 198.983V211H167.331ZM177.782 211.227C176.797 211.227 175.933 210.993 175.19 210.524C174.451 210.055 173.874 209.4 173.457 208.557C173.045 207.714 172.839 206.729 172.839 205.602C172.839 204.466 173.045 203.474 173.457 202.626C173.874 201.779 174.451 201.121 175.19 200.652C175.933 200.183 176.797 199.949 177.782 199.949C178.767 199.949 179.629 200.183 180.368 200.652C181.111 201.121 181.689 201.779 182.1 202.626C182.517 203.474 182.725 204.466 182.725 205.602C182.725 206.729 182.517 207.714 182.1 208.557C181.689 209.4 181.111 210.055 180.368 210.524C179.629 210.993 178.767 211.227 177.782 211.227ZM177.782 209.722C178.53 209.722 179.146 209.53 179.629 209.146C180.112 208.763 180.469 208.259 180.701 207.634C180.933 207.009 181.049 206.331 181.049 205.602C181.049 204.873 180.933 204.194 180.701 203.564C180.469 202.934 180.112 202.425 179.629 202.037C179.146 201.649 178.53 201.455 177.782 201.455C177.034 201.455 176.419 201.649 175.936 202.037C175.453 202.425 175.095 202.934 174.863 203.564C174.631 204.194 174.515 204.873 174.515 205.602C174.515 206.331 174.631 207.009 174.863 207.634C175.095 208.259 175.453 208.763 175.936 209.146C176.419 209.53 177.034 209.722 177.782 209.722ZM185.284 211V200.091H186.903V201.739H187.017C187.216 201.199 187.576 200.761 188.097 200.425C188.617 200.089 189.205 199.92 189.858 199.92C189.981 199.92 190.135 199.923 190.32 199.928C190.504 199.932 190.644 199.939 190.739 199.949V201.653C190.682 201.639 190.552 201.618 190.348 201.589C190.149 201.556 189.938 201.54 189.716 201.54C189.186 201.54 188.712 201.651 188.295 201.874C187.884 202.091 187.557 202.394 187.315 202.783C187.079 203.166 186.96 203.604 186.96 204.097V211H185.284ZM206.078 202.534L204.572 202.96C204.477 202.709 204.338 202.465 204.153 202.229C203.973 201.987 203.727 201.788 203.414 201.632C203.102 201.476 202.702 201.398 202.214 201.398C201.547 201.398 200.99 201.552 200.545 201.859C200.105 202.162 199.885 202.548 199.885 203.017C199.885 203.434 200.036 203.763 200.339 204.004C200.642 204.246 201.116 204.447 201.76 204.608L203.379 205.006C204.354 205.242 205.081 205.605 205.559 206.092C206.038 206.575 206.277 207.198 206.277 207.96C206.277 208.585 206.097 209.144 205.737 209.636C205.382 210.129 204.885 210.517 204.245 210.801C203.606 211.085 202.863 211.227 202.015 211.227C200.903 211.227 199.982 210.986 199.252 210.503C198.523 210.02 198.062 209.314 197.868 208.386L199.458 207.989C199.61 208.576 199.896 209.016 200.318 209.31C200.744 209.603 201.3 209.75 201.987 209.75C202.768 209.75 203.388 209.584 203.848 209.253C204.312 208.917 204.544 208.514 204.544 208.045C204.544 207.667 204.411 207.349 204.146 207.094C203.881 206.833 203.474 206.639 202.924 206.511L201.106 206.085C200.107 205.848 199.373 205.482 198.904 204.984C198.44 204.482 198.208 203.855 198.208 203.102C198.208 202.487 198.381 201.942 198.727 201.469C199.077 200.995 199.553 200.624 200.154 200.354C200.761 200.084 201.447 199.949 202.214 199.949C203.294 199.949 204.141 200.186 204.757 200.659C205.377 201.133 205.817 201.758 206.078 202.534ZM215.675 206.54V200.091H217.351V211H215.675V209.153H215.561C215.305 209.707 214.908 210.179 214.368 210.567C213.828 210.95 213.146 211.142 212.322 211.142C211.641 211.142 211.035 210.993 210.504 210.695C209.974 210.392 209.557 209.937 209.254 209.331C208.951 208.72 208.8 207.951 208.8 207.023V200.091H210.476V206.909C210.476 207.705 210.698 208.339 211.143 208.812C211.593 209.286 212.166 209.523 212.862 209.523C213.279 209.523 213.703 209.416 214.134 209.203C214.569 208.99 214.934 208.663 215.227 208.223C215.526 207.783 215.675 207.222 215.675 206.54ZM224.853 211.227C223.83 211.227 222.949 210.986 222.211 210.503C221.472 210.02 220.904 209.355 220.506 208.507C220.108 207.66 219.909 206.691 219.909 205.602C219.909 204.494 220.113 203.517 220.52 202.669C220.932 201.817 221.505 201.152 222.239 200.673C222.978 200.19 223.839 199.949 224.824 199.949C225.591 199.949 226.283 200.091 226.898 200.375C227.514 200.659 228.018 201.057 228.411 201.568C228.804 202.08 229.048 202.676 229.142 203.358H227.466C227.338 202.861 227.054 202.42 226.614 202.037C226.178 201.649 225.591 201.455 224.853 201.455C224.199 201.455 223.626 201.625 223.134 201.966C222.646 202.302 222.265 202.778 221.99 203.393C221.721 204.004 221.586 204.722 221.586 205.545C221.586 206.388 221.718 207.122 221.983 207.747C222.253 208.372 222.632 208.857 223.12 209.203C223.612 209.549 224.19 209.722 224.853 209.722C225.288 209.722 225.684 209.646 226.039 209.494C226.394 209.343 226.694 209.125 226.941 208.841C227.187 208.557 227.362 208.216 227.466 207.818H229.142C229.048 208.462 228.813 209.042 228.439 209.558C228.07 210.07 227.58 210.477 226.969 210.78C226.363 211.078 225.658 211.227 224.853 211.227ZM236.025 211.227C235.002 211.227 234.121 210.986 233.382 210.503C232.644 210.02 232.076 209.355 231.678 208.507C231.28 207.66 231.081 206.691 231.081 205.602C231.081 204.494 231.285 203.517 231.692 202.669C232.104 201.817 232.677 201.152 233.411 200.673C234.15 200.19 235.011 199.949 235.996 199.949C236.763 199.949 237.454 200.091 238.07 200.375C238.685 200.659 239.19 201.057 239.583 201.568C239.976 202.08 240.22 202.676 240.314 203.358H238.638C238.51 202.861 238.226 202.42 237.786 202.037C237.35 201.649 236.763 201.455 236.025 201.455C235.371 201.455 234.798 201.625 234.306 201.966C233.818 202.302 233.437 202.778 233.162 203.393C232.892 204.004 232.757 204.722 232.757 205.545C232.757 206.388 232.89 207.122 233.155 207.747C233.425 208.372 233.804 208.857 234.292 209.203C234.784 209.549 235.362 209.722 236.025 209.722C236.46 209.722 236.855 209.646 237.211 209.494C237.566 209.343 237.866 209.125 238.113 208.841C238.359 208.557 238.534 208.216 238.638 207.818H240.314C240.22 208.462 239.985 209.042 239.611 209.558C239.242 210.07 238.752 210.477 238.141 210.78C237.535 211.078 236.829 211.227 236.025 211.227ZM247.338 211.227C246.287 211.227 245.381 210.995 244.618 210.531C243.861 210.062 243.276 209.409 242.864 208.571C242.457 207.728 242.253 206.748 242.253 205.631C242.253 204.513 242.457 203.528 242.864 202.676C243.276 201.819 243.849 201.152 244.583 200.673C245.321 200.19 246.183 199.949 247.168 199.949C247.736 199.949 248.297 200.044 248.851 200.233C249.405 200.422 249.909 200.73 250.364 201.156C250.819 201.578 251.181 202.136 251.451 202.832C251.721 203.528 251.855 204.385 251.855 205.403V206.114H243.446V204.665H250.151C250.151 204.049 250.028 203.5 249.782 203.017C249.54 202.534 249.194 202.153 248.745 201.874C248.3 201.594 247.774 201.455 247.168 201.455C246.5 201.455 245.923 201.62 245.435 201.952C244.952 202.278 244.58 202.705 244.32 203.23C244.06 203.756 243.929 204.319 243.929 204.92V205.886C243.929 206.71 244.071 207.409 244.355 207.982C244.644 208.55 245.044 208.983 245.556 209.281C246.067 209.575 246.661 209.722 247.338 209.722C247.779 209.722 248.176 209.66 248.532 209.537C248.891 209.409 249.202 209.22 249.462 208.969C249.722 208.713 249.924 208.396 250.066 208.017L251.685 208.472C251.515 209.021 251.228 209.504 250.826 209.92C250.423 210.332 249.926 210.654 249.334 210.886C248.742 211.114 248.077 211.227 247.338 211.227ZM262.132 202.534L260.627 202.96C260.532 202.709 260.392 202.465 260.208 202.229C260.028 201.987 259.782 201.788 259.469 201.632C259.157 201.476 258.757 201.398 258.269 201.398C257.601 201.398 257.045 201.552 256.6 201.859C256.159 202.162 255.939 202.548 255.939 203.017C255.939 203.434 256.091 203.763 256.394 204.004C256.697 204.246 257.17 204.447 257.814 204.608L259.434 205.006C260.409 205.242 261.136 205.605 261.614 206.092C262.092 206.575 262.331 207.198 262.331 207.96C262.331 208.585 262.151 209.144 261.792 209.636C261.436 210.129 260.939 210.517 260.3 210.801C259.661 211.085 258.917 211.227 258.07 211.227C256.957 211.227 256.036 210.986 255.307 210.503C254.578 210.02 254.116 209.314 253.922 208.386L255.513 207.989C255.665 208.576 255.951 209.016 256.373 209.31C256.799 209.603 257.355 209.75 258.042 209.75C258.823 209.75 259.443 209.584 259.902 209.253C260.366 208.917 260.598 208.514 260.598 208.045C260.598 207.667 260.466 207.349 260.201 207.094C259.935 206.833 259.528 206.639 258.979 206.511L257.161 206.085C256.162 205.848 255.428 205.482 254.959 204.984C254.495 204.482 254.263 203.855 254.263 203.102C254.263 202.487 254.436 201.942 254.782 201.469C255.132 200.995 255.608 200.624 256.209 200.354C256.815 200.084 257.502 199.949 258.269 199.949C259.348 199.949 260.196 200.186 260.811 200.659C261.432 201.133 261.872 201.758 262.132 202.534ZM272.582 202.534L271.076 202.96C270.981 202.709 270.842 202.465 270.657 202.229C270.477 201.987 270.231 201.788 269.918 201.632C269.606 201.476 269.206 201.398 268.718 201.398C268.05 201.398 267.494 201.552 267.049 201.859C266.609 202.162 266.388 202.548 266.388 203.017C266.388 203.434 266.54 203.763 266.843 204.004C267.146 204.246 267.62 204.447 268.263 204.608L269.883 205.006C270.858 205.242 271.585 205.605 272.063 206.092C272.541 206.575 272.781 207.198 272.781 207.96C272.781 208.585 272.601 209.144 272.241 209.636C271.886 210.129 271.388 210.517 270.749 210.801C270.11 211.085 269.367 211.227 268.519 211.227C267.406 211.227 266.486 210.986 265.756 210.503C265.027 210.02 264.566 209.314 264.371 208.386L265.962 207.989C266.114 208.576 266.4 209.016 266.822 209.31C267.248 209.603 267.804 209.75 268.491 209.75C269.272 209.75 269.892 209.584 270.352 209.253C270.816 208.917 271.048 208.514 271.048 208.045C271.048 207.667 270.915 207.349 270.65 207.094C270.385 206.833 269.978 206.639 269.428 206.511L267.61 206.085C266.611 205.848 265.877 205.482 265.408 204.984C264.944 204.482 264.712 203.855 264.712 203.102C264.712 202.487 264.885 201.942 265.231 201.469C265.581 200.995 266.057 200.624 266.658 200.354C267.264 200.084 267.951 199.949 268.718 199.949C269.798 199.949 270.645 200.186 271.261 200.659C271.881 201.133 272.321 201.758 272.582 202.534Z" fill="white"/>
<path d="M33.72 177V147.8H41.68C46 147.8 49.1733 148.56 51.2 150.08C53.2533 151.6 54.28 153.973 54.28 157.2C54.28 160.4 53.28 162.773 51.28 164.32C49.3067 165.867 46.24 166.64 42.08 166.64H35.32V163.68H41.76C45.0133 163.68 47.36 163.173 48.8 162.16C50.2667 161.147 51 159.493 51 157.2C51 154.933 50.2667 153.293 48.8 152.28C47.36 151.24 45.0133 150.72 41.76 150.72H36.92V177H33.72ZM59.2278 177V147.8H77.7878V150.68H62.4278V160.2H76.9878V163.04H62.4278V174.12H77.7878V177H59.2278ZM84.4231 177V147.8H92.7831C97.0231 147.8 100.116 148.48 102.063 149.84C104.01 151.173 104.983 153.307 104.983 156.24C104.983 159.147 104.036 161.307 102.143 162.72C100.25 164.107 97.3165 164.8 93.3431 164.8H86.0231V162H92.9431C96.0365 162 98.2631 161.56 99.6231 160.68C101.01 159.773 101.703 158.333 101.703 156.36C101.703 154.387 101.01 152.96 99.6231 152.08C98.2631 151.173 96.0365 150.72 92.9431 150.72H87.6231V177H84.4231ZM102.183 177L87.5431 163.56H91.6631L106.423 177H102.183ZM119.702 177.4C117.942 177.4 116.169 177.213 114.382 176.84C112.622 176.467 111.129 175.96 109.902 175.32L110.782 172.44C111.609 172.84 112.529 173.2 113.542 173.52C114.582 173.813 115.649 174.053 116.742 174.24C117.835 174.4 118.889 174.48 119.902 174.48C122.249 174.48 124.049 174.027 125.302 173.12C126.582 172.213 127.222 170.933 127.222 169.28C127.222 168.347 127.022 167.573 126.622 166.96C126.249 166.32 125.702 165.8 124.982 165.4C124.262 164.973 123.395 164.6 122.382 164.28C121.395 163.96 120.315 163.64 119.142 163.32C117.862 162.973 116.675 162.587 115.582 162.16C114.489 161.707 113.515 161.173 112.662 160.56C111.835 159.92 111.182 159.16 110.702 158.28C110.249 157.373 110.022 156.293 110.022 155.04C110.022 152.587 110.942 150.707 112.782 149.4C114.622 148.067 117.209 147.4 120.542 147.4C122.249 147.4 123.942 147.573 125.622 147.92C127.329 148.24 128.755 148.68 129.902 149.24L129.022 152.12C127.902 151.587 126.582 151.16 125.062 150.84C123.542 150.493 122.022 150.32 120.502 150.32C118.182 150.32 116.409 150.733 115.182 151.56C113.955 152.387 113.342 153.56 113.342 155.08C113.342 155.96 113.529 156.693 113.902 157.28C114.275 157.867 114.795 158.36 115.462 158.76C116.155 159.16 116.955 159.52 117.862 159.84C118.795 160.133 119.835 160.44 120.982 160.76C122.315 161.133 123.555 161.547 124.702 162C125.875 162.427 126.889 162.96 127.742 163.6C128.622 164.24 129.315 165.027 129.822 165.96C130.329 166.867 130.582 167.987 130.582 169.32C130.582 171.853 129.622 173.84 127.702 175.28C125.809 176.693 123.142 177.4 119.702 177.4ZM137.167 177V147.8H140.487V177H137.167ZM156.889 177.4C155.129 177.4 153.356 177.213 151.569 176.84C149.809 176.467 148.316 175.96 147.089 175.32L147.969 172.44C148.796 172.84 149.716 173.2 150.729 173.52C151.769 173.813 152.836 174.053 153.929 174.24C155.023 174.4 156.076 174.48 157.089 174.48C159.436 174.48 161.236 174.027 162.489 173.12C163.769 172.213 164.409 170.933 164.409 169.28C164.409 168.347 164.209 167.573 163.809 166.96C163.436 166.32 162.889 165.8 162.169 165.4C161.449 164.973 160.583 164.6 159.569 164.28C158.583 163.96 157.503 163.64 156.329 163.32C155.049 162.973 153.863 162.587 152.769 162.16C151.676 161.707 150.703 161.173 149.849 160.56C149.023 159.92 148.369 159.16 147.889 158.28C147.436 157.373 147.209 156.293 147.209 155.04C147.209 152.587 148.129 150.707 149.969 149.4C151.809 148.067 154.396 147.4 157.729 147.4C159.436 147.4 161.129 147.573 162.809 147.92C164.516 148.24 165.943 148.68 167.089 149.24L166.209 152.12C165.089 151.587 163.769 151.16 162.249 150.84C160.729 150.493 159.209 150.32 157.689 150.32C155.369 150.32 153.596 150.733 152.369 151.56C151.143 152.387 150.529 153.56 150.529 155.08C150.529 155.96 150.716 156.693 151.089 157.28C151.463 157.867 151.983 158.36 152.649 158.76C153.343 159.16 154.143 159.52 155.049 159.84C155.983 160.133 157.023 160.44 158.169 160.76C159.503 161.133 160.743 161.547 161.889 162C163.063 162.427 164.076 162.96 164.929 163.6C165.809 164.24 166.503 165.027 167.009 165.96C167.516 166.867 167.769 167.987 167.769 169.32C167.769 171.853 166.809 173.84 164.889 175.28C162.996 176.693 160.329 177.4 156.889 177.4ZM180.626 177V150.72H170.146V147.8H194.426V150.72H183.946V177H180.626ZM199.384 177V147.8H217.944V150.68H202.584V160.2H217.144V163.04H202.584V174.12H217.944V177H199.384ZM224.579 177V147.8H228.219L243.979 171.92H244.059V147.8H247.259V177H243.659L227.859 152.88H227.779V177H224.579ZM267.897 177.4C264.83 177.4 262.163 176.8 259.897 175.6C257.63 174.373 255.883 172.64 254.657 170.4C253.457 168.16 252.857 165.493 252.857 162.4C252.857 159.307 253.457 156.64 254.657 154.4C255.883 152.16 257.63 150.44 259.897 149.24C262.163 148.013 264.83 147.4 267.897 147.4C271.47 147.4 274.63 148.227 277.377 149.88L276.537 152.72C273.87 151.12 271.03 150.32 268.017 150.32C265.59 150.32 263.483 150.813 261.697 151.8C259.937 152.787 258.577 154.187 257.617 156C256.657 157.787 256.177 159.92 256.177 162.4C256.177 164.853 256.657 166.987 257.617 168.8C258.577 170.613 259.937 172.013 261.697 173C263.483 173.987 265.59 174.48 268.017 174.48C270.977 174.48 273.817 173.68 276.537 172.08L277.377 174.92C274.63 176.573 271.47 177.4 267.897 177.4ZM284.111 177V147.8H302.671V150.68H287.311V160.2H301.871V163.04H287.311V174.12H302.671V177H284.111Z" fill="white"/>
<path fill-rule="evenodd" clip-rule="evenodd" d="M122 66.0031L168.526 40L182.472 46.8787L180.016 61.1276L148.041 78.3622L148.268 116.233L124.003 129.121L122 66.0031Z" fill="#F07E3D"/>
<path fill-rule="evenodd" clip-rule="evenodd" d="M122.605 51.9305L122 26.5321L167.279 0.0375977L218.454 26.6833L218.34 78.0093L160.135 109.417L159.984 84.0187L193.584 66.2549L194.227 38.9667L170.378 25.9274L122.605 51.9305Z" fill="#081F89"/>
<path fill-rule="evenodd" clip-rule="evenodd" d="M122.605 51.9305L122 26.5321L167.279 0.0375977L218.454 26.6833L218.34 78.0093L160.135 109.417L159.984 84.0187L193.584 66.2549L194.227 38.9667L170.378 25.9274L122.605 51.9305Z" fill="white"/>
</svg>
