<svg width="536" height="130" viewBox="0 0 536 130" fill="none" xmlns="http://www.w3.org/2000/svg">
<path d="M131.39 89.2V101.62C131.39 104.16 130.72 106.08 129.38 107.38C128.04 108.66 126.12 109.3 123.62 109.3C121.14 109.3 119.22 108.66 117.86 107.38C116.52 106.08 115.85 104.16 115.85 101.62V89.2H118.25V101.02C118.25 103.08 118.68 104.6 119.54 105.58C120.42 106.56 121.78 107.05 123.62 107.05C125.46 107.05 126.81 106.56 127.67 105.58C128.55 104.6 128.99 103.08 128.99 101.02V89.2H131.39ZM136.884 109V94H138.984L139.194 97.36L138.804 97.03C139.124 96.23 139.554 95.59 140.094 95.11C140.634 94.61 141.254 94.25 141.954 94.03C142.674 93.81 143.414 93.7 144.174 93.7C145.254 93.7 146.234 93.91 147.114 94.33C147.994 94.73 148.694 95.35 149.214 96.19C149.754 97.03 150.024 98.1 150.024 99.4V109H147.624V100.24C147.624 98.58 147.264 97.43 146.544 96.79C145.844 96.13 144.974 95.8 143.934 95.8C143.214 95.8 142.494 95.97 141.774 96.31C141.054 96.65 140.454 97.2 139.974 97.96C139.514 98.72 139.284 99.74 139.284 101.02V109H136.884ZM157.738 87.1V105.19C157.738 105.95 157.878 106.48 158.158 106.78C158.438 107.06 158.888 107.2 159.508 107.2C159.908 107.2 160.238 107.17 160.498 107.11C160.758 107.05 161.108 106.94 161.548 106.78L161.158 108.88C160.838 109.02 160.488 109.12 160.108 109.18C159.728 109.26 159.338 109.3 158.938 109.3C157.718 109.3 156.808 108.97 156.208 108.31C155.628 107.65 155.338 106.64 155.338 105.28V87.1H157.738ZM170.838 93.7C172.258 93.7 173.508 94.01 174.588 94.63C175.688 95.25 176.548 96.15 177.168 97.33C177.788 98.49 178.098 99.88 178.098 101.5C178.098 103.12 177.788 104.52 177.168 105.7C176.548 106.86 175.688 107.75 174.588 108.37C173.508 108.99 172.258 109.3 170.838 109.3C169.438 109.3 168.188 108.99 167.088 108.37C165.988 107.75 165.128 106.86 164.508 105.7C163.888 104.52 163.578 103.12 163.578 101.5C163.578 99.88 163.888 98.49 164.508 97.33C165.128 96.15 165.988 95.25 167.088 94.63C168.188 94.01 169.438 93.7 170.838 93.7ZM170.838 95.77C169.818 95.77 168.948 96 168.228 96.46C167.508 96.92 166.948 97.58 166.548 98.44C166.168 99.28 165.978 100.3 165.978 101.5C165.978 102.68 166.168 103.7 166.548 104.56C166.948 105.42 167.508 106.08 168.228 106.54C168.948 107 169.818 107.23 170.838 107.23C171.858 107.23 172.728 107 173.448 106.54C174.168 106.08 174.718 105.42 175.098 104.56C175.498 103.7 175.698 102.68 175.698 101.5C175.698 100.3 175.498 99.28 175.098 98.44C174.718 97.58 174.168 96.92 173.448 96.46C172.728 96 171.858 95.77 170.838 95.77ZM188.826 93.7C189.866 93.7 190.776 93.86 191.556 94.18C192.356 94.5 193.046 94.96 193.626 95.56C194.206 96.16 194.676 96.87 195.036 97.69L192.756 98.77C192.436 97.81 191.946 97.08 191.286 96.58C190.646 96.06 189.806 95.8 188.766 95.8C187.766 95.8 186.906 96.03 186.186 96.49C185.466 96.93 184.916 97.58 184.536 98.44C184.156 99.28 183.966 100.3 183.966 101.5C183.966 102.68 184.156 103.7 184.536 104.56C184.916 105.42 185.466 106.08 186.186 106.54C186.906 106.98 187.766 107.2 188.766 107.2C189.546 107.2 190.216 107.08 190.776 106.84C191.356 106.6 191.826 106.25 192.186 105.79C192.566 105.33 192.826 104.77 192.966 104.11L195.186 104.89C194.846 105.81 194.376 106.6 193.776 107.26C193.196 107.92 192.486 108.43 191.646 108.79C190.826 109.13 189.886 109.3 188.826 109.3C187.426 109.3 186.176 108.99 185.076 108.37C183.976 107.75 183.116 106.86 182.496 105.7C181.876 104.52 181.566 103.12 181.566 101.5C181.566 99.88 181.876 98.49 182.496 97.33C183.116 96.15 183.976 95.25 185.076 94.63C186.176 94.01 187.426 93.7 188.826 93.7ZM212.573 94L206.093 100.48L205.523 101.05L200.603 105.97V102.97L209.543 94H212.573ZM201.803 87.1V109H199.403V87.1H201.803ZM206.303 99.25L212.933 109H210.023L204.293 100.6L206.303 99.25ZM237.544 94L230.494 111.52C230.114 112.5 229.694 113.27 229.234 113.83C228.794 114.41 228.294 114.82 227.734 115.06C227.194 115.32 226.564 115.45 225.844 115.45C225.164 115.45 224.534 115.35 223.954 115.15C223.394 114.97 222.894 114.72 222.454 114.4L223.114 112.3C223.514 112.66 223.934 112.92 224.374 113.08C224.834 113.26 225.284 113.35 225.724 113.35C226.244 113.35 226.734 113.19 227.194 112.87C227.654 112.55 228.074 111.9 228.454 110.92L229.234 108.97L227.734 105.4L222.964 94H225.694L229.444 103.78L230.374 106.45L231.454 103.48L234.964 94H237.544ZM246.893 93.7C248.313 93.7 249.563 94.01 250.643 94.63C251.743 95.25 252.603 96.15 253.223 97.33C253.843 98.49 254.153 99.88 254.153 101.5C254.153 103.12 253.843 104.52 253.223 105.7C252.603 106.86 251.743 107.75 250.643 108.37C249.563 108.99 248.313 109.3 246.893 109.3C245.493 109.3 244.243 108.99 243.143 108.37C242.043 107.75 241.183 106.86 240.563 105.7C239.943 104.52 239.633 103.12 239.633 101.5C239.633 99.88 239.943 98.49 240.563 97.33C241.183 96.15 242.043 95.25 243.143 94.63C244.243 94.01 245.493 93.7 246.893 93.7ZM246.893 95.77C245.873 95.77 245.003 96 244.283 96.46C243.563 96.92 243.003 97.58 242.603 98.44C242.223 99.28 242.033 100.3 242.033 101.5C242.033 102.68 242.223 103.7 242.603 104.56C243.003 105.42 243.563 106.08 244.283 106.54C245.003 107 245.873 107.23 246.893 107.23C247.913 107.23 248.783 107 249.503 106.54C250.223 106.08 250.773 105.42 251.153 104.56C251.553 103.7 251.753 102.68 251.753 101.5C251.753 100.3 251.553 99.28 251.153 98.44C250.773 97.58 250.223 96.92 249.503 96.46C248.783 96 247.913 95.77 246.893 95.77ZM264.101 109.3C263.141 109.3 262.231 109.12 261.371 108.76C260.531 108.4 259.841 107.82 259.301 107.02C258.781 106.2 258.521 105.14 258.521 103.84V94H260.921V103.21C260.921 104.73 261.251 105.78 261.911 106.36C262.571 106.92 263.501 107.2 264.701 107.2C265.261 107.2 265.811 107.11 266.351 106.93C266.891 106.73 267.371 106.43 267.791 106.03C268.231 105.61 268.571 105.08 268.811 104.44C269.071 103.8 269.201 103.04 269.201 102.16V94H271.601V109H269.501L269.351 106.72C268.831 107.62 268.121 108.28 267.221 108.7C266.341 109.1 265.301 109.3 264.101 109.3ZM277.186 109V94H279.136L279.466 96.46C279.886 95.54 280.496 94.85 281.296 94.39C282.116 93.93 283.106 93.7 284.266 93.7C284.526 93.7 284.806 93.72 285.106 93.76C285.426 93.8 285.696 93.88 285.916 94L285.496 96.19C285.276 96.11 285.036 96.05 284.776 96.01C284.516 95.97 284.146 95.95 283.666 95.95C283.046 95.95 282.416 96.13 281.776 96.49C281.156 96.85 280.636 97.4 280.216 98.14C279.796 98.86 279.586 99.78 279.586 100.9V109H277.186ZM298.954 115.3V94H301.054L301.264 97.66L300.934 97.24C301.194 96.54 301.584 95.93 302.104 95.41C302.624 94.87 303.254 94.45 303.994 94.15C304.734 93.85 305.534 93.7 306.394 93.7C307.614 93.7 308.734 94.01 309.754 94.63C310.794 95.25 311.624 96.14 312.244 97.3C312.864 98.46 313.174 99.86 313.174 101.5C313.174 103.12 312.854 104.52 312.214 105.7C311.594 106.86 310.764 107.75 309.724 108.37C308.684 108.99 307.544 109.3 306.304 109.3C305.064 109.3 303.974 109 303.034 108.4C302.114 107.78 301.454 107 301.054 106.06L301.354 105.61V115.3H298.954ZM306.064 107.2C307.544 107.2 308.694 106.68 309.514 105.64C310.354 104.6 310.774 103.22 310.774 101.5C310.774 99.78 310.364 98.4 309.544 97.36C308.744 96.32 307.614 95.8 306.154 95.8C305.194 95.8 304.354 96.04 303.634 96.52C302.914 96.98 302.354 97.64 301.954 98.5C301.554 99.34 301.354 100.34 301.354 101.5C301.354 102.64 301.544 103.64 301.924 104.5C302.324 105.36 302.874 106.03 303.574 106.51C304.294 106.97 305.124 107.2 306.064 107.2ZM323.973 93.7C325.393 93.7 326.643 94.01 327.723 94.63C328.823 95.25 329.683 96.15 330.303 97.33C330.923 98.49 331.233 99.88 331.233 101.5C331.233 103.12 330.923 104.52 330.303 105.7C329.683 106.86 328.823 107.75 327.723 108.37C326.643 108.99 325.393 109.3 323.973 109.3C322.573 109.3 321.323 108.99 320.223 108.37C319.123 107.75 318.263 106.86 317.643 105.7C317.023 104.52 316.713 103.12 316.713 101.5C316.713 99.88 317.023 98.49 317.643 97.33C318.263 96.15 319.123 95.25 320.223 94.63C321.323 94.01 322.573 93.7 323.973 93.7ZM323.973 95.77C322.953 95.77 322.083 96 321.363 96.46C320.643 96.92 320.083 97.58 319.683 98.44C319.303 99.28 319.113 100.3 319.113 101.5C319.113 102.68 319.303 103.7 319.683 104.56C320.083 105.42 320.643 106.08 321.363 106.54C322.083 107 322.953 107.23 323.973 107.23C324.993 107.23 325.863 107 326.583 106.54C327.303 106.08 327.853 105.42 328.233 104.56C328.633 103.7 328.833 102.68 328.833 101.5C328.833 100.3 328.633 99.28 328.233 98.44C327.853 97.58 327.303 96.92 326.583 96.46C325.863 96 324.993 95.77 323.973 95.77ZM339.027 89.74V104.86C339.027 105.6 339.237 106.15 339.657 106.51C340.077 106.87 340.617 107.05 341.277 107.05C341.857 107.05 342.357 106.95 342.777 106.75C343.197 106.55 343.577 106.28 343.917 105.94L344.757 107.95C344.297 108.37 343.747 108.7 343.107 108.94C342.487 109.18 341.767 109.3 340.947 109.3C340.187 109.3 339.477 109.17 338.817 108.91C338.157 108.63 337.627 108.2 337.227 107.62C336.847 107.02 336.647 106.24 336.627 105.28V90.4L339.027 89.74ZM344.487 94V96.07H333.627V94H344.487ZM354.326 109.3C352.906 109.3 351.636 108.99 350.516 108.37C349.416 107.75 348.556 106.86 347.936 105.7C347.316 104.52 347.006 103.12 347.006 101.5C347.006 99.88 347.316 98.49 347.936 97.33C348.556 96.15 349.406 95.25 350.486 94.63C351.566 94.01 352.796 93.7 354.176 93.7C355.576 93.7 356.766 94 357.746 94.6C358.746 95.2 359.506 96.02 360.026 97.06C360.546 98.08 360.806 99.23 360.806 100.51C360.806 100.85 360.796 101.16 360.776 101.44C360.756 101.72 360.726 101.97 360.686 102.19H348.566V100.06H359.636L358.406 100.3C358.406 98.86 358.006 97.75 357.206 96.97C356.426 96.19 355.396 95.8 354.116 95.8C353.136 95.8 352.286 96.03 351.566 96.49C350.866 96.93 350.316 97.58 349.916 98.44C349.536 99.28 349.346 100.3 349.346 101.5C349.346 102.68 349.546 103.7 349.946 104.56C350.346 105.42 350.906 106.08 351.626 106.54C352.366 106.98 353.246 107.2 354.266 107.2C355.366 107.2 356.256 106.99 356.936 106.57C357.636 106.15 358.196 105.58 358.616 104.86L360.506 105.97C360.126 106.65 359.636 107.24 359.036 107.74C358.456 108.24 357.766 108.63 356.966 108.91C356.186 109.17 355.306 109.3 354.326 109.3ZM365.37 109V94H367.47L367.68 97.36L367.29 97.03C367.61 96.23 368.04 95.59 368.58 95.11C369.12 94.61 369.74 94.25 370.44 94.03C371.16 93.81 371.9 93.7 372.66 93.7C373.74 93.7 374.72 93.91 375.6 94.33C376.48 94.73 377.18 95.35 377.7 96.19C378.24 97.03 378.51 98.1 378.51 99.4V109H376.11V100.24C376.11 98.58 375.75 97.43 375.03 96.79C374.33 96.13 373.46 95.8 372.42 95.8C371.7 95.8 370.98 95.97 370.26 96.31C369.54 96.65 368.94 97.2 368.46 97.96C368 98.72 367.77 99.74 367.77 101.02V109H365.37ZM387.279 89.74V104.86C387.279 105.6 387.489 106.15 387.909 106.51C388.329 106.87 388.869 107.05 389.529 107.05C390.109 107.05 390.609 106.95 391.029 106.75C391.449 106.55 391.829 106.28 392.169 105.94L393.009 107.95C392.549 108.37 391.999 108.7 391.359 108.94C390.739 109.18 390.019 109.3 389.199 109.3C388.439 109.3 387.729 109.17 387.069 108.91C386.409 108.63 385.879 108.2 385.479 107.62C385.099 107.02 384.899 106.24 384.879 105.28V90.4L387.279 89.74ZM392.739 94V96.07H381.879V94H392.739ZM397.508 91.12C396.968 91.12 396.528 90.96 396.188 90.64C395.868 90.3 395.708 89.86 395.708 89.32C395.708 88.78 395.868 88.35 396.188 88.03C396.528 87.69 396.968 87.52 397.508 87.52C398.048 87.52 398.478 87.69 398.798 88.03C399.138 88.35 399.308 88.78 399.308 89.32C399.308 89.86 399.138 90.3 398.798 90.64C398.478 90.96 398.048 91.12 397.508 91.12ZM398.708 94V109H396.308V94H398.708ZM413.036 99.31C413.036 98.19 412.736 97.33 412.136 96.73C411.536 96.11 410.686 95.8 409.586 95.8C408.546 95.8 407.666 96.03 406.946 96.49C406.226 96.93 405.696 97.65 405.356 98.65L403.406 97.45C403.806 96.33 404.546 95.43 405.626 94.75C406.706 94.05 408.046 93.7 409.646 93.7C410.726 93.7 411.706 93.89 412.586 94.27C413.466 94.63 414.156 95.19 414.656 95.95C415.176 96.69 415.436 97.65 415.436 98.83V106.09C415.436 106.81 415.816 107.17 416.576 107.17C416.956 107.17 417.326 107.12 417.686 107.02L417.566 108.91C417.166 109.11 416.646 109.21 416.006 109.21C415.426 109.21 414.906 109.1 414.446 108.88C413.986 108.66 413.626 108.33 413.366 107.89C413.106 107.43 412.976 106.86 412.976 106.18V105.88L413.576 105.97C413.336 106.75 412.926 107.39 412.346 107.89C411.766 108.37 411.116 108.73 410.396 108.97C409.676 109.19 408.966 109.3 408.266 109.3C407.386 109.3 406.566 109.15 405.806 108.85C405.046 108.55 404.436 108.1 403.976 107.5C403.536 106.88 403.316 106.12 403.316 105.22C403.316 104.1 403.686 103.18 404.426 102.46C405.186 101.72 406.236 101.22 407.576 100.96L413.516 99.79V101.77L408.686 102.76C407.706 102.96 406.976 103.24 406.496 103.6C406.016 103.96 405.776 104.46 405.776 105.1C405.776 105.72 406.016 106.23 406.496 106.63C406.996 107.01 407.696 107.2 408.596 107.2C409.176 107.2 409.726 107.13 410.246 106.99C410.786 106.83 411.266 106.6 411.686 106.3C412.106 105.98 412.436 105.59 412.676 105.13C412.916 104.65 413.036 104.09 413.036 103.45V99.31ZM423.549 87.1V105.19C423.549 105.95 423.689 106.48 423.969 106.78C424.249 107.06 424.699 107.2 425.319 107.2C425.719 107.2 426.049 107.17 426.309 107.11C426.569 107.05 426.919 106.94 427.359 106.78L426.969 108.88C426.649 109.02 426.299 109.12 425.919 109.18C425.539 109.26 425.149 109.3 424.749 109.3C423.529 109.3 422.619 108.97 422.019 108.31C421.439 107.65 421.149 106.64 421.149 105.28V87.1H423.549Z" fill="white"/>
<path d="M129.46 34.4C132.14 34.4 134.46 34.9 136.42 35.9C138.42 36.86 139.98 38.24 141.1 40.04C142.22 41.84 142.78 43.98 142.78 46.46C142.78 48.94 142.22 51.08 141.1 52.88C139.98 54.68 138.42 56.08 136.42 57.08C134.46 58.04 132.14 58.52 129.46 58.52H120.28V74H115.48V34.4H129.46ZM128.74 54.02C131.86 54.02 134.14 53.38 135.58 52.1C137.02 50.78 137.74 48.9 137.74 46.46C137.74 43.98 137.02 42.1 135.58 40.82C134.14 39.54 131.86 38.9 128.74 38.9H120.28V54.02H128.74ZM152.101 74V34.4H179.881V38.9H156.901V51.68H174.781V56.18H156.901V69.5H180.781V74H152.101ZM205.363 34.4C209.403 34.4 212.643 35.44 215.083 37.52C217.523 39.6 218.743 42.42 218.743 45.98C218.743 49.54 217.503 52.32 215.023 54.32C212.583 56.28 209.343 57.26 205.303 57.26L204.883 57.56H195.163V74H190.363V34.4H205.363ZM205.303 53.06C208.143 53.06 210.243 52.48 211.603 51.32C213.003 50.12 213.703 48.34 213.703 45.98C213.703 43.62 213.003 41.86 211.603 40.7C210.243 39.5 208.143 38.9 205.303 38.9H195.163V53.06H205.303ZM208.063 54.02L221.143 74H215.443L204.043 56.66L208.063 54.02ZM242.985 33.8C246.465 33.8 249.465 34.52 251.985 35.96C254.505 37.36 256.605 39.44 258.285 42.2L254.265 45.32C252.785 42.76 251.105 40.96 249.225 39.92C247.385 38.84 245.145 38.3 242.505 38.3C240.385 38.3 238.625 38.6 237.225 39.2C235.865 39.8 234.865 40.6 234.225 41.6C233.585 42.56 233.265 43.66 233.265 44.9C233.265 46.3 233.705 47.54 234.585 48.62C235.465 49.66 237.225 50.48 239.865 51.08L248.445 53C252.245 53.84 254.885 55.12 256.365 56.84C257.885 58.52 258.645 60.62 258.645 63.14C258.645 65.38 258.005 67.38 256.725 69.14C255.485 70.86 253.725 72.2 251.445 73.16C249.165 74.12 246.485 74.6 243.405 74.6C240.525 74.6 237.985 74.22 235.785 73.46C233.625 72.66 231.765 71.6 230.205 70.28C228.645 68.96 227.365 67.48 226.365 65.84L230.565 62.42C231.325 63.94 232.305 65.28 233.505 66.44C234.705 67.6 236.145 68.5 237.825 69.14C239.545 69.78 241.505 70.1 243.705 70.1C245.745 70.1 247.505 69.86 248.985 69.38C250.505 68.86 251.665 68.12 252.465 67.16C253.265 66.16 253.665 64.96 253.665 63.56C253.665 62.28 253.245 61.14 252.405 60.14C251.565 59.1 249.985 58.32 247.665 57.8L238.365 55.7C235.925 55.14 233.945 54.38 232.425 53.42C230.945 52.42 229.865 51.26 229.185 49.94C228.545 48.58 228.225 47.12 228.225 45.56C228.225 43.44 228.805 41.5 229.965 39.74C231.165 37.94 232.865 36.5 235.065 35.42C237.305 34.34 239.945 33.8 242.985 33.8ZM273.503 34.4V74H268.703V34.4H273.503ZM299.177 33.8C302.657 33.8 305.657 34.52 308.177 35.96C310.697 37.36 312.797 39.44 314.477 42.2L310.457 45.32C308.977 42.76 307.297 40.96 305.417 39.92C303.577 38.84 301.337 38.3 298.697 38.3C296.577 38.3 294.817 38.6 293.417 39.2C292.057 39.8 291.057 40.6 290.417 41.6C289.777 42.56 289.457 43.66 289.457 44.9C289.457 46.3 289.897 47.54 290.777 48.62C291.657 49.66 293.417 50.48 296.057 51.08L304.637 53C308.437 53.84 311.077 55.12 312.557 56.84C314.077 58.52 314.837 60.62 314.837 63.14C314.837 65.38 314.197 67.38 312.917 69.14C311.677 70.86 309.917 72.2 307.637 73.16C305.357 74.12 302.677 74.6 299.597 74.6C296.717 74.6 294.177 74.22 291.977 73.46C289.817 72.66 287.957 71.6 286.397 70.28C284.837 68.96 283.557 67.48 282.557 65.84L286.757 62.42C287.517 63.94 288.497 65.28 289.697 66.44C290.897 67.6 292.337 68.5 294.017 69.14C295.737 69.78 297.697 70.1 299.897 70.1C301.937 70.1 303.697 69.86 305.177 69.38C306.697 68.86 307.857 68.12 308.657 67.16C309.457 66.16 309.857 64.96 309.857 63.56C309.857 62.28 309.437 61.14 308.597 60.14C307.757 59.1 306.177 58.32 303.857 57.8L294.557 55.7C292.117 55.14 290.137 54.38 288.617 53.42C287.137 52.42 286.057 51.26 285.377 49.94C284.737 48.58 284.417 47.12 284.417 45.56C284.417 43.44 284.997 41.5 286.157 39.74C287.357 37.94 289.057 36.5 291.257 35.42C293.497 34.34 296.137 33.8 299.177 33.8ZM350.918 34.4V38.9H337.118V74H332.318V38.9H318.518V34.4H350.918ZM359.289 74V34.4H387.069V38.9H364.089V51.68H381.969V56.18H364.089V69.5H387.969V74H359.289ZM428.63 34.4V74H422.69L406.13 47.48L401.93 40.04H401.87L402.11 46.04V74H397.55V34.4H403.49L419.99 60.8L424.25 68.42H424.31L424.07 62.36V34.4H428.63ZM473.533 63.86C472.693 66.1 471.493 68.04 469.933 69.68C468.373 71.28 466.533 72.5 464.413 73.34C462.333 74.18 460.053 74.6 457.573 74.6C453.813 74.6 450.553 73.78 447.793 72.14C445.073 70.46 442.953 68.1 441.433 65.06C439.953 62.02 439.213 58.4 439.213 54.2C439.213 50 439.953 46.38 441.433 43.34C442.953 40.3 445.073 37.96 447.793 36.32C450.553 34.64 453.773 33.8 457.453 33.8C460.013 33.8 462.293 34.16 464.293 34.88C466.293 35.56 467.993 36.6 469.393 38C470.833 39.36 471.973 41.04 472.813 43.04L468.073 45.26C467.193 42.98 465.913 41.26 464.233 40.1C462.593 38.9 460.453 38.3 457.813 38.3C455.133 38.3 452.773 38.94 450.733 40.22C448.693 41.46 447.093 43.26 445.933 45.62C444.813 47.98 444.253 50.84 444.253 54.2C444.253 57.52 444.793 60.38 445.873 62.78C446.953 65.14 448.493 66.96 450.493 68.24C452.493 69.48 454.853 70.1 457.573 70.1C460.213 70.1 462.513 69.44 464.473 68.12C466.433 66.76 467.853 64.74 468.733 62.06L473.533 63.86ZM482.746 74V34.4H510.526V38.9H487.546V51.68H505.426V56.18H487.546V69.5H511.426V74H482.746Z" fill="white"/>
<path fill-rule="evenodd" clip-rule="evenodd" d="M0 66.0031L46.526 40L60.4724 46.8787L58.0157 61.1276L26.0409 78.3622L26.2677 116.233L2.00315 129.121L0 66.0031Z" fill="#F07E3D"/>
<path fill-rule="evenodd" clip-rule="evenodd" d="M0.604724 51.9305L0 26.5321L45.2787 0.0375977L96.4535 26.6833L96.3402 78.0093L38.1354 109.417L37.9843 84.0187L71.5843 66.2549L72.2268 38.9667L48.378 25.9274L0.604724 51.9305Z" fill="#081F89"/>
<path fill-rule="evenodd" clip-rule="evenodd" d="M0.604724 51.9305L0 26.5321L45.2787 0.0375977L96.4535 26.6833L96.3402 78.0093L38.1354 109.417L37.9843 84.0187L71.5843 66.2549L72.2268 38.9667L48.378 25.9274L0.604724 51.9305Z" fill="white"/>
</svg>
