<svg width="390" height="130" viewBox="0 0 390 130" fill="none" xmlns="http://www.w3.org/2000/svg">
<path d="M117.82 65.8C118.713 65.8 119.487 65.9667 120.14 66.3C120.807 66.62 121.327 67.08 121.7 67.68C122.073 68.28 122.26 68.9933 122.26 69.82C122.26 70.6467 122.073 71.36 121.7 71.96C121.327 72.56 120.807 73.0267 120.14 73.36C119.487 73.68 118.713 73.84 117.82 73.84H114.76V79H113.16V65.8H117.82ZM117.58 72.34C118.62 72.34 119.38 72.1267 119.86 71.7C120.34 71.26 120.58 70.6333 120.58 69.82C120.58 68.9933 120.34 68.3667 119.86 67.94C119.38 67.5133 118.62 67.3 117.58 67.3H114.76V72.34H117.58ZM129.071 79.2C128.125 79.2 127.278 78.9933 126.531 78.58C125.798 78.1667 125.225 77.5733 124.811 76.8C124.398 76.0133 124.191 75.08 124.191 74C124.191 72.92 124.398 71.9933 124.811 71.22C125.225 70.4333 125.791 69.8333 126.511 69.42C127.231 69.0067 128.051 68.8 128.971 68.8C129.905 68.8 130.698 69 131.351 69.4C132.018 69.8 132.525 70.3467 132.871 71.04C133.218 71.72 133.391 72.4867 133.391 73.34C133.391 73.5667 133.385 73.7733 133.371 73.96C133.358 74.1467 133.338 74.3133 133.311 74.46H125.231V73.04H132.611L131.791 73.2C131.791 72.24 131.525 71.5 130.991 70.98C130.471 70.46 129.785 70.2 128.931 70.2C128.278 70.2 127.711 70.3533 127.231 70.66C126.765 70.9533 126.398 71.3867 126.131 71.96C125.878 72.52 125.751 73.2 125.751 74C125.751 74.7867 125.885 75.4667 126.151 76.04C126.418 76.6133 126.791 77.0533 127.271 77.36C127.765 77.6533 128.351 77.8 129.031 77.8C129.765 77.8 130.358 77.66 130.811 77.38C131.278 77.1 131.651 76.72 131.931 76.24L133.191 76.98C132.938 77.4333 132.611 77.8267 132.211 78.16C131.825 78.4933 131.365 78.7533 130.831 78.94C130.311 79.1133 129.725 79.2 129.071 79.2ZM136.434 79V69H137.734L137.954 70.64C138.234 70.0267 138.641 69.5667 139.174 69.26C139.721 68.9533 140.381 68.8 141.154 68.8C141.328 68.8 141.514 68.8133 141.714 68.84C141.928 68.8667 142.108 68.92 142.254 69L141.974 70.46C141.828 70.4067 141.668 70.3667 141.494 70.34C141.321 70.3133 141.074 70.3 140.754 70.3C140.341 70.3 139.921 70.42 139.494 70.66C139.081 70.9 138.734 71.2667 138.454 71.76C138.174 72.24 138.034 72.8533 138.034 73.6V79H136.434ZM147.769 79.2C146.795 79.2 145.895 78.9933 145.069 78.58C144.255 78.1667 143.629 77.58 143.189 76.82L144.549 75.84C144.842 76.4533 145.269 76.9333 145.829 77.28C146.402 77.6267 147.089 77.8 147.889 77.8C148.595 77.8 149.149 77.6667 149.549 77.4C149.949 77.12 150.149 76.76 150.149 76.32C150.149 76.04 150.055 75.7867 149.869 75.56C149.695 75.32 149.355 75.1467 148.849 75.04L146.449 74.54C145.475 74.34 144.775 74.0067 144.349 73.54C143.935 73.0733 143.729 72.4933 143.729 71.8C143.729 71.2533 143.882 70.7533 144.189 70.3C144.509 69.8467 144.955 69.4867 145.529 69.22C146.115 68.94 146.802 68.8 147.589 68.8C148.575 68.8 149.409 68.9933 150.089 69.38C150.769 69.7667 151.275 70.3133 151.609 71.02L150.269 71.9C150.042 71.3133 149.675 70.8867 149.169 70.62C148.662 70.34 148.135 70.2 147.589 70.2C147.109 70.2 146.695 70.2667 146.349 70.4C146.015 70.5333 145.755 70.72 145.569 70.96C145.395 71.1867 145.309 71.4467 145.309 71.74C145.309 72.0333 145.409 72.3067 145.609 72.56C145.809 72.8 146.182 72.9733 146.729 73.08L149.229 73.6C150.162 73.7867 150.815 74.0933 151.189 74.52C151.562 74.9467 151.749 75.4667 151.749 76.08C151.749 76.7067 151.582 77.26 151.249 77.74C150.915 78.2067 150.449 78.5667 149.849 78.82C149.249 79.0733 148.555 79.2 147.769 79.2ZM155.515 67.08C155.155 67.08 154.862 66.9733 154.635 66.76C154.422 66.5333 154.315 66.24 154.315 65.88C154.315 65.52 154.422 65.2333 154.635 65.02C154.862 64.7933 155.155 64.68 155.515 64.68C155.875 64.68 156.162 64.7933 156.375 65.02C156.602 65.2333 156.715 65.52 156.715 65.88C156.715 66.24 156.602 66.5333 156.375 66.76C156.162 66.9733 155.875 67.08 155.515 67.08ZM156.315 69V79H154.715V69H156.315ZM163.628 79.2C162.655 79.2 161.755 78.9933 160.928 78.58C160.115 78.1667 159.488 77.58 159.048 76.82L160.408 75.84C160.701 76.4533 161.128 76.9333 161.688 77.28C162.261 77.6267 162.948 77.8 163.748 77.8C164.455 77.8 165.008 77.6667 165.408 77.4C165.808 77.12 166.008 76.76 166.008 76.32C166.008 76.04 165.915 75.7867 165.728 75.56C165.555 75.32 165.215 75.1467 164.708 75.04L162.308 74.54C161.335 74.34 160.635 74.0067 160.208 73.54C159.795 73.0733 159.588 72.4933 159.588 71.8C159.588 71.2533 159.741 70.7533 160.048 70.3C160.368 69.8467 160.815 69.4867 161.388 69.22C161.975 68.94 162.661 68.8 163.448 68.8C164.435 68.8 165.268 68.9933 165.948 69.38C166.628 69.7667 167.135 70.3133 167.468 71.02L166.128 71.9C165.901 71.3133 165.535 70.8867 165.028 70.62C164.521 70.34 163.995 70.2 163.448 70.2C162.968 70.2 162.555 70.2667 162.208 70.4C161.875 70.5333 161.615 70.72 161.428 70.96C161.255 71.1867 161.168 71.4467 161.168 71.74C161.168 72.0333 161.268 72.3067 161.468 72.56C161.668 72.8 162.041 72.9733 162.588 73.08L165.088 73.6C166.021 73.7867 166.675 74.0933 167.048 74.52C167.421 74.9467 167.608 75.4667 167.608 76.08C167.608 76.7067 167.441 77.26 167.108 77.74C166.775 78.2067 166.308 78.5667 165.708 78.82C165.108 79.0733 164.415 79.2 163.628 79.2ZM172.935 66.16V76.24C172.935 76.7333 173.075 77.1 173.355 77.34C173.635 77.58 173.995 77.7 174.435 77.7C174.822 77.7 175.155 77.6333 175.435 77.5C175.715 77.3667 175.968 77.1867 176.195 76.96L176.755 78.3C176.448 78.58 176.082 78.8 175.655 78.96C175.242 79.12 174.762 79.2 174.215 79.2C173.708 79.2 173.235 79.1133 172.795 78.94C172.355 78.7533 172.002 78.4667 171.735 78.08C171.482 77.68 171.348 77.16 171.335 76.52V66.6L172.935 66.16ZM176.575 69V70.38H169.335V69H176.575ZM179.754 67.08C179.394 67.08 179.1 66.9733 178.874 66.76C178.66 66.5333 178.554 66.24 178.554 65.88C178.554 65.52 178.66 65.2333 178.874 65.02C179.1 64.7933 179.394 64.68 179.754 64.68C180.114 64.68 180.4 64.7933 180.614 65.02C180.84 65.2333 180.954 65.52 180.954 65.88C180.954 66.24 180.84 66.5333 180.614 66.76C180.4 66.9733 180.114 67.08 179.754 67.08ZM180.554 69V79H178.954V69H180.554ZM184.266 79V69H185.666L185.806 71.24L185.546 71.02C185.76 70.4867 186.046 70.06 186.406 69.74C186.766 69.4067 187.18 69.1667 187.646 69.02C188.126 68.8733 188.62 68.8 189.126 68.8C189.846 68.8 190.5 68.94 191.086 69.22C191.673 69.4867 192.14 69.9 192.486 70.46C192.846 71.02 193.026 71.7333 193.026 72.6V79H191.426V73.16C191.426 72.0533 191.186 71.2867 190.706 70.86C190.24 70.42 189.66 70.2 188.966 70.2C188.486 70.2 188.006 70.3133 187.526 70.54C187.046 70.7667 186.646 71.1333 186.326 71.64C186.02 72.1467 185.866 72.8267 185.866 73.68V79H184.266ZM205.069 67.16L205.429 68.58C205.416 68.58 205.396 68.58 205.369 68.58C205.342 68.58 205.316 68.58 205.289 68.58C204.636 68.58 204.129 68.7133 203.769 68.98C203.422 69.2333 203.249 69.6467 203.249 70.22L202.269 69.72C202.269 69.2 202.389 68.7467 202.629 68.36C202.869 67.9733 203.196 67.68 203.609 67.48C204.022 67.2667 204.476 67.16 204.969 67.16C204.982 67.16 204.996 67.16 205.009 67.16C205.036 67.16 205.056 67.16 205.069 67.16ZM202.029 77.72C202.976 77.72 203.716 77.94 204.249 78.38C204.782 78.8067 205.049 79.38 205.049 80.1C205.049 80.7533 204.829 81.32 204.389 81.8C203.962 82.28 203.382 82.6467 202.649 82.9C201.929 83.1667 201.116 83.3 200.209 83.3C198.636 83.3 197.456 83.0333 196.669 82.5C195.896 81.9667 195.509 81.3267 195.509 80.58C195.509 80.0467 195.682 79.5667 196.029 79.14C196.389 78.7267 196.989 78.4933 197.829 78.44L197.689 78.74C197.236 78.62 196.849 78.42 196.529 78.14C196.222 77.8467 196.069 77.4267 196.069 76.88C196.069 76.3333 196.269 75.8667 196.669 75.48C197.082 75.08 197.689 74.8333 198.489 74.74L199.549 75.28H199.349C198.696 75.3467 198.229 75.5133 197.949 75.78C197.682 76.0333 197.549 76.3133 197.549 76.62C197.549 76.9933 197.682 77.2733 197.949 77.46C198.229 77.6333 198.616 77.72 199.109 77.72H202.029ZM200.189 81.96C200.962 81.96 201.596 81.88 202.089 81.72C202.596 81.56 202.969 81.3533 203.209 81.1C203.449 80.8467 203.569 80.5733 203.569 80.28C203.569 79.92 203.422 79.6333 203.129 79.42C202.849 79.2067 202.336 79.1 201.589 79.1H198.509C198.082 79.1 197.722 79.2067 197.429 79.42C197.136 79.6467 196.989 79.9533 196.989 80.34C196.989 80.8333 197.269 81.2267 197.829 81.52C198.402 81.8133 199.189 81.96 200.189 81.96ZM200.049 68.8C200.849 68.8 201.556 68.9467 202.169 69.24C202.796 69.52 203.282 69.9133 203.629 70.42C203.976 70.9267 204.149 71.5133 204.149 72.18C204.149 72.8333 203.976 73.42 203.629 73.94C203.282 74.4467 202.796 74.8467 202.169 75.14C201.556 75.42 200.849 75.56 200.049 75.56C198.729 75.56 197.716 75.2467 197.009 74.62C196.302 73.98 195.949 73.1667 195.949 72.18C195.949 71.5133 196.122 70.9267 196.469 70.42C196.829 69.9133 197.316 69.52 197.929 69.24C198.542 68.9467 199.249 68.8 200.049 68.8ZM200.049 70.1C199.356 70.1 198.776 70.2933 198.309 70.68C197.842 71.0533 197.609 71.5533 197.609 72.18C197.609 72.7933 197.842 73.2933 198.309 73.68C198.776 74.0667 199.356 74.26 200.049 74.26C200.742 74.26 201.322 74.0667 201.789 73.68C202.256 73.2933 202.489 72.7933 202.489 72.18C202.489 71.5533 202.256 71.0533 201.789 70.68C201.322 70.2933 200.742 70.1 200.049 70.1ZM217.799 64.3C218.146 64.3 218.472 64.34 218.779 64.42C219.086 64.5 219.326 64.6133 219.499 64.76L219.079 66.06C218.919 65.9533 218.746 65.88 218.559 65.84C218.372 65.7867 218.166 65.76 217.939 65.76C217.366 65.76 216.919 65.9 216.599 66.18C216.279 66.4467 216.119 66.88 216.119 67.48V69V69.52V79H214.519V67.32C214.519 66.88 214.586 66.4733 214.719 66.1C214.852 65.7267 215.052 65.4067 215.319 65.14C215.599 64.8733 215.946 64.6667 216.359 64.52C216.772 64.3733 217.252 64.3 217.799 64.3ZM219.459 69V70.38H212.519V69H219.459ZM225.457 68.8C226.404 68.8 227.237 69.0067 227.957 69.42C228.69 69.8333 229.264 70.4333 229.677 71.22C230.09 71.9933 230.297 72.92 230.297 74C230.297 75.08 230.09 76.0133 229.677 76.8C229.264 77.5733 228.69 78.1667 227.957 78.58C227.237 78.9933 226.404 79.2 225.457 79.2C224.524 79.2 223.69 78.9933 222.957 78.58C222.224 78.1667 221.65 77.5733 221.237 76.8C220.824 76.0133 220.617 75.08 220.617 74C220.617 72.92 220.824 71.9933 221.237 71.22C221.65 70.4333 222.224 69.8333 222.957 69.42C223.69 69.0067 224.524 68.8 225.457 68.8ZM225.457 70.18C224.777 70.18 224.197 70.3333 223.717 70.64C223.237 70.9467 222.864 71.3867 222.597 71.96C222.344 72.52 222.217 73.2 222.217 74C222.217 74.7867 222.344 75.4667 222.597 76.04C222.864 76.6133 223.237 77.0533 223.717 77.36C224.197 77.6667 224.777 77.82 225.457 77.82C226.137 77.82 226.717 77.6667 227.197 77.36C227.677 77.0533 228.044 76.6133 228.297 76.04C228.564 75.4667 228.697 74.7867 228.697 74C228.697 73.2 228.564 72.52 228.297 71.96C228.044 71.3867 227.677 70.9467 227.197 70.64C226.717 70.3333 226.137 70.18 225.457 70.18ZM233.309 79V69H234.609L234.829 70.64C235.109 70.0267 235.516 69.5667 236.049 69.26C236.596 68.9533 237.256 68.8 238.029 68.8C238.203 68.8 238.389 68.8133 238.589 68.84C238.803 68.8667 238.983 68.92 239.129 69L238.849 70.46C238.703 70.4067 238.543 70.3667 238.369 70.34C238.196 70.3133 237.949 70.3 237.629 70.3C237.216 70.3 236.796 70.42 236.369 70.66C235.956 70.9 235.609 71.2667 235.329 71.76C235.049 72.24 234.909 72.8533 234.909 73.6V79H233.309ZM251.421 79.2C250.448 79.2 249.548 78.9933 248.721 78.58C247.908 78.1667 247.281 77.58 246.841 76.82L248.201 75.84C248.494 76.4533 248.921 76.9333 249.481 77.28C250.054 77.6267 250.741 77.8 251.541 77.8C252.248 77.8 252.801 77.6667 253.201 77.4C253.601 77.12 253.801 76.76 253.801 76.32C253.801 76.04 253.708 75.7867 253.521 75.56C253.348 75.32 253.008 75.1467 252.501 75.04L250.101 74.54C249.128 74.34 248.428 74.0067 248.001 73.54C247.588 73.0733 247.381 72.4933 247.381 71.8C247.381 71.2533 247.534 70.7533 247.841 70.3C248.161 69.8467 248.608 69.4867 249.181 69.22C249.768 68.94 250.454 68.8 251.241 68.8C252.228 68.8 253.061 68.9933 253.741 69.38C254.421 69.7667 254.928 70.3133 255.261 71.02L253.921 71.9C253.694 71.3133 253.328 70.8867 252.821 70.62C252.314 70.34 251.788 70.2 251.241 70.2C250.761 70.2 250.348 70.2667 250.001 70.4C249.668 70.5333 249.408 70.72 249.221 70.96C249.048 71.1867 248.961 71.4467 248.961 71.74C248.961 72.0333 249.061 72.3067 249.261 72.56C249.461 72.8 249.834 72.9733 250.381 73.08L252.881 73.6C253.814 73.7867 254.468 74.0933 254.841 74.52C255.214 74.9467 255.401 75.4667 255.401 76.08C255.401 76.7067 255.234 77.26 254.901 77.74C254.568 78.2067 254.101 78.5667 253.501 78.82C252.901 79.0733 252.208 79.2 251.421 79.2ZM261.988 79.2C261.348 79.2 260.741 79.08 260.168 78.84C259.608 78.6 259.148 78.2133 258.788 77.68C258.441 77.1333 258.268 76.4267 258.268 75.56V69H259.868V75.14C259.868 76.1533 260.088 76.8533 260.528 77.24C260.968 77.6133 261.588 77.8 262.388 77.8C262.761 77.8 263.128 77.74 263.488 77.62C263.848 77.4867 264.168 77.2867 264.448 77.02C264.741 76.74 264.968 76.3867 265.128 75.96C265.301 75.5333 265.388 75.0267 265.388 74.44V69H266.988V79H265.588L265.488 77.48C265.141 78.08 264.668 78.52 264.068 78.8C263.481 79.0667 262.788 79.2 261.988 79.2ZM274.852 68.8C275.545 68.8 276.152 68.9067 276.672 69.12C277.205 69.3333 277.665 69.64 278.052 70.04C278.438 70.44 278.752 70.9133 278.992 71.46L277.472 72.18C277.258 71.54 276.932 71.0533 276.492 70.72C276.065 70.3733 275.505 70.2 274.812 70.2C274.145 70.2 273.572 70.3533 273.092 70.66C272.612 70.9533 272.245 71.3867 271.992 71.96C271.738 72.52 271.612 73.2 271.612 74C271.612 74.7867 271.738 75.4667 271.992 76.04C272.245 76.6133 272.612 77.0533 273.092 77.36C273.572 77.6533 274.145 77.8 274.812 77.8C275.332 77.8 275.778 77.72 276.152 77.56C276.538 77.4 276.852 77.1667 277.092 76.86C277.345 76.5533 277.518 76.18 277.612 75.74L279.092 76.26C278.865 76.8733 278.552 77.4 278.152 77.84C277.765 78.28 277.292 78.62 276.732 78.86C276.185 79.0867 275.558 79.2 274.852 79.2C273.918 79.2 273.085 78.9933 272.352 78.58C271.618 78.1667 271.045 77.5733 270.632 76.8C270.218 76.0133 270.012 75.08 270.012 74C270.012 72.92 270.218 71.9933 270.632 71.22C271.045 70.4333 271.618 69.8333 272.352 69.42C273.085 69.0067 273.918 68.8 274.852 68.8ZM286.043 68.8C286.736 68.8 287.343 68.9067 287.863 69.12C288.396 69.3333 288.856 69.64 289.243 70.04C289.63 70.44 289.943 70.9133 290.183 71.46L288.663 72.18C288.45 71.54 288.123 71.0533 287.683 70.72C287.256 70.3733 286.696 70.2 286.003 70.2C285.336 70.2 284.763 70.3533 284.283 70.66C283.803 70.9533 283.436 71.3867 283.183 71.96C282.93 72.52 282.803 73.2 282.803 74C282.803 74.7867 282.93 75.4667 283.183 76.04C283.436 76.6133 283.803 77.0533 284.283 77.36C284.763 77.6533 285.336 77.8 286.003 77.8C286.523 77.8 286.97 77.72 287.343 77.56C287.73 77.4 288.043 77.1667 288.283 76.86C288.536 76.5533 288.71 76.18 288.803 75.74L290.283 76.26C290.056 76.8733 289.743 77.4 289.343 77.84C288.956 78.28 288.483 78.62 287.923 78.86C287.376 79.0867 286.75 79.2 286.043 79.2C285.11 79.2 284.276 78.9933 283.543 78.58C282.81 78.1667 282.236 77.5733 281.823 76.8C281.41 76.0133 281.203 75.08 281.203 74C281.203 72.92 281.41 71.9933 281.823 71.22C282.236 70.4333 282.81 69.8333 283.543 69.42C284.276 69.0067 285.11 68.8 286.043 68.8ZM297.274 79.2C296.328 79.2 295.481 78.9933 294.734 78.58C294.001 78.1667 293.428 77.5733 293.014 76.8C292.601 76.0133 292.394 75.08 292.394 74C292.394 72.92 292.601 71.9933 293.014 71.22C293.428 70.4333 293.994 69.8333 294.714 69.42C295.434 69.0067 296.254 68.8 297.174 68.8C298.108 68.8 298.901 69 299.554 69.4C300.221 69.8 300.728 70.3467 301.074 71.04C301.421 71.72 301.594 72.4867 301.594 73.34C301.594 73.5667 301.588 73.7733 301.574 73.96C301.561 74.1467 301.541 74.3133 301.514 74.46H293.434V73.04H300.814L299.994 73.2C299.994 72.24 299.728 71.5 299.194 70.98C298.674 70.46 297.988 70.2 297.134 70.2C296.481 70.2 295.914 70.3533 295.434 70.66C294.968 70.9533 294.601 71.3867 294.334 71.96C294.081 72.52 293.954 73.2 293.954 74C293.954 74.7867 294.088 75.4667 294.354 76.04C294.621 76.6133 294.994 77.0533 295.474 77.36C295.968 77.6533 296.554 77.8 297.234 77.8C297.968 77.8 298.561 77.66 299.014 77.38C299.481 77.1 299.854 76.72 300.134 76.24L301.394 76.98C301.141 77.4333 300.814 77.8267 300.414 78.16C300.028 78.4933 299.568 78.7533 299.034 78.94C298.514 79.1133 297.928 79.2 297.274 79.2ZM308.237 79.2C307.264 79.2 306.364 78.9933 305.537 78.58C304.724 78.1667 304.097 77.58 303.657 76.82L305.017 75.84C305.311 76.4533 305.737 76.9333 306.297 77.28C306.871 77.6267 307.557 77.8 308.357 77.8C309.064 77.8 309.617 77.6667 310.017 77.4C310.417 77.12 310.617 76.76 310.617 76.32C310.617 76.04 310.524 75.7867 310.337 75.56C310.164 75.32 309.824 75.1467 309.317 75.04L306.917 74.54C305.944 74.34 305.244 74.0067 304.817 73.54C304.404 73.0733 304.197 72.4933 304.197 71.8C304.197 71.2533 304.351 70.7533 304.657 70.3C304.977 69.8467 305.424 69.4867 305.997 69.22C306.584 68.94 307.271 68.8 308.057 68.8C309.044 68.8 309.877 68.9933 310.557 69.38C311.237 69.7667 311.744 70.3133 312.077 71.02L310.737 71.9C310.511 71.3133 310.144 70.8867 309.637 70.62C309.131 70.34 308.604 70.2 308.057 70.2C307.577 70.2 307.164 70.2667 306.817 70.4C306.484 70.5333 306.224 70.72 306.037 70.96C305.864 71.1867 305.777 71.4467 305.777 71.74C305.777 72.0333 305.877 72.3067 306.077 72.56C306.277 72.8 306.651 72.9733 307.197 73.08L309.697 73.6C310.631 73.7867 311.284 74.0933 311.657 74.52C312.031 74.9467 312.217 75.4667 312.217 76.08C312.217 76.7067 312.051 77.26 311.717 77.74C311.384 78.2067 310.917 78.5667 310.317 78.82C309.717 79.0733 309.024 79.2 308.237 79.2ZM318.784 79.2C317.811 79.2 316.911 78.9933 316.084 78.58C315.271 78.1667 314.644 77.58 314.204 76.82L315.564 75.84C315.858 76.4533 316.284 76.9333 316.844 77.28C317.418 77.6267 318.104 77.8 318.904 77.8C319.611 77.8 320.164 77.6667 320.564 77.4C320.964 77.12 321.164 76.76 321.164 76.32C321.164 76.04 321.071 75.7867 320.884 75.56C320.711 75.32 320.371 75.1467 319.864 75.04L317.464 74.54C316.491 74.34 315.791 74.0067 315.364 73.54C314.951 73.0733 314.744 72.4933 314.744 71.8C314.744 71.2533 314.898 70.7533 315.204 70.3C315.524 69.8467 315.971 69.4867 316.544 69.22C317.131 68.94 317.818 68.8 318.604 68.8C319.591 68.8 320.424 68.9933 321.104 69.38C321.784 69.7667 322.291 70.3133 322.624 71.02L321.284 71.9C321.058 71.3133 320.691 70.8867 320.184 70.62C319.678 70.34 319.151 70.2 318.604 70.2C318.124 70.2 317.711 70.2667 317.364 70.4C317.031 70.5333 316.771 70.72 316.584 70.96C316.411 71.1867 316.324 71.4467 316.324 71.74C316.324 72.0333 316.424 72.3067 316.624 72.56C316.824 72.8 317.198 72.9733 317.744 73.08L320.244 73.6C321.178 73.7867 321.831 74.0933 322.204 74.52C322.578 74.9467 322.764 75.4667 322.764 76.08C322.764 76.7067 322.598 77.26 322.264 77.74C321.931 78.2067 321.464 78.5667 320.864 78.82C320.264 79.0733 319.571 79.2 318.784 79.2Z" fill="white"/>
<path d="M122.64 28.6C124.427 28.6 125.973 28.9333 127.28 29.6C128.613 30.24 129.653 31.16 130.4 32.36C131.147 33.56 131.52 34.9867 131.52 36.64C131.52 38.2933 131.147 39.72 130.4 40.92C129.653 42.12 128.613 43.0533 127.28 43.72C125.973 44.36 124.427 44.68 122.64 44.68H116.52V55H113.32V28.6H122.64ZM122.16 41.68C124.24 41.68 125.76 41.2533 126.72 40.4C127.68 39.52 128.16 38.2667 128.16 36.64C128.16 34.9867 127.68 33.7333 126.72 32.88C125.76 32.0267 124.24 31.6 122.16 31.6H116.52V41.68H122.16ZM137.734 55V28.6H156.254V31.6H140.934V40.12H152.854V43.12H140.934V52H156.854V55H137.734ZM173.242 28.6C175.935 28.6 178.095 29.2933 179.722 30.68C181.349 32.0667 182.162 33.9467 182.162 36.32C182.162 38.6933 181.335 40.5467 179.682 41.88C178.055 43.1867 175.895 43.84 173.202 43.84L172.922 44.04H166.442V55H163.242V28.6H173.242ZM173.202 41.04C175.095 41.04 176.495 40.6533 177.402 39.88C178.335 39.08 178.802 37.8933 178.802 36.32C178.802 34.7467 178.335 33.5733 177.402 32.8C176.495 32 175.095 31.6 173.202 31.6H166.442V41.04H173.202ZM175.042 41.68L183.762 55H179.962L172.362 43.44L175.042 41.68ZM198.323 28.2C200.643 28.2 202.643 28.68 204.323 29.64C206.003 30.5733 207.403 31.96 208.523 33.8L205.843 35.88C204.857 34.1733 203.737 32.9733 202.483 32.28C201.257 31.56 199.763 31.2 198.003 31.2C196.59 31.2 195.417 31.4 194.483 31.8C193.577 32.2 192.91 32.7333 192.483 33.4C192.057 34.04 191.843 34.7733 191.843 35.6C191.843 36.5333 192.137 37.36 192.723 38.08C193.31 38.7733 194.483 39.32 196.243 39.72L201.963 41C204.497 41.56 206.257 42.4133 207.243 43.56C208.257 44.68 208.763 46.08 208.763 47.76C208.763 49.2533 208.337 50.5867 207.483 51.76C206.657 52.9067 205.483 53.8 203.963 54.44C202.443 55.08 200.657 55.4 198.603 55.4C196.683 55.4 194.99 55.1467 193.523 54.64C192.083 54.1067 190.843 53.4 189.803 52.52C188.763 51.64 187.91 50.6533 187.243 49.56L190.043 47.28C190.55 48.2933 191.203 49.1867 192.003 49.96C192.803 50.7333 193.763 51.3333 194.883 51.76C196.03 52.1867 197.337 52.4 198.803 52.4C200.163 52.4 201.337 52.24 202.323 51.92C203.337 51.5733 204.11 51.08 204.643 50.44C205.177 49.7733 205.443 48.9733 205.443 48.04C205.443 47.1867 205.163 46.4267 204.603 45.76C204.043 45.0667 202.99 44.5467 201.443 44.2L195.243 42.8C193.617 42.4267 192.297 41.92 191.283 41.28C190.297 40.6133 189.577 39.84 189.123 38.96C188.697 38.0533 188.483 37.08 188.483 36.04C188.483 34.6267 188.87 33.3333 189.643 32.16C190.443 30.96 191.577 30 193.043 29.28C194.537 28.56 196.297 28.2 198.323 28.2ZM218.668 28.6V55H215.468V28.6H218.668ZM235.784 28.2C238.104 28.2 240.104 28.68 241.784 29.64C243.464 30.5733 244.864 31.96 245.984 33.8L243.304 35.88C242.318 34.1733 241.198 32.9733 239.944 32.28C238.718 31.56 237.224 31.2 235.464 31.2C234.051 31.2 232.878 31.4 231.944 31.8C231.038 32.2 230.371 32.7333 229.944 33.4C229.518 34.04 229.304 34.7733 229.304 35.6C229.304 36.5333 229.598 37.36 230.184 38.08C230.771 38.7733 231.944 39.32 233.704 39.72L239.424 41C241.958 41.56 243.718 42.4133 244.704 43.56C245.718 44.68 246.224 46.08 246.224 47.76C246.224 49.2533 245.798 50.5867 244.944 51.76C244.118 52.9067 242.944 53.8 241.424 54.44C239.904 55.08 238.118 55.4 236.064 55.4C234.144 55.4 232.451 55.1467 230.984 54.64C229.544 54.1067 228.304 53.4 227.264 52.52C226.224 51.64 225.371 50.6533 224.704 49.56L227.504 47.28C228.011 48.2933 228.664 49.1867 229.464 49.96C230.264 50.7333 231.224 51.3333 232.344 51.76C233.491 52.1867 234.798 52.4 236.264 52.4C237.624 52.4 238.798 52.24 239.784 51.92C240.798 51.5733 241.571 51.08 242.104 50.44C242.638 49.7733 242.904 48.9733 242.904 48.04C242.904 47.1867 242.624 46.4267 242.064 45.76C241.504 45.0667 240.451 44.5467 238.904 44.2L232.704 42.8C231.078 42.4267 229.758 41.92 228.744 41.28C227.758 40.6133 227.038 39.84 226.584 38.96C226.158 38.0533 225.944 37.08 225.944 36.04C225.944 34.6267 226.331 33.3333 227.104 32.16C227.904 30.96 229.038 30 230.504 29.28C231.998 28.56 233.758 28.2 235.784 28.2ZM270.278 28.6V31.6H261.078V55H257.878V31.6H248.678V28.6H270.278ZM275.859 55V28.6H294.379V31.6H279.059V40.12H290.979V43.12H279.059V52H294.979V55H275.859ZM322.087 28.6V55H318.127L307.087 37.32L304.287 32.36H304.247L304.407 36.36V55H301.367V28.6H305.327L316.327 46.2L319.167 51.28H319.207L319.047 47.24V28.6H322.087ZM352.022 48.24C351.462 49.7333 350.662 51.0267 349.622 52.12C348.582 53.1867 347.355 54 345.942 54.56C344.555 55.12 343.035 55.4 341.382 55.4C338.875 55.4 336.702 54.8533 334.862 53.76C333.049 52.64 331.635 51.0667 330.622 49.04C329.635 47.0133 329.142 44.6 329.142 41.8C329.142 39 329.635 36.5867 330.622 34.56C331.635 32.5333 333.049 30.9733 334.862 29.88C336.702 28.76 338.849 28.2 341.302 28.2C343.009 28.2 344.529 28.44 345.862 28.92C347.195 29.3733 348.329 30.0667 349.262 31C350.222 31.9067 350.982 33.0267 351.542 34.36L348.382 35.84C347.795 34.32 346.942 33.1733 345.822 32.4C344.729 31.6 343.302 31.2 341.542 31.2C339.755 31.2 338.182 31.6267 336.822 32.48C335.462 33.3067 334.395 34.5067 333.622 36.08C332.875 37.6533 332.502 39.56 332.502 41.8C332.502 44.0133 332.862 45.92 333.582 47.52C334.302 49.0933 335.329 50.3067 336.662 51.16C337.995 51.9867 339.569 52.4 341.382 52.4C343.142 52.4 344.675 51.96 345.982 51.08C347.289 50.1733 348.235 48.8267 348.822 47.04L352.022 48.24ZM358.164 55V28.6H376.684V31.6H361.364V40.12H373.284V43.12H361.364V52H377.284V55H358.164Z" fill="white"/>
<path fill-rule="evenodd" clip-rule="evenodd" d="M0 66.0031L46.526 40L60.4724 46.8787L58.0157 61.1276L26.0409 78.3622L26.2677 116.233L2.00315 129.121L0 66.0031Z" fill="#F07E3D"/>
<path fill-rule="evenodd" clip-rule="evenodd" d="M0.604724 51.9305L0 26.5321L45.2787 0.0375977L96.4535 26.6833L96.3402 78.0093L38.1354 109.417L37.9843 84.0187L71.5843 66.2549L72.2268 38.9667L48.378 25.9274L0.604724 51.9305Z" fill="#081F89"/>
<path fill-rule="evenodd" clip-rule="evenodd" d="M0.604724 51.9305L0 26.5321L45.2787 0.0375977L96.4535 26.6833L96.3402 78.0093L38.1354 109.417L37.9843 84.0187L71.5843 66.2549L72.2268 38.9667L48.378 25.9274L0.604724 51.9305Z" fill="white"/>
</svg>
