<svg width="110" height="110" viewBox="0 0 110 110" fill="none" xmlns="http://www.w3.org/2000/svg">
<mask id="path-1-inside-1_149_15822" fill="white">
<path d="M110 55C110 85.3757 85.3757 110 55 110C24.6243 110 0 85.3757 0 55C0 24.6243 24.6243 0 55 0C85.3757 0 110 24.6243 110 55ZM48.0515 55C48.0515 58.8376 51.1624 61.9485 55 61.9485C58.8376 61.9485 61.9485 58.8376 61.9485 55C61.9485 51.1624 58.8376 48.0515 55 48.0515C51.1624 48.0515 48.0515 51.1624 48.0515 55Z"/>
</mask>
<path d="M110 55C110 85.3757 85.3757 110 55 110C24.6243 110 0 85.3757 0 55C0 24.6243 24.6243 0 55 0C85.3757 0 110 24.6243 110 55ZM48.0515 55C48.0515 58.8376 51.1624 61.9485 55 61.9485C58.8376 61.9485 61.9485 58.8376 61.9485 55C61.9485 51.1624 58.8376 48.0515 55 48.0515C51.1624 48.0515 48.0515 51.1624 48.0515 55Z" stroke="url(#paint0_linear_149_15822)" stroke-opacity="0.15" stroke-width="34" stroke-dasharray="3 3" mask="url(#path-1-inside-1_149_15822)"/>
<defs>
<linearGradient id="paint0_linear_149_15822" x1="7" y1="1.65972e-06" x2="78" y2="81" gradientUnits="userSpaceOnUse">
<stop stop-color="white"/>
<stop offset="1" stop-color="white" stop-opacity="0"/>
</linearGradient>
</defs>
</svg>
