<svg width="50" height="50" viewBox="0 0 50 50" fill="none" xmlns="http://www.w3.org/2000/svg">
<path d="M17.3706 25H9.74121V18.8965C9.74121 15.53 12.4782 12.793 15.8447 12.793H16.6076C17.876 12.793 18.8965 11.7726 18.8965 10.5041V5.92656C18.8965 4.6582 17.8761 3.6377 16.6076 3.6377H15.8447C7.41426 3.6377 0.585938 10.466 0.585938 18.8965V41.7847C0.585938 44.3119 2.63633 46.3623 5.16357 46.3623H17.3706C19.8979 46.3623 21.9482 44.3119 21.9482 41.7847V29.5776C21.9482 27.0504 19.8979 25 17.3706 25Z" fill="#1681AB"/>
<path d="M44.8354 25H37.2061V18.8965C37.2061 15.53 39.9431 12.793 43.3096 12.793H44.0725C45.3408 12.793 46.3613 11.7726 46.3613 10.5041V5.92656C46.3613 4.6582 45.3409 3.6377 44.0725 3.6377H43.3096C34.8791 3.6377 28.0508 10.466 28.0508 18.8965V41.7847C28.0508 44.3119 30.1012 46.3623 32.6284 46.3623H44.8354C47.3627 46.3623 49.4131 44.3119 49.4131 41.7847V29.5776C49.4131 27.0504 47.3627 25 44.8354 25Z" fill="#1681AB"/>
</svg>
