<svg width="783" height="296" viewBox="0 0 783 296" fill="none" xmlns="http://www.w3.org/2000/svg">
<path d="M184 54C184 48.4772 188.477 44 194 44H714.528C717.964 44 721.16 45.7644 722.99 48.6726L779.646 138.673C781.696 141.928 781.696 146.072 779.646 149.327L722.99 239.327C721.16 242.236 717.964 244 714.528 244H194C188.477 244 184 239.523 184 234V54Z" fill="url(#paint0_linear_149_16699)"/>
<path d="M184 104C184 98.4772 188.477 94 194 94H659.133C662.214 94 665.124 95.4209 667.019 97.8513L698.206 137.851C701.024 141.466 701.024 146.534 698.206 150.149L667.019 190.149C665.124 192.579 662.214 194 659.133 194H194C188.477 194 184 189.523 184 184V104Z" fill="white"/>
<path d="M327.594 135.52V138.628H321.406V154H317.542V138.628H311.326V135.52H327.594ZM328.528 154V140H331.86L332.112 142.744C332.485 141.773 333.026 141.027 333.736 140.504C334.464 139.981 335.369 139.72 336.452 139.72C336.769 139.72 337.058 139.748 337.32 139.804C337.581 139.86 337.796 139.935 337.964 140.028L337.516 143.248C337.329 143.173 337.096 143.117 336.816 143.08C336.554 143.043 336.209 143.024 335.78 143.024C335.22 143.024 334.678 143.164 334.156 143.444C333.633 143.705 333.204 144.116 332.868 144.676C332.532 145.217 332.364 145.908 332.364 146.748V154H328.528ZM348.074 145.068C348.074 144.265 347.841 143.64 347.374 143.192C346.926 142.744 346.329 142.52 345.582 142.52C344.891 142.52 344.285 142.697 343.762 143.052C343.239 143.407 342.857 143.995 342.614 144.816L339.338 143.808C339.655 142.576 340.346 141.587 341.41 140.84C342.493 140.093 343.939 139.72 345.75 139.72C346.982 139.72 348.055 139.916 348.97 140.308C349.885 140.681 350.594 141.251 351.098 142.016C351.621 142.781 351.882 143.743 351.882 144.9V150.584C351.882 151.293 352.218 151.648 352.89 151.648C353.207 151.648 353.506 151.601 353.786 151.508L353.562 153.888C353.077 154.131 352.47 154.252 351.742 154.252C351.089 154.252 350.501 154.14 349.978 153.916C349.455 153.692 349.045 153.356 348.746 152.908C348.447 152.441 348.298 151.863 348.298 151.172V151.06L348.97 150.948C348.858 151.657 348.55 152.264 348.046 152.768C347.542 153.253 346.926 153.627 346.198 153.888C345.489 154.149 344.751 154.28 343.986 154.28C343.034 154.28 342.213 154.14 341.522 153.86C340.831 153.561 340.299 153.132 339.926 152.572C339.553 152.012 339.366 151.321 339.366 150.5C339.366 149.455 339.702 148.605 340.374 147.952C341.046 147.28 342.007 146.823 343.258 146.58L348.522 145.516L348.494 147.896L345.134 148.568C344.499 148.699 344.014 148.876 343.678 149.1C343.361 149.305 343.202 149.651 343.202 150.136C343.202 150.603 343.37 150.957 343.706 151.2C344.061 151.443 344.481 151.564 344.966 151.564C345.358 151.564 345.741 151.517 346.114 151.424C346.487 151.331 346.823 151.181 347.122 150.976C347.421 150.771 347.654 150.491 347.822 150.136C347.99 149.781 348.074 149.352 348.074 148.848V145.068ZM356.172 154V140H359.616L359.84 144.2L359.364 143.752C359.588 142.837 359.943 142.081 360.428 141.484C360.914 140.887 361.502 140.448 362.192 140.168C362.902 139.869 363.676 139.72 364.516 139.72C365.487 139.72 366.346 139.907 367.092 140.28C367.858 140.653 368.455 141.223 368.884 141.988C369.332 142.735 369.556 143.677 369.556 144.816V154H365.72V145.908C365.72 144.713 365.487 143.892 365.02 143.444C364.554 142.977 363.947 142.744 363.2 142.744C362.678 142.744 362.164 142.875 361.66 143.136C361.175 143.379 360.774 143.78 360.456 144.34C360.158 144.9 360.008 145.647 360.008 146.58V154H356.172ZM379.108 154.28C377.69 154.28 376.392 154.028 375.216 153.524C374.059 153.02 373.116 152.311 372.388 151.396L374.6 149.156C375.048 149.828 375.646 150.379 376.392 150.808C377.139 151.237 378.026 151.452 379.052 151.452C379.78 151.452 380.359 151.349 380.788 151.144C381.236 150.92 381.46 150.575 381.46 150.108C381.46 149.809 381.358 149.557 381.152 149.352C380.947 149.128 380.536 148.951 379.92 148.82L377.456 148.316C375.832 147.98 374.675 147.476 373.984 146.804C373.312 146.113 372.976 145.227 372.976 144.144C372.976 143.379 373.2 142.66 373.648 141.988C374.115 141.316 374.806 140.775 375.72 140.364C376.635 139.935 377.774 139.72 379.136 139.72C380.536 139.72 381.75 139.944 382.776 140.392C383.822 140.821 384.643 141.465 385.24 142.324L382.944 144.564C382.534 143.911 381.992 143.416 381.32 143.08C380.667 142.725 379.976 142.548 379.248 142.548C378.726 142.548 378.278 142.604 377.904 142.716C377.531 142.828 377.251 142.987 377.064 143.192C376.878 143.379 376.784 143.621 376.784 143.92C376.784 144.219 376.915 144.48 377.176 144.704C377.438 144.909 377.914 145.087 378.604 145.236L381.46 145.824C382.842 146.104 383.831 146.58 384.428 147.252C385.026 147.905 385.324 148.699 385.324 149.632C385.324 150.528 385.082 151.331 384.596 152.04C384.13 152.731 383.43 153.281 382.496 153.692C381.582 154.084 380.452 154.28 379.108 154.28ZM388.383 159.88V140H391.827L392.079 144.452L391.603 143.948C391.771 143.127 392.079 142.399 392.527 141.764C392.994 141.129 393.582 140.635 394.291 140.28C395.001 139.907 395.794 139.72 396.671 139.72C397.81 139.72 398.827 140.009 399.723 140.588C400.619 141.167 401.319 141.997 401.823 143.08C402.346 144.144 402.607 145.441 402.607 146.972C402.607 148.503 402.346 149.819 401.823 150.92C401.301 152.003 400.582 152.833 399.667 153.412C398.771 153.991 397.745 154.28 396.587 154.28C395.355 154.28 394.329 153.935 393.507 153.244C392.705 152.553 392.154 151.685 391.855 150.64L392.219 150.052V159.88H388.383ZM395.467 151.34C396.494 151.34 397.297 150.976 397.875 150.248C398.473 149.501 398.771 148.419 398.771 147C398.771 145.581 398.482 144.508 397.903 143.78C397.343 143.033 396.55 142.66 395.523 142.66C394.87 142.66 394.291 142.837 393.787 143.192C393.302 143.528 392.919 144.023 392.639 144.676C392.359 145.311 392.219 146.085 392.219 147C392.219 147.896 392.35 148.671 392.611 149.324C392.873 149.977 393.246 150.481 393.731 150.836C394.235 151.172 394.814 151.34 395.467 151.34ZM413.836 145.068C413.836 144.265 413.603 143.64 413.136 143.192C412.688 142.744 412.091 142.52 411.344 142.52C410.653 142.52 410.047 142.697 409.524 143.052C409.001 143.407 408.619 143.995 408.376 144.816L405.1 143.808C405.417 142.576 406.108 141.587 407.172 140.84C408.255 140.093 409.701 139.72 411.512 139.72C412.744 139.72 413.817 139.916 414.732 140.308C415.647 140.681 416.356 141.251 416.86 142.016C417.383 142.781 417.644 143.743 417.644 144.9V150.584C417.644 151.293 417.98 151.648 418.652 151.648C418.969 151.648 419.268 151.601 419.548 151.508L419.324 153.888C418.839 154.131 418.232 154.252 417.504 154.252C416.851 154.252 416.263 154.14 415.74 153.916C415.217 153.692 414.807 153.356 414.508 152.908C414.209 152.441 414.06 151.863 414.06 151.172V151.06L414.732 150.948C414.62 151.657 414.312 152.264 413.808 152.768C413.304 153.253 412.688 153.627 411.96 153.888C411.251 154.149 410.513 154.28 409.748 154.28C408.796 154.28 407.975 154.14 407.284 153.86C406.593 153.561 406.061 153.132 405.688 152.572C405.315 152.012 405.128 151.321 405.128 150.5C405.128 149.455 405.464 148.605 406.136 147.952C406.808 147.28 407.769 146.823 409.02 146.58L414.284 145.516L414.256 147.896L410.896 148.568C410.261 148.699 409.776 148.876 409.44 149.1C409.123 149.305 408.964 149.651 408.964 150.136C408.964 150.603 409.132 150.957 409.468 151.2C409.823 151.443 410.243 151.564 410.728 151.564C411.12 151.564 411.503 151.517 411.876 151.424C412.249 151.331 412.585 151.181 412.884 150.976C413.183 150.771 413.416 150.491 413.584 150.136C413.752 149.781 413.836 149.352 413.836 148.848V145.068ZM421.934 154V140H425.266L425.518 142.744C425.891 141.773 426.433 141.027 427.142 140.504C427.87 139.981 428.775 139.72 429.858 139.72C430.175 139.72 430.465 139.748 430.726 139.804C430.987 139.86 431.202 139.935 431.37 140.028L430.922 143.248C430.735 143.173 430.502 143.117 430.222 143.08C429.961 143.043 429.615 143.024 429.186 143.024C428.626 143.024 428.085 143.164 427.562 143.444C427.039 143.705 426.61 144.116 426.274 144.676C425.938 145.217 425.77 145.908 425.77 146.748V154H421.934ZM439.969 154.28C438.494 154.28 437.206 153.991 436.105 153.412C435.022 152.833 434.182 152.003 433.585 150.92C432.988 149.837 432.689 148.531 432.689 147C432.689 145.469 432.988 144.163 433.585 143.08C434.182 141.997 435.013 141.167 436.077 140.588C437.16 140.009 438.392 139.72 439.773 139.72C441.192 139.72 442.396 140.009 443.385 140.588C444.374 141.148 445.13 141.923 445.653 142.912C446.176 143.883 446.437 144.993 446.437 146.244C446.437 146.617 446.428 146.972 446.409 147.308C446.39 147.644 446.362 147.943 446.325 148.204H435.153V145.544H444.645L442.797 146.216C442.797 145.04 442.526 144.135 441.985 143.5C441.462 142.865 440.716 142.548 439.745 142.548C439.036 142.548 438.42 142.716 437.897 143.052C437.393 143.388 437.01 143.892 436.749 144.564C436.488 145.217 436.357 146.048 436.357 147.056C436.357 148.045 436.497 148.867 436.777 149.52C437.076 150.155 437.486 150.631 438.009 150.948C438.55 151.265 439.194 151.424 439.941 151.424C440.762 151.424 441.425 151.265 441.929 150.948C442.433 150.631 442.825 150.192 443.105 149.632L446.157 150.808C445.858 151.536 445.401 152.161 444.785 152.684C444.188 153.207 443.469 153.608 442.629 153.888C441.808 154.149 440.921 154.28 439.969 154.28ZM449.688 154V140H453.132L453.356 144.2L452.88 143.752C453.104 142.837 453.459 142.081 453.944 141.484C454.429 140.887 455.017 140.448 455.708 140.168C456.417 139.869 457.192 139.72 458.032 139.72C459.003 139.72 459.861 139.907 460.608 140.28C461.373 140.653 461.971 141.223 462.4 141.988C462.848 142.735 463.072 143.677 463.072 144.816V154H459.236V145.908C459.236 144.713 459.003 143.892 458.536 143.444C458.069 142.977 457.463 142.744 456.716 142.744C456.193 142.744 455.68 142.875 455.176 143.136C454.691 143.379 454.289 143.78 453.972 144.34C453.673 144.9 453.524 145.647 453.524 146.58V154H449.688ZM471.87 135.716V149.436C471.87 150.108 472.038 150.603 472.374 150.92C472.729 151.219 473.205 151.368 473.802 151.368C474.269 151.368 474.68 151.303 475.034 151.172C475.389 151.023 475.706 150.827 475.986 150.584L476.602 153.132C476.154 153.487 475.594 153.767 474.922 153.972C474.25 154.177 473.541 154.28 472.794 154.28C471.861 154.28 471.03 154.14 470.302 153.86C469.593 153.58 469.033 153.132 468.622 152.516C468.23 151.9 468.034 151.079 468.034 150.052V136.78L471.87 135.716ZM476.35 140V142.856H465.458V140H476.35ZM496.044 135.52C498.135 135.52 499.778 136.024 500.972 137.032C502.167 138.04 502.764 139.393 502.764 141.092C502.764 142.903 502.167 144.293 500.972 145.264C499.778 146.216 498.144 146.692 496.072 146.692L495.68 146.916H491.704V154H487.896V135.52H496.044ZM495.596 143.976C496.679 143.976 497.482 143.761 498.004 143.332C498.546 142.884 498.816 142.203 498.816 141.288C498.816 140.373 498.546 139.701 498.004 139.272C497.482 138.824 496.679 138.6 495.596 138.6H491.704V143.976H495.596ZM497.864 144.788L503.856 154H499.516L494.56 145.908L497.864 144.788ZM512.758 154.28C511.283 154.28 509.995 153.991 508.894 153.412C507.811 152.833 506.971 152.003 506.374 150.92C505.777 149.837 505.478 148.531 505.478 147C505.478 145.469 505.777 144.163 506.374 143.08C506.971 141.997 507.802 141.167 508.866 140.588C509.949 140.009 511.181 139.72 512.562 139.72C513.981 139.72 515.185 140.009 516.174 140.588C517.163 141.148 517.919 141.923 518.442 142.912C518.965 143.883 519.226 144.993 519.226 146.244C519.226 146.617 519.217 146.972 519.198 147.308C519.179 147.644 519.151 147.943 519.114 148.204H507.942V145.544H517.434L515.586 146.216C515.586 145.04 515.315 144.135 514.774 143.5C514.251 142.865 513.505 142.548 512.534 142.548C511.825 142.548 511.209 142.716 510.686 143.052C510.182 143.388 509.799 143.892 509.538 144.564C509.277 145.217 509.146 146.048 509.146 147.056C509.146 148.045 509.286 148.867 509.566 149.52C509.865 150.155 510.275 150.631 510.798 150.948C511.339 151.265 511.983 151.424 512.73 151.424C513.551 151.424 514.214 151.265 514.718 150.948C515.222 150.631 515.614 150.192 515.894 149.632L518.946 150.808C518.647 151.536 518.19 152.161 517.574 152.684C516.977 153.207 516.258 153.608 515.418 153.888C514.597 154.149 513.71 154.28 512.758 154.28ZM528.077 154.28C526.658 154.28 525.361 154.028 524.185 153.524C523.028 153.02 522.085 152.311 521.357 151.396L523.569 149.156C524.017 149.828 524.614 150.379 525.361 150.808C526.108 151.237 526.994 151.452 528.021 151.452C528.749 151.452 529.328 151.349 529.757 151.144C530.205 150.92 530.429 150.575 530.429 150.108C530.429 149.809 530.326 149.557 530.121 149.352C529.916 149.128 529.505 148.951 528.889 148.82L526.425 148.316C524.801 147.98 523.644 147.476 522.953 146.804C522.281 146.113 521.945 145.227 521.945 144.144C521.945 143.379 522.169 142.66 522.617 141.988C523.084 141.316 523.774 140.775 524.689 140.364C525.604 139.935 526.742 139.72 528.105 139.72C529.505 139.72 530.718 139.944 531.745 140.392C532.79 140.821 533.612 141.465 534.209 142.324L531.913 144.564C531.502 143.911 530.961 143.416 530.289 143.08C529.636 142.725 528.945 142.548 528.217 142.548C527.694 142.548 527.246 142.604 526.873 142.716C526.5 142.828 526.22 142.987 526.033 143.192C525.846 143.379 525.753 143.621 525.753 143.92C525.753 144.219 525.884 144.48 526.145 144.704C526.406 144.909 526.882 145.087 527.573 145.236L530.429 145.824C531.81 146.104 532.8 146.58 533.397 147.252C533.994 147.905 534.293 148.699 534.293 149.632C534.293 150.528 534.05 151.331 533.565 152.04C533.098 152.731 532.398 153.281 531.465 153.692C530.55 154.084 529.421 154.28 528.077 154.28ZM542.224 154.28C541.291 154.28 540.451 154.112 539.704 153.776C538.957 153.44 538.36 152.908 537.912 152.18C537.483 151.433 537.268 150.472 537.268 149.296V140H541.104V148.372C541.104 149.455 541.328 150.211 541.776 150.64C542.224 151.051 542.868 151.256 543.708 151.256C544.1 151.256 544.483 151.191 544.856 151.06C545.229 150.911 545.556 150.687 545.836 150.388C546.135 150.089 546.368 149.707 546.536 149.24C546.704 148.755 546.788 148.185 546.788 147.532V140H550.624V154H547.208L547.068 151.564C546.601 152.497 545.957 153.188 545.136 153.636C544.333 154.065 543.363 154.28 542.224 154.28ZM558.441 133.868V149.688C558.441 150.341 558.553 150.799 558.777 151.06C559.001 151.321 559.374 151.452 559.897 151.452C560.214 151.452 560.475 151.433 560.681 151.396C560.886 151.34 561.147 151.265 561.465 151.172L561.129 153.692C560.811 153.879 560.41 154.019 559.925 154.112C559.458 154.224 558.991 154.28 558.525 154.28C557.162 154.28 556.163 153.953 555.529 153.3C554.913 152.628 554.605 151.564 554.605 150.108V133.868H558.441ZM568.066 135.716V149.436C568.066 150.108 568.234 150.603 568.57 150.92C568.924 151.219 569.4 151.368 569.998 151.368C570.464 151.368 570.875 151.303 571.23 151.172C571.584 151.023 571.902 150.827 572.182 150.584L572.798 153.132C572.35 153.487 571.79 153.767 571.118 153.972C570.446 154.177 569.736 154.28 568.99 154.28C568.056 154.28 567.226 154.14 566.498 153.86C565.788 153.58 565.228 153.132 564.818 152.516C564.426 151.9 564.23 151.079 564.23 150.052V136.78L568.066 135.716ZM572.546 140V142.856H561.654V140H572.546ZM580.741 154.28C579.322 154.28 578.025 154.028 576.849 153.524C575.692 153.02 574.749 152.311 574.021 151.396L576.233 149.156C576.681 149.828 577.278 150.379 578.025 150.808C578.772 151.237 579.658 151.452 580.685 151.452C581.413 151.452 581.992 151.349 582.421 151.144C582.869 150.92 583.093 150.575 583.093 150.108C583.093 149.809 582.99 149.557 582.785 149.352C582.58 149.128 582.169 148.951 581.553 148.82L579.089 148.316C577.465 147.98 576.308 147.476 575.617 146.804C574.945 146.113 574.609 145.227 574.609 144.144C574.609 143.379 574.833 142.66 575.281 141.988C575.748 141.316 576.438 140.775 577.353 140.364C578.268 139.935 579.406 139.72 580.769 139.72C582.169 139.72 583.382 139.944 584.409 140.392C585.454 140.821 586.276 141.465 586.873 142.324L584.577 144.564C584.166 143.911 583.625 143.416 582.953 143.08C582.3 142.725 581.609 142.548 580.881 142.548C580.358 142.548 579.91 142.604 579.537 142.716C579.164 142.828 578.884 142.987 578.697 143.192C578.51 143.379 578.417 143.621 578.417 143.92C578.417 144.219 578.548 144.48 578.809 144.704C579.07 144.909 579.546 145.087 580.237 145.236L583.093 145.824C584.474 146.104 585.464 146.58 586.061 147.252C586.658 147.905 586.957 148.699 586.957 149.632C586.957 150.528 586.714 151.331 586.229 152.04C585.762 152.731 585.062 153.281 584.129 153.692C583.214 154.084 582.085 154.28 580.741 154.28Z" fill="#3D3D3D"/>
<g filter="url(#filter0_d_149_16699)">
<circle cx="148" cy="144" r="140" fill="white"/>
</g>
<path d="M139.387 202.52L115.697 212.029L86.376 139.002L106.405 130.964C108.428 130.145 110.731 131.131 111.538 133.153L139.387 202.52Z" fill="#3797DB"/>
<path d="M142.169 199.795L96.8047 207.84L85.4954 144.065L130.86 136.02L142.169 199.795Z" fill="#D1EAF2"/>
<path d="M119.473 145.034L99.2227 148.625L99.1422 148.171L119.392 144.58L119.473 145.034Z" fill="#55769F"/>
<path d="M123.526 143.121L94.7578 148.223L94.6774 147.769L123.446 142.667L123.526 143.121Z" fill="#55769F"/>
<path d="M127.655 148.505L92.75 154.695L92.6696 154.242L127.575 148.052L127.655 148.505Z" fill="#55769F"/>
<path d="M128.03 150.697L93.125 156.887L93.0446 156.433L127.95 150.243L128.03 150.697Z" fill="#55769F"/>
<path d="M128.816 155.064L93.9102 161.254L93.8297 160.8L128.735 154.61L128.816 155.064Z" fill="#55769F"/>
<path d="M129.195 157.255L94.2891 163.445L94.2086 162.992L129.114 156.802L129.195 157.255Z" fill="#55769F"/>
<path d="M129.585 159.439L94.6797 165.629L94.5992 165.175L129.505 158.985L129.585 159.439Z" fill="#55769F"/>
<path d="M131.296 169.068L96.3906 175.258L96.3102 174.804L131.216 168.614L131.296 169.068Z" fill="#55769F"/>
<path d="M131.691 171.341L96.7852 177.531L96.7047 177.078L131.61 170.888L131.691 171.341Z" fill="#55769F"/>
<path d="M132.093 173.599L97.1875 179.789L97.1071 179.335L132.013 173.146L132.093 173.599Z" fill="#55769F"/>
<path d="M132.503 175.869L97.5977 182.059L97.5172 181.605L132.423 175.415L132.503 175.869Z" fill="#55769F"/>
<path d="M132.898 178.138L97.9922 184.328L97.9117 183.874L132.817 177.685L132.898 178.138Z" fill="#55769F"/>
<path d="M133.304 180.412L98.3984 186.602L98.318 186.148L133.223 179.958L133.304 180.412Z" fill="#55769F"/>
<path d="M133.698 182.67L98.793 188.859L98.7125 188.406L133.618 182.216L133.698 182.67Z" fill="#55769F"/>
<path d="M140.824 197.071L96.2656 208.797L79.781 146.155L124.339 134.43L140.824 197.071Z" fill="#E1F9FF"/>
<path d="M113.73 144.348L93.8398 149.582L93.7226 149.136L113.613 143.902L113.73 144.348Z" fill="#88C3DB"/>
<path d="M117.621 142.107L89.3633 149.543L89.246 149.097L117.503 141.661L117.621 142.107Z" fill="#88C3DB"/>
<path d="M122.168 147.134L87.8828 156.156L87.7656 155.711L122.051 146.688L122.168 147.134Z" fill="#88C3DB"/>
<path d="M122.738 149.278L88.4531 158.301L88.3359 157.855L122.621 148.833L122.738 149.278Z" fill="#88C3DB"/>
<path d="M123.863 153.587L89.5781 162.609L89.4609 162.164L123.746 153.141L123.863 153.587Z" fill="#88C3DB"/>
<path d="M124.43 155.732L90.1445 164.754L90.0273 164.308L124.312 155.286L124.43 155.732Z" fill="#88C3DB"/>
<path d="M124.996 157.876L90.7109 166.898L90.5937 166.453L124.879 157.43L124.996 157.876Z" fill="#88C3DB"/>
<path d="M127.488 167.329L93.2031 176.352L93.0859 175.906L127.371 166.884L127.488 167.329Z" fill="#88C3DB"/>
<path d="M128.07 169.556L93.7852 178.578L93.6679 178.133L127.953 169.11L128.07 169.556Z" fill="#88C3DB"/>
<path d="M128.656 171.782L94.3711 180.805L94.2538 180.359L128.539 171.337L128.656 171.782Z" fill="#88C3DB"/>
<path d="M129.238 174.005L94.9531 183.027L94.8359 182.582L129.121 173.559L129.238 174.005Z" fill="#55769F"/>
<path d="M129.82 176.232L95.5352 185.254L95.4179 184.808L129.703 175.786L129.82 176.232Z" fill="#55769F"/>
<path d="M130.418 178.458L96.1328 187.48L96.0156 187.035L130.301 178.012L130.418 178.458Z" fill="#55769F"/>
<path d="M131.004 180.689L96.7188 189.711L96.6015 189.265L130.887 180.243L131.004 180.689Z" fill="#55769F"/>
<path d="M130.391 206.126L82.6912 225.285L54.8675 156.021L94.952 131.294C97.2045 129.899 100.161 130.885 101.146 133.342L130.391 206.126Z" fill="#62BDF3"/>
<path d="M72.9871 198.856L64.3482 196.322C62.8252 190.038 61.9166 184.676 61.9166 184.676C72.3472 185.098 80.3718 188.285 86.5406 192.828L87.8204 203.105L90.5721 196.22C105.137 210.119 106.852 231.569 106.852 231.569C106.852 231.569 77.5305 220.089 71.9377 215.366C69.7747 213.536 67.791 208.558 66.1656 203.118C69.0708 201.531 72.9871 198.856 72.9871 198.856Z" fill="#9ED16F"/>
<path d="M61.9048 184.676C61.9048 184.676 96.23 211.604 106.84 231.556C106.84 231.556 77.5188 220.076 71.9259 215.353C69.763 213.523 67.7793 208.545 66.1539 203.105C69.0719 201.531 72.9754 198.856 72.9754 198.856L64.3365 196.322C62.8263 190.038 61.9048 184.676 61.9048 184.676Z" fill="#96A65F"/>
<path d="M56.0125 211.103C62.1045 209.35 67.8382 209.094 73.1239 209.811C74.1094 212.076 75.3508 214.764 75.3508 214.764L76.733 210.463C96.5321 214.917 109.164 232.451 109.164 232.451C95.8794 236.495 85.6791 235.817 77.9361 233.014C77.8849 231.363 77.8465 228.906 77.8465 228.906L75.4916 232.029C71.8569 230.403 68.8365 228.304 66.3408 226.065C67.5822 224.452 68.926 222.596 68.926 222.596L64.0499 223.838C58.1626 217.579 56.0125 211.103 56.0125 211.103Z" fill="#55AACC"/>
<path d="M77.9389 233.015C77.8877 231.364 77.8493 228.907 77.8493 228.907L75.4944 232.03C71.8597 230.404 68.8393 228.305 66.3436 226.065C67.585 224.453 68.9289 222.597 68.9289 222.597L64.0527 223.839C58.1655 217.593 56.0281 211.117 56.0281 211.117C79.5387 214.713 109.18 232.465 109.18 232.465C95.8822 236.483 85.6819 235.818 77.9389 233.015Z" fill="#2A92BA"/>
<path d="M205.858 158.569H209.121C208.584 158.198 207.918 157.98 207.189 157.98H125.484C121.209 157.98 117.741 161.052 117.741 164.84V169.205C117.741 172.993 121.209 176.065 125.484 176.065L206.28 176.039L205.858 158.569Z" fill="#55AACC"/>
<path d="M124.589 169.205V164.84C124.589 161.052 128.057 157.98 132.332 157.98H130.579C126.304 157.98 122.836 161.052 122.836 164.84V169.205C122.836 172.993 126.304 176.065 130.579 176.065H132.306C128.045 176.052 124.589 172.993 124.589 169.205Z" fill="#D1EAF2"/>
<path d="M143.737 169.205V164.84C143.737 161.052 147.206 157.98 151.48 157.98H149.727C145.452 157.98 141.984 161.052 141.984 164.84V169.205C141.984 172.993 145.452 176.065 149.727 176.065H151.455C147.193 176.052 143.737 172.993 143.737 169.205Z" fill="#D1EAF2"/>
<path d="M159.465 158.008C155.383 158.008 152.068 160.951 152.068 164.573V169.501C152.068 173.123 155.383 176.066 159.465 176.066H210.339V174.966H210.134L197.208 173.878L194.597 164.791C194.597 164.791 199.639 159.774 199.972 159.633C200.305 159.505 210.147 159.108 210.147 159.108H210.352V158.008H159.465Z" fill="#2A95BF"/>
<path d="M207.036 166.99C207.036 161.679 210.133 159.094 210.133 159.094H160.514C156.764 159.094 153.718 161.794 153.718 165.122V168.91C153.718 172.238 156.764 174.938 160.514 174.938H210.133C210.133 174.951 207.036 173.684 207.036 166.99Z" fill="#D1EAF2"/>
<path d="M153.702 165.133V168.922C153.702 169.421 153.766 169.907 153.894 170.368C155.571 166.733 158.77 163.239 164.875 162.113C179.132 159.489 210.117 159.105 210.117 159.105H160.498C156.748 159.105 153.702 161.806 153.702 165.133Z" fill="#DAEEF7"/>
<path d="M204.513 194.718H208.199C207.598 194.257 206.843 193.988 206.023 193.988H113.543C108.705 193.988 104.776 197.828 104.776 202.576V208.028C104.776 212.776 108.692 216.616 113.543 216.616L204.987 216.59L204.513 194.718Z" fill="#3B77BE"/>
<path d="M152.002 194.004C147.369 194.004 143.619 197.677 143.619 202.22V208.389C143.619 212.92 147.369 216.606 152.002 216.606H209.582V215.224H209.339L194.698 213.867L191.741 202.489C191.741 202.489 197.449 196.205 197.82 196.039C198.191 195.872 209.326 195.386 209.326 195.386H209.569V194.017H152.002V194.004Z" fill="#2A95BF"/>
<path d="M205.841 205.263C205.841 198.608 209.348 195.383 209.348 195.383H153.188C148.939 195.383 145.497 198.762 145.497 202.921V207.669C145.497 211.841 148.939 215.207 153.188 215.207H209.348C209.348 215.22 205.841 213.633 205.841 205.263Z" fill="#D1EAF2"/>
<path d="M145.484 202.934V207.682C145.484 208.309 145.561 208.911 145.714 209.487C147.608 204.943 151.243 200.566 158.154 199.158C174.293 195.869 209.348 195.383 209.348 195.383H153.188C148.927 195.383 145.484 198.762 145.484 202.934Z" fill="#DAEEF7"/>
<path d="M101.736 176.607H98.037C98.6386 176.249 99.3937 176.031 100.226 176.031H192.745C197.583 176.031 201.512 179.077 201.512 182.84V187.166C201.512 190.929 197.583 193.975 192.745 193.975L101.262 193.949L101.736 176.607Z" fill="#9ED16F"/>
<path d="M154.262 176.047C158.895 176.047 162.645 178.965 162.645 182.561V187.45C162.645 191.047 158.895 193.965 154.262 193.965H96.669V192.877H96.9122L111.554 191.802L114.51 182.779C114.51 182.779 108.802 177.787 108.431 177.659C108.06 177.531 96.9122 177.135 96.9122 177.135H96.669V176.047H154.262Z" fill="#96A65F"/>
<path d="M100.403 184.977C100.403 179.704 96.8958 177.145 96.8958 177.145H153.081C157.33 177.145 160.785 179.819 160.785 183.134V186.897C160.785 190.199 157.342 192.887 153.081 192.887H96.8958C96.8958 192.874 100.403 191.619 100.403 184.977Z" fill="#D1EAF2"/>
<path d="M160.777 183.122V186.885C160.777 187.384 160.701 187.858 160.547 188.319C158.653 184.709 155.018 181.241 148.107 180.128C131.968 177.517 96.888 177.133 96.888 177.133H153.073C157.335 177.133 160.777 179.82 160.777 183.122Z" fill="#DAEEF7"/>
<path opacity="0.5" d="M184.556 187.166V182.84C184.556 179.077 180.627 176.031 175.789 176.031H184.569C189.407 176.031 193.336 179.077 193.336 182.84V187.166C193.336 190.929 189.407 193.975 184.569 193.975H175.905C180.704 193.936 184.556 190.903 184.556 187.166Z" fill="#96A65F"/>
<path d="M95.6376 217.301H91.0046C91.7597 216.892 92.7068 216.648 93.7435 216.648H209.722C215.789 216.648 220.703 220.053 220.703 224.263V229.101C220.703 233.312 215.789 236.716 209.722 236.716L95.0361 236.691L95.6376 217.301Z" fill="#3797DB"/>
<path d="M161.485 216.672C167.282 216.672 171.992 219.935 171.992 223.954V229.419C171.992 233.438 167.282 236.701 161.485 236.701H89.2764V235.473H89.5708L107.924 234.27L111.635 224.185C111.635 224.185 104.481 218.617 104.007 218.464C103.547 218.323 89.5708 217.888 89.5708 217.888H89.2764V216.672H161.485Z" fill="#3B77BE"/>
<path d="M93.9629 226.656C93.9629 220.756 89.5603 217.902 89.5603 217.902H160.002C165.327 217.902 169.652 220.897 169.652 224.596V228.807C169.652 232.505 165.327 235.5 160.002 235.5H89.5603C89.5731 235.487 93.9629 234.079 93.9629 226.656Z" fill="#D1EAF2"/>
<path d="M169.652 224.583V228.794C169.652 229.344 169.55 229.882 169.371 230.394C166.99 226.362 162.447 222.484 153.77 221.243C133.535 218.325 89.5603 217.902 89.5603 217.902H160.002C165.339 217.902 169.652 220.897 169.652 224.583Z" fill="#DAEEF7"/>
<g filter="url(#filter1_d_149_16699)">
<path d="M233.467 238.803H65.2715C64.7723 238.803 64.3756 238.406 64.3756 237.907V237.497C64.3756 236.998 64.7723 236.602 65.2715 236.602H233.467C233.967 236.602 234.363 236.998 234.363 237.497V237.907C234.363 238.393 233.954 238.803 233.467 238.803Z" fill="#62BDF3"/>
</g>
<path d="M63.3243 163.66L95.8065 145.09L100.184 153.78L66.9591 171.352L63.3243 163.66Z" fill="#3797DB"/>
<path d="M68.8373 78.0156C68.8373 78.0156 68.5814 80.5369 66.5848 80.7161C68.5814 80.8953 68.8373 83.4165 68.8373 83.4165C68.8373 83.4165 69.0933 80.8953 71.0898 80.7161C69.0933 80.5369 68.8373 78.0156 68.8373 78.0156Z" fill="#7772D6"/>
<path d="M54.879 170.152C54.879 170.152 54.4951 173.941 51.5003 174.197C54.4951 174.453 54.879 178.241 54.879 178.241C54.879 178.241 55.263 174.453 58.2578 174.197C55.263 173.941 54.879 170.152 54.879 170.152Z" fill="#FF5B7E"/>
<path d="M34.4503 99.1561C34.4503 99.1561 34.1047 102.522 31.4554 102.752C34.1047 102.983 34.4503 106.349 34.4503 106.349C34.4503 106.349 34.7958 102.983 37.4451 102.752C34.783 102.522 34.4503 99.1561 34.4503 99.1561Z" fill="#9ED16F"/>
<path d="M222.251 185.059C222.251 185.059 222.021 187.324 220.229 187.477C222.021 187.631 222.251 189.896 222.251 189.896C222.251 189.896 222.482 187.631 224.273 187.477C222.482 187.324 222.251 185.059 222.251 185.059Z" fill="#9ED16F"/>
<path d="M76.186 121.441C76.186 121.441 75.9556 123.694 74.1766 123.86C75.9556 124.014 76.186 126.279 76.186 126.279C76.186 126.279 76.4163 124.014 78.1953 123.86C76.4035 123.707 76.186 121.441 76.186 121.441Z" fill="#3797DB"/>
<path d="M107.209 62.1562C107.209 62.1562 106.979 64.4088 105.2 64.5751C106.979 64.7287 107.209 66.994 107.209 66.994C107.209 66.994 107.44 64.7415 109.219 64.5751C107.44 64.4088 107.209 62.1562 107.209 62.1562Z" fill="#3797DB"/>
<path d="M216.442 99.5898C216.442 99.5898 216.147 102.546 213.805 102.751C216.135 102.956 216.442 105.912 216.442 105.912C216.442 105.912 216.736 102.956 219.078 102.751C216.749 102.546 216.442 99.5898 216.442 99.5898Z" fill="#3797DB"/>
<path d="M230.32 145.461C230.32 145.461 229.884 149.787 226.467 150.094C229.884 150.388 230.32 154.727 230.32 154.727C230.32 154.727 230.755 150.401 234.172 150.094C230.768 149.787 230.32 145.461 230.32 145.461Z" fill="#3797DB"/>
<path d="M114.607 95.5586C114.607 95.5586 114.261 98.9246 111.612 99.1549C114.261 99.3853 114.607 102.751 114.607 102.751C114.607 102.751 114.952 99.3853 117.602 99.1549C114.952 98.9246 114.607 95.5586 114.607 95.5586Z" fill="#3797DB"/>
<path d="M37.4466 142.891C37.4466 142.891 37.101 146.257 34.4518 146.487C37.101 146.717 37.4466 150.083 37.4466 150.083C37.4466 150.083 37.7921 146.717 40.4414 146.487C37.7793 146.257 37.4466 142.891 37.4466 142.891Z" fill="#7772D6"/>
<path d="M181.929 85.0898C181.929 85.0898 181.686 87.4831 179.792 87.6495C181.686 87.8159 181.929 90.2092 181.929 90.2092C181.929 90.2092 182.172 87.8159 184.066 87.6495C182.172 87.4959 181.929 85.0898 181.929 85.0898Z" fill="#7772D6"/>
<path d="M193.345 129.289C193.345 129.289 192.961 133.129 189.927 133.397C192.961 133.666 193.345 137.506 193.345 137.506C193.345 137.506 193.729 133.666 196.762 133.397C193.729 133.129 193.345 129.289 193.345 129.289Z" fill="#7772D6"/>
<path d="M262.671 114.961C262.671 114.961 262.402 118.007 260.341 118.212C262.415 118.416 262.671 121.462 262.671 121.462C262.671 121.462 262.939 118.416 265 118.212C262.939 118.007 262.671 114.961 262.671 114.961Z" fill="#9ED16F"/>
<path d="M177.42 55.6211C177.42 55.6211 177.151 58.6799 175.078 58.8847C177.151 59.1022 177.42 62.1483 177.42 62.1483C177.42 62.1483 177.688 59.0894 179.762 58.8847C177.688 58.6799 177.42 55.6211 177.42 55.6211Z" fill="#9ED16F"/>
<path d="M144.613 116.898L139.379 117.321L141.068 121.557L143.717 121.339L144.818 124.872C145.087 124.744 145.279 124.654 145.33 124.629C145.407 124.577 145.701 122.824 145.957 121.16L144.613 116.898Z" fill="#DAEEF7"/>
<path d="M141.617 155.883V157.726C141.617 157.879 141.489 158.007 141.336 158.007H137.023C136.715 158.007 136.587 157.598 136.856 157.431L139.275 155.883C139.288 155.883 140.235 156.574 141.617 155.883Z" fill="#55AACC"/>
<path d="M150.09 77.5962C150.154 77.6218 150.218 77.5706 150.205 77.4938C150.102 76.9818 149.77 75.3693 149.898 75.3053C150.051 75.2413 150.371 76.6747 150.525 76.6875C150.678 76.7003 150.32 75.3053 150.486 75.2669C150.653 75.2157 150.934 76.4955 151.011 76.5083C151.088 76.5083 150.947 75.2541 151.037 75.1645C151.113 75.0749 151.433 76.4059 151.523 76.4315C151.613 76.4699 151.702 75.4844 151.792 75.4716C151.881 75.4716 151.933 75.4588 152.368 77.7242C152.368 77.7242 152.393 78.5561 152.547 78.748L152.214 79.4135L151.203 79.4519C151.203 79.4519 148.989 77.4554 149.015 77.3274C149.015 77.2378 149.117 77.2122 150.09 77.5962Z" fill="#EFAC7F"/>
<path d="M139.623 78.0933C139.572 78.1445 139.495 78.1189 139.482 78.055C139.341 77.543 138.906 75.956 138.766 75.9688C138.599 75.9816 138.97 77.4022 138.842 77.4918C138.714 77.5814 138.394 76.1736 138.228 76.212C138.062 76.2504 138.382 77.5174 138.318 77.5558C138.254 77.5942 137.806 76.4168 137.69 76.3784C137.575 76.34 137.895 77.6582 137.831 77.735C137.767 77.8118 137.23 76.9671 137.153 77.0055C137.076 77.0439 137.012 77.0567 137.665 79.2836C137.665 79.2836 138.023 80.0387 137.985 80.2819L138.586 80.7298L139.508 80.2947C139.508 80.2947 140.557 77.5046 140.493 77.4022C140.404 77.2999 140.314 77.3127 139.623 78.0933Z" fill="#EFAC7F"/>
<path d="M147.698 96.3044L147.685 100.195L151.461 99.6064L150.834 95.2422L147.698 96.3044Z" fill="#EFAC7F"/>
<path opacity="0.6" d="M151.129 97.2515L150.835 95.2422L147.699 96.6756V97.4435C148.454 97.6227 149.862 97.7891 151.129 97.2515Z" fill="#D19369"/>
<path d="M154.531 155.676V157.698C154.531 157.864 154.672 158.005 154.838 158.005H159.587C159.932 158.005 160.06 157.557 159.766 157.378L157.104 155.676C157.091 155.676 156.054 156.431 154.531 155.676Z" fill="#55AACC"/>
<path d="M158.856 121.257C158.843 120.822 159.97 122.101 159.957 121.756C159.509 114.563 145.456 120.591 145.456 120.591L142.026 123.113L138.149 156.452C138.149 156.452 140.247 157.067 141.63 156.567L150.205 128.002L151.254 127.592C151.267 127.579 155.964 124.303 158.856 121.257Z" fill="#55AACC"/>
<path d="M159.979 122.047C159.979 122.136 159.992 122.213 159.992 122.303C159.992 122.226 159.979 122.136 159.979 122.047Z" fill="#06BFAD"/>
<path d="M159.983 122.312C159.983 122.402 159.996 122.492 159.996 122.594C159.983 122.492 159.983 122.402 159.983 122.312Z" fill="#06BFAD"/>
<path d="M160.003 122.637C160.003 122.739 160.003 122.829 160.016 122.944C160.003 122.829 160.003 122.726 160.003 122.637Z" fill="#06BFAD"/>
<path d="M159.964 121.766C159.964 121.842 159.977 121.919 159.977 122.009C159.964 121.919 159.964 121.842 159.964 121.766Z" fill="#06BFAD"/>
<path d="M159.965 120.129C157.073 123.188 151.288 127.59 151.288 127.59L154.551 156.451C154.551 156.451 156.881 156.899 158.199 156.169C158.186 156.182 160.144 128.704 159.965 120.129Z" fill="#2A95BF"/>
<path d="M138.154 156.449C138.154 156.449 139.063 156.705 140.074 156.756C139.063 156.718 138.154 156.449 138.154 156.449Z" fill="#06BFAD"/>
<path d="M142.027 123.111L141.477 127.872C142.936 128.435 146.506 129.05 149.194 123.162C150.039 121.307 150.256 119.976 150.103 119.016C147.53 119.707 145.457 120.59 145.457 120.59L142.027 123.111Z" fill="#2A95BF"/>
<path d="M154.926 103.692C154.76 103.692 152.328 98.1758 152.328 98.1758C150.242 99.6348 147.413 98.6237 147.413 98.6237C147.413 98.6237 136.036 119.434 143.663 122.685C151.291 125.935 158.484 121.981 158.484 121.981C158.484 121.981 160.109 117.757 160.109 117.604C160.109 117.437 155.08 103.692 154.926 103.692Z" fill="#D1EAF2"/>
<path d="M140.095 80.3234C140.095 80.3234 139.608 90.2037 140.53 92.0083C143.601 98.0107 147.415 98.6251 147.415 98.6251C147.415 98.6251 148.721 119.627 147.646 124.657C147.646 124.657 144.049 125.77 138.751 123.275C138.751 123.275 142.808 106.995 142.59 104.935C142.59 104.935 136.102 99.1498 135.884 92.3283C135.666 85.5067 137.458 79.4531 137.458 79.4531L140.095 80.3234Z" fill="#88C3DB"/>
<path d="M157.603 123.899C157.603 123.899 157.193 116.08 155.414 108.669C153.635 101.259 152.33 98.1747 152.33 98.1747C154.723 95.5382 154.326 93.1577 154.109 90.0605C153.866 86.4898 150.372 79.3483 150.372 79.3483L152.727 77.8125C164.002 91.366 157.756 102.155 157.756 102.155C157.756 102.155 161.98 117.091 162.543 121.634C162.543 121.621 160.303 122.927 157.603 123.899Z" fill="#88C3DB"/>
<path d="M142.693 104.909C142.834 104.807 142.988 104.666 143.141 104.474C143.615 103.898 143.871 103.245 144.037 102.516C143.935 102.823 143.653 103.731 143.077 104.41C142.821 104.704 142.681 104.807 142.553 104.896C142.578 104.909 142.578 104.922 142.578 104.922C142.578 104.935 142.578 104.947 142.578 104.96C142.732 104.986 142.988 104.999 143.436 104.755C143.717 104.615 143.935 104.435 144.152 104.243C143.999 104.346 143.692 104.576 143.41 104.704C143.218 104.832 142.924 104.935 142.693 104.909Z" fill="#96A65F"/>
<path d="M157.677 102.106C157.485 101.978 157.319 101.812 157.165 101.632C156.692 101.069 156.423 100.404 156.205 99.7383C156.372 100.455 156.628 101.108 157.101 101.696C157.255 101.888 157.421 102.029 157.549 102.132C157.447 102.144 157.319 102.119 157.229 102.093C157.088 102.055 156.948 102.004 156.82 101.94C156.551 101.812 156.282 101.62 156.077 101.479C156.282 101.645 156.512 101.85 156.794 101.991C156.922 102.068 157.063 102.119 157.204 102.17C157.357 102.208 157.498 102.234 157.664 102.196L157.754 102.17L157.677 102.106Z" fill="#96A65F"/>
<path d="M153.126 88.3707L153.344 91.0456L152.934 91.3016L152.153 88.0508L153.126 88.3707Z" fill="#5E2E0D"/>
<path d="M152.55 90.7649C152.435 91.3665 152.729 91.9296 153.215 92.032C153.702 92.1216 154.188 91.712 154.303 91.1105C154.418 90.509 154.124 89.9458 153.638 89.8434C153.151 89.7411 152.665 90.1634 152.55 90.7649Z" fill="#D19369"/>
<path d="M153.241 93.2347C153.369 92.4668 153.343 91.6733 153.279 90.995C153.266 90.8542 153.254 90.7006 153.254 90.5598C153.241 89.9711 153.113 89.3696 152.857 88.7681C152.025 86.8483 149.99 85.6837 147.917 85.9524C145.127 86.298 143.284 88.9217 143.821 91.6093C143.501 91.5069 143.156 91.5325 142.9 91.7245C142.401 92.0828 142.349 92.8891 142.797 93.5163C143.245 94.1434 144.013 94.3738 144.525 94.0154C144.589 93.9642 144.653 93.913 144.704 93.8362C145.395 96.0759 147.622 97.4709 149.862 96.9718C151.564 96.5879 152.972 95.18 153.241 93.2347Z" fill="#EFAC7F"/>
<path d="M148.081 91.0997C148.196 91.3813 147.991 91.6756 147.684 91.6756C147.518 91.6756 147.364 91.5733 147.3 91.4197C147.185 91.1381 147.39 90.8438 147.697 90.8438C147.863 90.8438 148.017 90.9461 148.081 91.0997Z" fill="#333333"/>
<path d="M151.612 90.5724C151.727 90.8539 151.522 91.1483 151.215 91.1483C151.049 91.1483 150.895 91.0459 150.831 90.8923C150.716 90.6108 150.921 90.3164 151.228 90.3164C151.407 90.3164 151.561 90.4188 151.612 90.5724Z" fill="#333333"/>
<path d="M148.629 94.0005C148.846 94.1157 149.09 94.1925 149.294 94.2308C149.525 94.2692 149.755 94.2948 149.986 94.2564C150.216 94.2308 150.433 94.1413 150.638 94.0261C150.843 93.9109 151.022 93.7445 151.176 93.5781C151.009 93.8085 150.856 93.9493 150.664 94.0773C150.459 94.2052 150.254 94.2948 149.986 94.3332C149.742 94.3588 149.499 94.346 149.269 94.282C149.051 94.2308 148.821 94.1413 148.629 94.0005Z" fill="#D19369"/>
<path d="M148.414 90.2571C148.196 90.2187 147.992 90.1931 147.787 90.1931C147.582 90.1931 147.39 90.2059 147.211 90.2571C147.032 90.3083 146.853 90.3723 146.686 90.4874C146.456 90.6154 146.302 90.769 146.174 90.8586C146.251 90.6666 146.366 90.4363 146.533 90.3083C146.699 90.1419 146.904 90.0395 147.134 89.9755C147.365 89.9115 147.595 89.9115 147.813 89.9627C148.043 90.0139 148.248 90.1035 148.414 90.2571Z" fill="#5E2E0D"/>
<path d="M150.066 89.9815C150.169 89.7895 150.335 89.6231 150.527 89.5079C150.719 89.3927 150.949 89.316 151.18 89.3032C151.41 89.2904 151.653 89.3288 151.858 89.4311C152.063 89.5079 152.242 89.6871 152.383 89.8407C152.229 89.8023 152.05 89.7127 151.781 89.6615C151.589 89.6103 151.397 89.6103 151.205 89.6103C151.013 89.6231 150.821 89.6615 150.642 89.7255C150.45 89.7895 150.258 89.8791 150.066 89.9815Z" fill="#5E2E0D"/>
<path d="M149.347 90.5117C149.539 90.6909 149.718 90.8957 149.884 91.1004C150.05 91.3052 150.204 91.5228 150.345 91.7532C150.422 91.8939 150.524 92.0731 150.55 92.2395C150.562 92.3291 150.562 92.4059 150.409 92.5595C150.319 92.6618 150.204 92.7386 150.089 92.8154C149.974 92.8922 149.858 92.9562 149.743 93.0202C149.948 92.841 150.153 92.6746 150.306 92.4827C150.332 92.4571 150.383 92.3803 150.396 92.3419C150.409 92.3163 150.383 92.2523 150.37 92.1883C150.332 92.0731 150.268 91.9579 150.204 91.8428C150.076 91.6124 149.922 91.3948 149.782 91.1772C149.641 90.9597 149.487 90.7421 149.347 90.5117Z" fill="#D19369"/>
<path d="M152.626 85.5295C152.626 85.5295 154.034 85.2607 152.306 84.4161C150.578 83.5714 146.342 83.0722 144.128 84.9664C144.128 84.9664 143.386 84.0065 142.72 84.4289C142.055 84.8512 143.411 85.3119 143.411 85.3119C143.411 85.3119 142.477 85.4911 142.298 86.0159C142.17 86.3998 142.733 86.2846 143.04 86.195C142.528 86.3998 141.043 87.8204 142.976 91.6727C143.322 91.5063 145.536 88.3452 145.536 88.3452C145.536 88.3452 150.002 89.817 149.183 88.6011C149.183 88.6011 154.379 89.9065 153.125 87.5517C153.125 87.5389 155.045 87.2573 152.626 85.5295Z" fill="#5E2E0D"/>
<path d="M142.973 91.6758C142.973 91.6758 143.306 91.4199 143.818 91.6118C144.329 91.8038 144.662 92.9557 144.662 92.9557C144.662 92.9557 146.352 94.3379 145.52 88.3226C144.713 82.4226 143.6 89.3081 143.6 89.3081L142.973 91.6758Z" fill="#5E2E0D"/>
<path d="M140.532 73.1902L148.236 72.6398C148.62 72.6142 148.915 72.2687 148.889 71.8847C148.863 71.5008 148.518 71.2064 148.134 71.232L140.429 71.7823C140.045 71.8079 139.751 72.1535 139.777 72.5374C139.802 72.9214 140.148 73.2158 140.532 73.1902Z" fill="#3797DB"/>
<path d="M142.758 50L140.057 56.604L133.108 58.127L138.547 62.7216L137.843 69.8119L143.897 66.0491L150.424 68.916L148.722 61.9921L153.457 56.6679L146.354 56.156L142.758 50Z" fill="#3797DB"/>
<path d="M142.763 50L143.441 59.6884L140.063 56.604L142.763 50Z" fill="#3B77BE"/>
<path d="M133.113 58.1289L143.441 59.6903L138.552 62.7235L133.113 58.1289Z" fill="#3B77BE"/>
<path d="M143.44 59.6888L146.358 56.1564L153.461 56.6684L143.44 59.6888Z" fill="#3B77BE"/>
<path d="M150.43 68.9151L143.442 59.6875L148.728 61.9912L150.43 68.9151Z" fill="#3B77BE"/>
<path d="M137.845 69.811L143.438 59.6875L143.898 66.0483L137.845 69.811Z" fill="#3B77BE"/>
<path d="M138.536 73.4856L150.23 72.6523L150.523 76.7631L138.829 77.5963L138.536 73.4856Z" fill="#3B77BE"/>
<path d="M150.495 76.3071L150.527 76.7539L138.833 77.5875L138.802 77.1407L150.495 76.3071Z" fill="#CDD6E0"/>
<path d="M150.222 72.5297L150.254 72.9766L138.56 73.8102L138.528 73.3634L150.222 72.5297Z" fill="#CDD6E0"/>
<path d="M138.649 73.6753L150.168 72.8562C150.462 72.8306 150.68 72.5874 150.654 72.2931C150.629 71.9987 150.385 71.7811 150.091 71.8067L138.573 72.6258C138.278 72.6514 138.061 72.8946 138.086 73.189C138.099 73.4705 138.355 73.6881 138.649 73.6753Z" fill="#3B77BE"/>
<path d="M138.686 78.5542L150.972 77.6839C151.049 77.6839 151.113 77.6071 151.1 77.5303L151.049 76.7624C151.049 76.6856 150.972 76.6217 150.895 76.6345L138.609 77.5047C138.532 77.5047 138.468 77.5815 138.481 77.6583L138.532 78.4262C138.545 78.503 138.609 78.567 138.686 78.5542Z" fill="#3797DB"/>
<path d="M142.434 76.2497L146.888 75.9297C147.438 75.8913 147.86 75.405 147.822 74.8547C147.783 74.3043 147.297 73.882 146.747 73.9204L142.293 74.2404C141.743 74.2787 141.32 74.7651 141.359 75.3154C141.397 75.8657 141.883 76.2881 142.434 76.2497Z" fill="#3797DB"/>
<path d="M146.854 75.5986C147.251 75.573 147.545 75.2018 147.468 74.8051C147.404 74.4723 147.084 74.242 146.739 74.2676L142.349 74.5747C142.003 74.6003 141.722 74.8691 141.696 75.2146C141.671 75.6242 142.016 75.9441 142.413 75.9186L146.854 75.5986Z" fill="#D9D9D9"/>
<path d="M143.073 72.0109L145.543 71.8317L145.53 71.6014C145.466 70.6671 145.364 68.7345 143.892 66.0469C142.779 69.1185 142.996 70.8463 143.06 71.7805L143.073 72.0109Z" fill="#3797DB"/>
<defs>
<filter id="filter0_d_149_16699" x="0" y="0" width="296" height="296" filterUnits="userSpaceOnUse" color-interpolation-filters="sRGB">
<feFlood flood-opacity="0" result="BackgroundImageFix"/>
<feColorMatrix in="SourceAlpha" type="matrix" values="0 0 0 0 0 0 0 0 0 0 0 0 0 0 0 0 0 0 127 0" result="hardAlpha"/>
<feOffset dy="4"/>
<feGaussianBlur stdDeviation="4"/>
<feComposite in2="hardAlpha" operator="out"/>
<feColorMatrix type="matrix" values="0 0 0 0 0.0705882 0 0 0 0 0.490196 0 0 0 0 0.654902 0 0 0 0.02 0"/>
<feBlend mode="normal" in2="BackgroundImageFix" result="effect1_dropShadow_149_16699"/>
<feBlend mode="normal" in="SourceGraphic" in2="effect1_dropShadow_149_16699" result="shape"/>
</filter>
<filter id="filter1_d_149_16699" x="60.3756" y="234.602" width="177.988" height="10.2013" filterUnits="userSpaceOnUse" color-interpolation-filters="sRGB">
<feFlood flood-opacity="0" result="BackgroundImageFix"/>
<feColorMatrix in="SourceAlpha" type="matrix" values="0 0 0 0 0 0 0 0 0 0 0 0 0 0 0 0 0 0 127 0" result="hardAlpha"/>
<feOffset dy="2"/>
<feGaussianBlur stdDeviation="2"/>
<feComposite in2="hardAlpha" operator="out"/>
<feColorMatrix type="matrix" values="0 0 0 0 0.204167 0 0 0 0 0.168801 0 0 0 0 0.0204167 0 0 0 0.12 0"/>
<feBlend mode="normal" in2="BackgroundImageFix" result="effect1_dropShadow_149_16699"/>
<feBlend mode="normal" in="SourceGraphic" in2="effect1_dropShadow_149_16699" result="shape"/>
</filter>
<linearGradient id="paint0_linear_149_16699" x1="783" y1="144" x2="157.5" y2="144" gradientUnits="userSpaceOnUse">
<stop stop-color="#0B76A0"/>
<stop offset="1" stop-color="#1681AB"/>
</linearGradient>
</defs>
</svg>
