<svg width="783" height="296" viewBox="0 0 783 296" fill="none" xmlns="http://www.w3.org/2000/svg">
<path d="M599 62C599 56.4772 594.523 52 589 52H68.4724C65.036 52 61.8403 53.7644 60.0096 56.6726L3.3537 146.673C1.30408 149.928 1.30402 154.072 3.35364 157.327L60.0096 247.327C61.8403 250.236 65.036 252 68.4724 252H589C594.523 252 599 247.523 599 242V62Z" fill="url(#paint0_linear_149_16852)"/>
<path d="M599 112C599 106.477 594.523 102 589 102H123.867C120.786 102 117.876 103.421 115.981 105.851L84.7941 145.851C81.9757 149.466 81.9757 154.534 84.7941 158.149L115.981 198.149C117.876 200.579 120.786 202 123.867 202H589C594.523 202 599 197.523 599 192V112Z" fill="white"/>
<path d="M167.117 143.52V154.72C167.117 157.24 166.445 159.135 165.101 160.404C163.757 161.655 161.797 162.28 159.221 162.28C156.645 162.28 154.685 161.655 153.341 160.404C151.997 159.135 151.325 157.24 151.325 154.72V143.52H155.189V154.552C155.189 156.101 155.516 157.249 156.169 157.996C156.841 158.743 157.859 159.116 159.221 159.116C160.584 159.116 161.592 158.743 162.245 157.996C162.899 157.249 163.225 156.101 163.225 154.552V143.52H167.117ZM171.094 162V148H174.538L174.762 152.2L174.286 151.752C174.51 150.837 174.865 150.081 175.35 149.484C175.835 148.887 176.423 148.448 177.114 148.168C177.823 147.869 178.598 147.72 179.438 147.72C180.409 147.72 181.267 147.907 182.014 148.28C182.779 148.653 183.377 149.223 183.806 149.988C184.254 150.735 184.478 151.677 184.478 152.816V162H180.642V153.908C180.642 152.713 180.409 151.892 179.942 151.444C179.475 150.977 178.869 150.744 178.122 150.744C177.599 150.744 177.086 150.875 176.582 151.136C176.097 151.379 175.695 151.78 175.378 152.34C175.079 152.9 174.93 153.647 174.93 154.58V162H171.094ZM190.362 145.984C189.559 145.984 188.962 145.816 188.57 145.48C188.178 145.125 187.982 144.612 187.982 143.94C187.982 143.249 188.178 142.736 188.57 142.4C188.962 142.045 189.559 141.868 190.362 141.868C191.165 141.868 191.762 142.045 192.154 142.4C192.546 142.736 192.742 143.249 192.742 143.94C192.742 144.612 192.546 145.125 192.154 145.48C191.762 145.816 191.165 145.984 190.362 145.984ZM192.266 148V162H188.43V148H192.266ZM206.02 167.88V157.632L206.468 158.136C206.338 158.976 206.048 159.704 205.6 160.32C205.152 160.936 204.583 161.421 203.892 161.776C203.22 162.112 202.464 162.28 201.624 162.28C200.467 162.28 199.431 161.991 198.516 161.412C197.62 160.833 196.911 160.003 196.388 158.92C195.884 157.819 195.632 156.503 195.632 154.972C195.632 153.423 195.894 152.116 196.416 151.052C196.958 149.969 197.695 149.148 198.628 148.588C199.562 148.009 200.607 147.72 201.764 147.72C202.623 147.72 203.398 147.907 204.088 148.28C204.779 148.635 205.348 149.148 205.796 149.82C206.244 150.473 206.534 151.229 206.664 152.088L206.16 152.368L206.412 148H209.856V167.88H206.02ZM202.744 159.34C203.416 159.34 203.995 159.172 204.48 158.836C204.966 158.481 205.339 157.977 205.6 157.324C205.88 156.652 206.02 155.859 206.02 154.944C206.02 154.011 205.88 153.227 205.6 152.592C205.339 151.957 204.966 151.481 204.48 151.164C203.995 150.828 203.426 150.66 202.772 150.66C201.746 150.66 200.934 151.033 200.336 151.78C199.758 152.508 199.468 153.581 199.468 155C199.468 156.419 199.758 157.501 200.336 158.248C200.915 158.976 201.718 159.34 202.744 159.34ZM218.759 162.28C217.826 162.28 216.986 162.112 216.239 161.776C215.492 161.44 214.895 160.908 214.447 160.18C214.018 159.433 213.803 158.472 213.803 157.296V148H217.639V156.372C217.639 157.455 217.863 158.211 218.311 158.64C218.759 159.051 219.403 159.256 220.243 159.256C220.635 159.256 221.018 159.191 221.391 159.06C221.764 158.911 222.091 158.687 222.371 158.388C222.67 158.089 222.903 157.707 223.071 157.24C223.239 156.755 223.323 156.185 223.323 155.532V148H227.159V162H223.743L223.603 159.564C223.136 160.497 222.492 161.188 221.671 161.636C220.868 162.065 219.898 162.28 218.759 162.28ZM237.692 162.28C236.217 162.28 234.929 161.991 233.828 161.412C232.745 160.833 231.905 160.003 231.308 158.92C230.71 157.837 230.412 156.531 230.412 155C230.412 153.469 230.71 152.163 231.308 151.08C231.905 149.997 232.736 149.167 233.8 148.588C234.882 148.009 236.114 147.72 237.496 147.72C238.914 147.72 240.118 148.009 241.108 148.588C242.097 149.148 242.853 149.923 243.376 150.912C243.898 151.883 244.16 152.993 244.16 154.244C244.16 154.617 244.15 154.972 244.132 155.308C244.113 155.644 244.085 155.943 244.048 156.204H232.876V153.544H242.368L240.52 154.216C240.52 153.04 240.249 152.135 239.708 151.5C239.185 150.865 238.438 150.548 237.468 150.548C236.758 150.548 236.142 150.716 235.62 151.052C235.116 151.388 234.733 151.892 234.472 152.564C234.21 153.217 234.08 154.048 234.08 155.056C234.08 156.045 234.22 156.867 234.5 157.52C234.798 158.155 235.209 158.631 235.732 158.948C236.273 159.265 236.917 159.424 237.664 159.424C238.485 159.424 239.148 159.265 239.652 158.948C240.156 158.631 240.548 158.192 240.828 157.632L243.88 158.808C243.581 159.536 243.124 160.161 242.508 160.684C241.91 161.207 241.192 161.608 240.352 161.888C239.53 162.149 238.644 162.28 237.692 162.28ZM263.109 143.24C264.789 143.24 266.264 143.529 267.533 144.108C268.802 144.687 269.885 145.545 270.781 146.684L268.625 149.176C267.86 148.205 267.02 147.496 266.105 147.048C265.209 146.581 264.164 146.348 262.969 146.348C262.185 146.348 261.532 146.451 261.009 146.656C260.505 146.861 260.132 147.132 259.889 147.468C259.665 147.804 259.553 148.177 259.553 148.588C259.553 149.092 259.749 149.521 260.141 149.876C260.533 150.212 261.205 150.492 262.157 150.716L265.601 151.5C267.43 151.911 268.737 152.527 269.521 153.348C270.324 154.151 270.725 155.196 270.725 156.484C270.725 157.697 270.408 158.743 269.773 159.62C269.138 160.479 268.252 161.141 267.113 161.608C265.974 162.056 264.668 162.28 263.193 162.28C261.905 162.28 260.72 162.131 259.637 161.832C258.573 161.515 257.621 161.085 256.781 160.544C255.941 160.003 255.241 159.377 254.681 158.668L256.865 156.064C257.294 156.661 257.826 157.193 258.461 157.66C259.096 158.127 259.814 158.5 260.617 158.78C261.438 159.041 262.297 159.172 263.193 159.172C263.958 159.172 264.602 159.088 265.125 158.92C265.666 158.733 266.068 158.481 266.329 158.164C266.609 157.828 266.749 157.427 266.749 156.96C266.749 156.475 266.581 156.064 266.245 155.728C265.928 155.373 265.33 155.103 264.453 154.916L260.701 154.076C259.618 153.815 258.685 153.479 257.901 153.068C257.136 152.639 256.548 152.097 256.137 151.444C255.745 150.772 255.549 149.979 255.549 149.064C255.549 147.963 255.848 146.973 256.445 146.096C257.042 145.219 257.901 144.528 259.021 144.024C260.16 143.501 261.522 143.24 263.109 143.24ZM280.485 162.28C279.01 162.28 277.722 161.991 276.621 161.412C275.538 160.833 274.698 160.003 274.101 158.92C273.503 157.837 273.205 156.531 273.205 155C273.205 153.469 273.503 152.163 274.101 151.08C274.698 149.997 275.529 149.167 276.593 148.588C277.675 148.009 278.907 147.72 280.289 147.72C281.707 147.72 282.911 148.009 283.901 148.588C284.89 149.148 285.646 149.923 286.169 150.912C286.691 151.883 286.953 152.993 286.953 154.244C286.953 154.617 286.943 154.972 286.925 155.308C286.906 155.644 286.878 155.943 286.841 156.204H275.669V153.544H285.161L283.313 154.216C283.313 153.04 283.042 152.135 282.501 151.5C281.978 150.865 281.231 150.548 280.261 150.548C279.551 150.548 278.935 150.716 278.413 151.052C277.909 151.388 277.526 151.892 277.265 152.564C277.003 153.217 276.873 154.048 276.873 155.056C276.873 156.045 277.013 156.867 277.293 157.52C277.591 158.155 278.002 158.631 278.525 158.948C279.066 159.265 279.71 159.424 280.457 159.424C281.278 159.424 281.941 159.265 282.445 158.948C282.949 158.631 283.341 158.192 283.621 157.632L286.673 158.808C286.374 159.536 285.917 160.161 285.301 160.684C284.703 161.207 283.985 161.608 283.145 161.888C282.323 162.149 281.437 162.28 280.485 162.28ZM293.984 141.868V157.688C293.984 158.341 294.096 158.799 294.32 159.06C294.544 159.321 294.917 159.452 295.44 159.452C295.757 159.452 296.018 159.433 296.224 159.396C296.429 159.34 296.69 159.265 297.008 159.172L296.672 161.692C296.354 161.879 295.953 162.019 295.468 162.112C295.001 162.224 294.534 162.28 294.068 162.28C292.705 162.28 291.706 161.953 291.072 161.3C290.456 160.628 290.148 159.564 290.148 158.108V141.868H293.984ZM305.389 141.588C306.042 141.588 306.63 141.663 307.153 141.812C307.694 141.943 308.096 142.111 308.357 142.316L307.825 144.864C307.62 144.733 307.386 144.631 307.125 144.556C306.864 144.481 306.556 144.444 306.201 144.444C305.473 144.444 304.894 144.612 304.465 144.948C304.036 145.265 303.821 145.816 303.821 146.6V148.532L303.989 149.288V162H300.153V146.32C300.153 145.536 300.284 144.845 300.545 144.248C300.806 143.651 301.17 143.156 301.637 142.764C302.104 142.372 302.654 142.083 303.289 141.896C303.942 141.691 304.642 141.588 305.389 141.588ZM308.245 148V150.856H297.717V148H308.245ZM325.562 143.24C327.242 143.24 328.717 143.529 329.986 144.108C331.256 144.687 332.338 145.545 333.234 146.684L331.078 149.176C330.313 148.205 329.473 147.496 328.558 147.048C327.662 146.581 326.617 146.348 325.422 146.348C324.638 146.348 323.985 146.451 323.462 146.656C322.958 146.861 322.585 147.132 322.342 147.468C322.118 147.804 322.006 148.177 322.006 148.588C322.006 149.092 322.202 149.521 322.594 149.876C322.986 150.212 323.658 150.492 324.61 150.716L328.054 151.5C329.884 151.911 331.19 152.527 331.974 153.348C332.777 154.151 333.178 155.196 333.178 156.484C333.178 157.697 332.861 158.743 332.226 159.62C331.592 160.479 330.705 161.141 329.566 161.608C328.428 162.056 327.121 162.28 325.646 162.28C324.358 162.28 323.173 162.131 322.09 161.832C321.026 161.515 320.074 161.085 319.234 160.544C318.394 160.003 317.694 159.377 317.134 158.668L319.318 156.064C319.748 156.661 320.28 157.193 320.914 157.66C321.549 158.127 322.268 158.5 323.07 158.78C323.892 159.041 324.75 159.172 325.646 159.172C326.412 159.172 327.056 159.088 327.578 158.92C328.12 158.733 328.521 158.481 328.782 158.164C329.062 157.828 329.202 157.427 329.202 156.96C329.202 156.475 329.034 156.064 328.698 155.728C328.381 155.373 327.784 155.103 326.906 154.916L323.154 154.076C322.072 153.815 321.138 153.479 320.354 153.068C319.589 152.639 319.001 152.097 318.59 151.444C318.198 150.772 318.002 149.979 318.002 149.064C318.002 147.963 318.301 146.973 318.898 146.096C319.496 145.219 320.354 144.528 321.474 144.024C322.613 143.501 323.976 143.24 325.562 143.24ZM341.398 143.716V157.436C341.398 158.108 341.566 158.603 341.902 158.92C342.256 159.219 342.732 159.368 343.33 159.368C343.796 159.368 344.207 159.303 344.562 159.172C344.916 159.023 345.234 158.827 345.514 158.584L346.13 161.132C345.682 161.487 345.122 161.767 344.45 161.972C343.778 162.177 343.068 162.28 342.322 162.28C341.388 162.28 340.558 162.14 339.83 161.86C339.12 161.58 338.56 161.132 338.15 160.516C337.758 159.9 337.562 159.079 337.562 158.052V144.78L341.398 143.716ZM345.878 148V150.856H334.986V148H345.878ZM353.345 162.28C352.412 162.28 351.572 162.112 350.825 161.776C350.078 161.44 349.481 160.908 349.033 160.18C348.604 159.433 348.389 158.472 348.389 157.296V148H352.225V156.372C352.225 157.455 352.449 158.211 352.897 158.64C353.345 159.051 353.989 159.256 354.829 159.256C355.221 159.256 355.604 159.191 355.977 159.06C356.35 158.911 356.677 158.687 356.957 158.388C357.256 158.089 357.489 157.707 357.657 157.24C357.825 156.755 357.909 156.185 357.909 155.532V148H361.745V162H358.329L358.189 159.564C357.722 160.497 357.078 161.188 356.257 161.636C355.454 162.065 354.484 162.28 353.345 162.28ZM371.074 162.28C369.916 162.28 368.88 161.991 367.966 161.412C367.07 160.833 366.36 160.003 365.838 158.92C365.334 157.837 365.082 156.54 365.082 155.028C365.082 153.479 365.352 152.163 365.894 151.08C366.435 149.979 367.163 149.148 368.078 148.588C369.011 148.009 370.056 147.72 371.214 147.72C372.446 147.72 373.463 148.075 374.266 148.784C375.068 149.493 375.591 150.408 375.834 151.528L375.47 151.976V141.868H379.306V162H375.862L375.61 157.744L376.086 157.968C375.955 158.845 375.656 159.611 375.19 160.264C374.723 160.899 374.135 161.393 373.426 161.748C372.716 162.103 371.932 162.28 371.074 162.28ZM372.194 159.34C372.866 159.34 373.444 159.172 373.93 158.836C374.415 158.481 374.788 157.968 375.05 157.296C375.33 156.624 375.47 155.821 375.47 154.888C375.47 153.992 375.339 153.236 375.078 152.62C374.816 151.985 374.443 151.5 373.958 151.164C373.472 150.828 372.903 150.66 372.25 150.66C371.204 150.66 370.383 151.033 369.786 151.78C369.207 152.508 368.918 153.581 368.918 155C368.918 156.419 369.207 157.501 369.786 158.248C370.364 158.976 371.167 159.34 372.194 159.34ZM396.496 148L390.84 162.868C390.392 164.137 389.888 165.145 389.328 165.892C388.787 166.639 388.152 167.18 387.424 167.516C386.715 167.852 385.866 168.02 384.876 168.02C384.148 168.02 383.476 167.927 382.86 167.74C382.263 167.572 381.74 167.348 381.292 167.068L382.104 164.296C382.459 164.576 382.832 164.772 383.224 164.884C383.616 165.015 384.064 165.08 384.568 165.08C385.091 165.08 385.539 164.968 385.912 164.744C386.304 164.52 386.631 164.072 386.892 163.4L387.368 162.196L385.828 158.556L381.544 148H385.8L388.46 156.4L389.188 159.2L390.056 156.232L392.604 148H396.496ZM413.664 143.24C415.344 143.24 416.818 143.529 418.088 144.108C419.357 144.687 420.44 145.545 421.336 146.684L419.18 149.176C418.414 148.205 417.574 147.496 416.66 147.048C415.764 146.581 414.718 146.348 413.524 146.348C412.74 146.348 412.086 146.451 411.564 146.656C411.06 146.861 410.686 147.132 410.444 147.468C410.22 147.804 410.108 148.177 410.108 148.588C410.108 149.092 410.304 149.521 410.696 149.876C411.088 150.212 411.76 150.492 412.712 150.716L416.156 151.5C417.985 151.911 419.292 152.527 420.076 153.348C420.878 154.151 421.28 155.196 421.28 156.484C421.28 157.697 420.962 158.743 420.328 159.62C419.693 160.479 418.806 161.141 417.668 161.608C416.529 162.056 415.222 162.28 413.748 162.28C412.46 162.28 411.274 162.131 410.192 161.832C409.128 161.515 408.176 161.085 407.336 160.544C406.496 160.003 405.796 159.377 405.236 158.668L407.42 156.064C407.849 156.661 408.381 157.193 409.016 157.66C409.65 158.127 410.369 158.5 411.172 158.78C411.993 159.041 412.852 159.172 413.748 159.172C414.513 159.172 415.157 159.088 415.68 158.92C416.221 158.733 416.622 158.481 416.884 158.164C417.164 157.828 417.304 157.427 417.304 156.96C417.304 156.475 417.136 156.064 416.8 155.728C416.482 155.373 415.885 155.103 415.008 154.916L411.256 154.076C410.173 153.815 409.24 153.479 408.456 153.068C407.69 152.639 407.102 152.097 406.692 151.444C406.3 150.772 406.104 149.979 406.104 149.064C406.104 147.963 406.402 146.973 407 146.096C407.597 145.219 408.456 144.528 409.576 144.024C410.714 143.501 412.077 143.24 413.664 143.24ZM428.323 141.868V157.688C428.323 158.341 428.435 158.799 428.659 159.06C428.883 159.321 429.257 159.452 429.779 159.452C430.097 159.452 430.358 159.433 430.563 159.396C430.769 159.34 431.03 159.265 431.347 159.172L431.011 161.692C430.694 161.879 430.293 162.019 429.807 162.112C429.341 162.224 428.874 162.28 428.407 162.28C427.045 162.28 426.046 161.953 425.411 161.3C424.795 160.628 424.487 159.564 424.487 158.108V141.868H428.323ZM439.869 147.72C441.287 147.72 442.529 148.009 443.593 148.588C444.675 149.167 445.515 149.997 446.113 151.08C446.729 152.163 447.037 153.469 447.037 155C447.037 156.512 446.729 157.819 446.113 158.92C445.515 160.003 444.675 160.833 443.593 161.412C442.529 161.991 441.287 162.28 439.869 162.28C438.469 162.28 437.227 161.991 436.145 161.412C435.062 160.833 434.213 160.003 433.597 158.92C432.999 157.819 432.701 156.512 432.701 155C432.701 153.469 432.999 152.163 433.597 151.08C434.213 149.997 435.062 149.167 436.145 148.588C437.227 148.009 438.469 147.72 439.869 147.72ZM439.869 150.576C439.159 150.576 438.553 150.744 438.049 151.08C437.563 151.397 437.19 151.883 436.929 152.536C436.667 153.189 436.537 154.011 436.537 155C436.537 155.989 436.667 156.811 436.929 157.464C437.19 158.117 437.563 158.612 438.049 158.948C438.553 159.265 439.159 159.424 439.869 159.424C440.559 159.424 441.147 159.265 441.633 158.948C442.137 158.612 442.519 158.117 442.781 157.464C443.042 156.811 443.173 155.989 443.173 155C443.173 154.011 443.042 153.189 442.781 152.536C442.519 151.883 442.137 151.397 441.633 151.08C441.147 150.744 440.559 150.576 439.869 150.576ZM455.066 143.716V157.436C455.066 158.108 455.234 158.603 455.57 158.92C455.924 159.219 456.4 159.368 456.998 159.368C457.464 159.368 457.875 159.303 458.23 159.172C458.584 159.023 458.902 158.827 459.182 158.584L459.798 161.132C459.35 161.487 458.79 161.767 458.118 161.972C457.446 162.177 456.736 162.28 455.99 162.28C455.056 162.28 454.226 162.14 453.498 161.86C452.788 161.58 452.228 161.132 451.818 160.516C451.426 159.9 451.23 159.079 451.23 158.052V144.78L455.066 143.716ZM459.546 148V150.856H448.654V148H459.546ZM467.741 162.28C466.322 162.28 465.025 162.028 463.849 161.524C462.692 161.02 461.749 160.311 461.021 159.396L463.233 157.156C463.681 157.828 464.278 158.379 465.025 158.808C465.772 159.237 466.658 159.452 467.685 159.452C468.413 159.452 468.992 159.349 469.421 159.144C469.869 158.92 470.093 158.575 470.093 158.108C470.093 157.809 469.99 157.557 469.785 157.352C469.58 157.128 469.169 156.951 468.553 156.82L466.089 156.316C464.465 155.98 463.308 155.476 462.617 154.804C461.945 154.113 461.609 153.227 461.609 152.144C461.609 151.379 461.833 150.66 462.281 149.988C462.748 149.316 463.438 148.775 464.353 148.364C465.268 147.935 466.406 147.72 467.769 147.72C469.169 147.72 470.382 147.944 471.409 148.392C472.454 148.821 473.276 149.465 473.873 150.324L471.577 152.564C471.166 151.911 470.625 151.416 469.953 151.08C469.3 150.725 468.609 150.548 467.881 150.548C467.358 150.548 466.91 150.604 466.537 150.716C466.164 150.828 465.884 150.987 465.697 151.192C465.51 151.379 465.417 151.621 465.417 151.92C465.417 152.219 465.548 152.48 465.809 152.704C466.07 152.909 466.546 153.087 467.237 153.236L470.093 153.824C471.474 154.104 472.464 154.58 473.061 155.252C473.658 155.905 473.957 156.699 473.957 157.632C473.957 158.528 473.714 159.331 473.229 160.04C472.762 160.731 472.062 161.281 471.129 161.692C470.214 162.084 469.085 162.28 467.741 162.28Z" fill="#3D3D3D"/>
<g filter="url(#filter0_d_149_16852)">
<circle cx="635" cy="152" r="140" fill="white"/>
</g>
<path d="M753 214.492H517V214.61H753V214.492Z" fill="#EBEBEB"/>
<path d="M727.162 219.898H703.137V220.016H727.162V219.898Z" fill="#EBEBEB"/>
<path d="M564.045 218.5H541.762V218.618H564.045V218.5Z" fill="#EBEBEB"/>
<path d="M704.855 217.707H695.797V217.825H704.855V217.707Z" fill="#EBEBEB"/>
<path d="M673.337 220.836H666.691V220.954H673.337V220.836Z" fill="#EBEBEB"/>
<path d="M662.485 220.836H645.758V220.954H662.485V220.836Z" fill="#EBEBEB"/>
<path d="M636.044 218.844H609.145V218.962H636.044V218.844Z" fill="#EBEBEB"/>
<path d="M628.864 193.443H537.725C537.012 193.441 536.327 193.157 535.823 192.651C535.318 192.146 535.035 191.461 535.035 190.747V62.6325C535.041 61.9226 535.327 61.2438 535.831 60.7436C536.335 60.2434 537.016 59.9622 537.725 59.9609H628.864C629.579 59.9609 630.264 60.2449 630.77 60.7503C631.275 61.2558 631.559 61.9413 631.559 62.6561V190.747C631.559 191.462 631.275 192.148 630.77 192.653C630.264 193.159 629.579 193.443 628.864 193.443ZM537.725 60.0553C537.043 60.0566 536.389 60.3287 535.906 60.8118C535.424 61.295 535.153 61.9498 535.153 62.6325V190.747C535.153 191.43 535.424 192.085 535.906 192.568C536.389 193.051 537.043 193.323 537.725 193.325H628.864C629.547 193.323 630.202 193.051 630.685 192.568C631.168 192.085 631.44 191.431 631.441 190.747V62.6325C631.44 61.9493 631.168 61.2946 630.685 60.8115C630.202 60.3285 629.547 60.0566 628.864 60.0553H537.725Z" fill="#EBEBEB"/>
<path d="M730.963 193.443H639.82C639.106 193.441 638.421 193.157 637.916 192.652C637.411 192.147 637.126 191.462 637.125 190.747V62.6325C637.132 61.9222 637.42 61.2434 637.924 60.7433C638.429 60.2432 639.11 59.9621 639.82 59.9609H730.963C731.672 59.9634 732.352 60.2452 732.855 60.7453C733.357 61.2453 733.643 61.9234 733.649 62.6325V190.747C733.649 191.461 733.366 192.145 732.863 192.65C732.36 193.155 731.676 193.44 730.963 193.443ZM639.82 60.0553C639.137 60.0566 638.482 60.3285 637.999 60.8115C637.516 61.2946 637.244 61.9493 637.243 62.6325V190.747C637.244 191.431 637.516 192.085 637.999 192.568C638.482 193.051 639.137 193.323 639.82 193.325H730.963C731.646 193.323 732.301 193.051 732.784 192.568C733.267 192.085 733.539 191.431 733.54 190.747V62.6325C733.539 61.9493 733.267 61.2946 732.784 60.8115C732.301 60.3285 731.646 60.0566 730.963 60.0553H639.82Z" fill="#EBEBEB"/>
<path d="M701.253 74.4375H653.203V214.494H701.253V74.4375Z" fill="#EBEBEB"/>
<path d="M698.012 211.662V77.2695H656.447V211.662H698.012Z" fill="#FAFAFA"/>
<path d="M651.764 74.4375H603.715V214.494H651.764V74.4375Z" fill="#EBEBEB"/>
<path d="M651.764 213.945H653.203V74.9885H651.764V213.945Z" fill="#E0E0E0"/>
<path d="M648.523 211.658V77.2656H606.959V211.658H648.523Z" fill="#FAFAFA"/>
<path d="M723.203 73.3844H581.768C581.602 73.3832 581.443 73.3167 581.326 73.1992C581.208 73.0817 581.142 72.9228 581.141 72.7567C581.142 72.5906 581.208 72.4316 581.326 72.3141C581.443 72.1967 581.602 72.1301 581.768 72.1289H723.203C723.369 72.1301 723.528 72.1967 723.646 72.3141C723.763 72.4316 723.83 72.5906 723.831 72.7567C723.83 72.9228 723.763 73.0817 723.646 73.1992C723.528 73.3167 723.369 73.3832 723.203 73.3844Z" fill="#E0E0E0"/>
<path d="M698.012 79.9458V77.2695H656.447V79.9458H698.012Z" fill="#E0E0E0"/>
<path d="M698.012 81.7779V77.2656H656.447V81.7779H698.012Z" fill="#E0E0E0"/>
<path d="M648.523 87.1257V77.2656H606.959V87.1257H648.523Z" fill="#E0E0E0"/>
<g opacity="0.8">
<path d="M707.424 69.1914H694.113V212.769H707.424V69.1914Z" fill="#F5F5F5"/>
<path d="M703.911 69.1914H697.629V212.769H703.911V69.1914Z" fill="#F0F0F0"/>
<path d="M714.564 69.1914H701.254V212.769H714.564V69.1914Z" fill="#F5F5F5"/>
<path d="M711.052 69.1914H704.77V212.769H711.052V69.1914Z" fill="#F0F0F0"/>
<path d="M721.221 69.1914H707.91V212.769H721.221V69.1914Z" fill="#F5F5F5"/>
</g>
<g opacity="0.8">
<path d="M602.651 69.1914H583.332V212.769H602.651V69.1914Z" fill="#F5F5F5"/>
<path d="M597.549 69.1914H588.43V212.769H597.549V69.1914Z" fill="#F0F0F0"/>
<path d="M613.01 69.1914H593.691V212.769H613.01V69.1914Z" fill="#F5F5F5"/>
<path d="M607.908 69.1914H598.789V212.769H607.908V69.1914Z" fill="#F0F0F0"/>
<path d="M622.667 69.1914H603.348V212.769H622.667V69.1914Z" fill="#F5F5F5"/>
</g>
<path d="M574.158 83.9062H542.992V154.078H574.158V83.9062Z" fill="#F0F0F0"/>
<path d="M574.159 154.082H575.141V83.9098H574.159V154.082Z" fill="#E6E6E6"/>
<path d="M571.328 151.247V86.7383H545.826V151.247H571.328Z" fill="#FAFAFA"/>
<path d="M576.122 188.848H544.13C543.426 188.847 542.752 188.567 542.254 188.07C541.756 187.573 541.475 186.899 541.473 186.196C541.475 185.492 541.756 184.818 542.254 184.321C542.752 183.824 543.426 183.544 544.13 183.543H576.122C576.825 183.545 577.498 183.826 577.995 184.323C578.492 184.82 578.772 185.493 578.775 186.196C578.772 186.898 578.492 187.572 577.995 188.069C577.498 188.565 576.825 188.846 576.122 188.848Z" fill="#F5F5F5"/>
<path d="M551.826 188.852H546.572L540.602 214.495H545.85L551.826 188.852Z" fill="#E6E6E6"/>
<path d="M562.302 188.852H557.054L554.113 214.495H559.362L562.302 188.852Z" fill="#E6E6E6"/>
<path d="M568.43 188.852H573.678L579.654 214.495H574.4L568.43 188.852Z" fill="#E6E6E6"/>
<path d="M635 235.807C685.543 235.807 726.517 233.415 726.517 230.464C726.517 227.513 685.543 225.121 635 225.121C584.458 225.121 543.484 227.513 543.484 230.464C543.484 233.415 584.458 235.807 635 235.807Z" fill="#F5F5F5"/>
<path d="M665.479 174.828H625.203C624.439 174.828 623.82 175.447 623.82 176.211V177.797C623.82 178.561 624.439 179.18 625.203 179.18H665.479C666.243 179.18 666.862 178.561 666.862 177.797V176.211C666.862 175.447 666.243 174.828 665.479 174.828Z" fill="#263238"/>
<path d="M665.096 227.635H666.861L664.832 179.18H662.387L665.096 227.635Z" fill="#2A95BF"/>
<path opacity="0.6" d="M665.096 227.635H666.861L664.832 179.18H662.387L665.096 227.635Z" fill="white"/>
<path d="M648.843 227.635H647.078L649.108 179.18H651.553L648.843 227.635Z" fill="#2A95BF"/>
<path opacity="0.6" d="M648.843 227.635H647.078L649.108 179.18H651.553L648.843 227.635Z" fill="white"/>
<path d="M641.842 227.635H643.607L641.573 179.18H639.133L641.842 227.635Z" fill="#2A95BF"/>
<path opacity="0.6" d="M641.842 227.635H643.607L641.573 179.18H639.133L641.842 227.635Z" fill="white"/>
<path d="M625.586 227.635H623.82L625.855 179.18H628.295L625.586 227.635Z" fill="#2A95BF"/>
<path opacity="0.6" d="M625.586 227.635H623.82L625.855 179.18H628.295L625.586 227.635Z" fill="white"/>
<g opacity="0.3">
<path d="M664.832 179.176H662.387L662.5 181.238H664.917L664.832 179.176Z" fill="#55AACC"/>
<path d="M649.027 181.238H651.439L651.557 179.176H649.112L649.027 181.238Z" fill="#55AACC"/>
<path d="M639.133 179.176L639.246 181.238H641.663L641.573 179.176H639.133Z" fill="#55AACC"/>
<path d="M625.766 181.238H628.187L628.3 179.176H625.855L625.766 181.238Z" fill="#7873B8"/>
</g>
<path d="M640.704 220.512L636.711 222.636L630.414 214.136L634.412 212.012L640.704 220.512Z" fill="#FFB573"/>
<path d="M635.264 221.322L639.437 218.424C639.471 218.395 639.511 218.374 639.554 218.361C639.597 218.348 639.642 218.345 639.686 218.35C639.731 218.356 639.774 218.371 639.812 218.394C639.85 218.418 639.883 218.449 639.909 218.486L642.406 221.643C642.526 221.817 642.573 222.032 642.536 222.24C642.5 222.448 642.384 222.634 642.212 222.757C640.744 223.739 640.083 224.084 638.162 225.226C636.978 225.924 634.146 227.586 632.404 228.346C630.662 229.106 629.964 227.359 630.634 226.883C632.225 225.759 634.33 223.55 634.806 221.997C634.88 221.728 635.041 221.49 635.264 221.322Z" fill="#263238"/>
<path opacity="0.2" d="M634.417 212.016L630.414 214.135L633.449 218.232L637.357 215.985L634.417 212.016Z" fill="black"/>
<path d="M644.059 161.665C644.059 161.665 613.03 160.697 612.907 173.663C612.756 192.298 630.442 216.771 630.442 216.771L637.362 212.169C637.362 212.169 625.241 194.379 625.137 179.832C634.279 177.25 655.817 178.888 658.606 171.289C660.891 165.087 659.697 161.665 659.697 161.665H644.059Z" fill="#2A95BF"/>
<path opacity="0.2" d="M644.059 161.665C644.059 161.665 613.03 160.697 612.907 173.663C612.756 192.298 630.442 216.771 630.442 216.771L637.362 212.169C637.362 212.169 625.241 194.379 625.137 179.832C634.279 177.25 655.817 178.888 658.606 171.289C660.891 165.087 659.697 161.665 659.697 161.665H644.059Z" fill="#2A95BF"/>
<path d="M639.239 213.35L631.008 218.391L628.426 215.771L637.469 210.074L639.239 213.35Z" fill="#263238"/>
<path d="M634.402 222.887C634.732 222.648 635.033 222.373 635.299 222.065C635.313 222.05 635.322 222.031 635.326 222.011C635.329 221.991 635.326 221.97 635.318 221.951C635.309 221.932 635.295 221.917 635.277 221.906C635.26 221.895 635.239 221.89 635.219 221.891C635.044 221.891 633.496 221.891 633.166 222.396C633.128 222.452 633.105 222.517 633.099 222.585C633.093 222.653 633.105 222.721 633.133 222.783C633.164 222.881 633.22 222.969 633.297 223.037C633.373 223.106 633.466 223.154 633.567 223.175C633.871 223.185 634.169 223.082 634.402 222.887ZM634.973 222.108C634.402 222.703 633.897 223.019 633.605 222.967C633.539 222.952 633.479 222.92 633.43 222.873C633.382 222.827 633.348 222.768 633.331 222.703C633.313 222.674 633.304 222.642 633.304 222.608C633.304 222.575 633.313 222.542 633.331 222.514C633.52 222.249 634.355 222.131 634.973 222.108Z" fill="#7873B8"/>
<path d="M635.28 222.082C635.293 222.072 635.304 222.059 635.313 222.044C635.322 222.029 635.327 222.011 635.327 221.992C635.327 221.974 635.322 221.956 635.313 221.941C635.284 221.893 634.624 220.77 634.001 220.666C633.917 220.65 633.83 220.654 633.748 220.678C633.666 220.701 633.591 220.744 633.529 220.803C633.457 220.856 633.406 220.931 633.382 221.016C633.358 221.102 633.363 221.193 633.396 221.275C633.595 221.747 634.685 222.129 635.209 222.096L635.28 222.082ZM633.727 220.912C633.761 220.886 633.8 220.868 633.841 220.858C633.883 220.849 633.926 220.847 633.968 220.855C634.34 220.916 634.794 221.506 635.03 221.865C634.515 221.818 633.741 221.487 633.614 221.181C633.59 221.124 633.576 221.044 633.694 220.94C633.703 220.949 633.713 220.935 633.727 220.912Z" fill="#7873B8"/>
<path d="M633.318 225.721L628.834 225.509L628.098 214.922L632.582 215.134L633.318 225.721Z" fill="#FFB573"/>
<path d="M628.727 224.747L633.801 224.587C633.886 224.58 633.971 224.608 634.037 224.664C634.102 224.719 634.143 224.799 634.15 224.884L634.523 228.892C634.531 229.104 634.454 229.31 634.31 229.466C634.166 229.621 633.966 229.714 633.754 229.722C631.988 229.722 631.139 229.67 628.906 229.722C627.533 229.765 624.833 229.968 622.949 229.722C621.066 229.477 621.354 227.631 622.171 227.56C624.111 227.405 626.711 226.064 627.957 225.021C628.177 224.848 628.447 224.751 628.727 224.747Z" fill="#263238"/>
<path d="M627.152 225.583C627.558 225.561 627.96 225.495 628.351 225.385C628.371 225.38 628.388 225.369 628.402 225.354C628.416 225.339 628.424 225.32 628.428 225.3C628.431 225.28 628.428 225.259 628.419 225.241C628.41 225.222 628.397 225.207 628.379 225.196C628.233 225.102 626.926 224.252 626.383 224.497C626.321 224.525 626.267 224.567 626.225 224.621C626.184 224.674 626.157 224.737 626.147 224.804C626.119 224.903 626.118 225.008 626.143 225.107C626.169 225.207 626.221 225.298 626.293 225.371C626.542 225.548 626.849 225.623 627.152 225.583ZM628.054 225.243C627.251 225.427 626.638 225.423 626.439 225.22C626.393 225.171 626.361 225.11 626.345 225.045C626.329 224.98 626.331 224.911 626.35 224.847C626.354 224.814 626.366 224.783 626.386 224.756C626.406 224.73 626.433 224.709 626.463 224.696C626.756 224.568 627.52 224.922 628.054 225.243Z" fill="#7873B8"/>
<path d="M628.327 225.389C628.343 225.393 628.359 225.393 628.375 225.389C628.39 225.38 628.403 225.368 628.412 225.353C628.421 225.338 628.426 225.321 628.427 225.304C628.427 225.247 628.493 223.944 628.021 223.52C627.959 223.46 627.884 223.417 627.801 223.394C627.719 223.371 627.632 223.369 627.549 223.387C627.458 223.392 627.372 223.428 627.305 223.488C627.237 223.548 627.192 223.629 627.176 223.718C627.086 224.19 627.789 225.134 628.247 225.389C628.273 225.397 628.301 225.397 628.327 225.389ZM627.652 223.576C627.694 223.574 627.736 223.58 627.775 223.595C627.814 223.609 627.849 223.632 627.879 223.661C628.162 223.916 628.219 224.657 628.224 225.077C627.818 224.756 627.346 224.058 627.407 223.732C627.407 223.671 627.45 223.595 627.601 223.571L627.652 223.576Z" fill="#7873B8"/>
<path opacity="0.2" d="M632.586 215.134L628.098 214.922L628.518 220.978L632.992 220.973L632.586 215.134Z" fill="black"/>
<path d="M655.093 161.664C655.093 161.664 622.629 164.732 623.809 174.507C625.517 188.601 626.358 218.979 626.358 218.979L634.632 219.305C634.632 219.305 638.139 191.929 636.326 177.471C644.728 177.471 665.298 178.075 667.171 173.016C668.828 168.541 668.238 161.688 668.238 161.688L655.093 161.664Z" fill="#55AACC"/>
<path d="M635.547 219.814L625.617 219.324L625.258 215L636.152 215.75L635.547 219.814Z" fill="#263238"/>
<path d="M647.891 133.033C647.829 133.826 647.768 134.515 647.678 135.242C647.588 135.969 647.494 136.658 647.381 137.394C647.159 138.81 646.876 140.226 646.545 141.675C645.902 144.669 644.856 147.562 643.435 150.275C643.011 151.037 642.523 151.762 641.976 152.442C641.365 153.209 640.643 153.88 639.833 154.433C638.276 155.468 636.474 156.076 634.608 156.199C632.975 156.306 631.334 156.146 629.752 155.727C629.005 155.536 628.27 155.299 627.552 155.019C627.193 154.882 626.844 154.731 626.5 154.547C626.155 154.363 625.834 154.212 625.438 153.999L626.679 150.841L627.58 150.955L628.524 151.049C629.157 151.101 629.78 151.134 630.412 151.134C631.559 151.153 632.703 151.022 633.816 150.742C634.707 150.529 635.532 150.099 636.218 149.492C636.512 149.216 636.775 148.909 637.002 148.576C637.28 148.147 637.53 147.699 637.747 147.235C638.246 146.152 638.655 145.03 638.97 143.879C639.328 142.685 639.616 141.434 639.876 140.16C640.136 138.886 640.348 137.597 640.56 136.299L640.839 134.345C640.924 133.703 641.018 133.014 641.08 132.457L647.891 133.033Z" fill="#FFB573"/>
<path d="M647.92 129.183C644.616 125.978 640.509 127.871 638.876 133.903C637.952 137.123 637.32 140.42 636.988 143.754L647.5 145.925C649.411 140.171 651.318 132.468 647.92 129.183Z" fill="#263238"/>
<path opacity="0.3" d="M644.536 135.747C645.286 135.072 647.42 138.107 648.722 141.85C648.354 143.266 647.934 144.63 647.504 145.909L641.18 144.602C641.685 140.863 642.851 137.267 644.536 135.747Z" fill="black"/>
<path d="M625.968 149.425L623.608 148.523L623.504 153.531C623.504 153.531 627.469 155.245 628.276 153.276L627.993 152.026C627.856 151.475 627.605 150.958 627.256 150.51C626.908 150.062 626.469 149.693 625.968 149.425Z" fill="#FFB573"/>
<path d="M620.822 148.656L619.43 152.856L623.522 153.531L623.626 148.523L620.822 148.656Z" fill="#FFB573"/>
<path d="M624.389 152C624.339 152.001 624.29 151.988 624.248 151.962C624.205 151.936 624.171 151.899 624.148 151.854L619.934 143.74C619.9 143.677 619.893 143.602 619.914 143.533C619.936 143.464 619.983 143.406 620.047 143.372C620.112 143.341 620.186 143.335 620.255 143.357C620.323 143.379 620.381 143.427 620.415 143.49L624.616 151.59C624.649 151.654 624.656 151.728 624.635 151.797C624.614 151.866 624.566 151.924 624.502 151.958C624.468 151.979 624.429 151.994 624.389 152Z" fill="#263238"/>
<path d="M647.527 125.969L652.568 124.553L659.044 124.251C660.027 124.204 660.999 124.482 661.809 125.041C662.619 125.601 663.223 126.411 663.528 127.348C664.76 131.124 665.888 136.561 666.723 141.267C667.667 146.549 668.139 154.483 668.238 161.686H644.058C643.505 146.652 641.594 137.765 640.754 132.846C640.586 131.882 640.739 130.89 641.189 130.022C641.639 129.153 642.362 128.456 643.246 128.037L647.527 125.969Z" fill="#263238"/>
<path opacity="0.3" d="M666.724 141.25C666.073 137.545 665.233 133.373 664.298 129.922C659.989 129.196 657.902 138.645 659.181 143.332C660.461 148.019 667.281 145.177 667.281 145.177C667.121 143.766 666.932 142.44 666.724 141.25Z" fill="black"/>
<path d="M651.71 114.714C652.749 117.263 652.126 121.935 650.077 120.614C648.029 119.292 651.078 113.166 651.71 114.714Z" fill="#263238"/>
<path d="M650.579 116.348L648.62 119.34L645.958 123.413C646.302 123.762 646.58 124.17 646.779 124.617C647.251 125.599 647.671 126.33 645.609 127.737C645.387 127.879 645.211 128.082 645.101 128.321C644.992 128.561 644.953 128.826 644.99 129.087C645.113 129.724 645.745 130.342 647.969 129.951C650.111 129.541 652.066 128.456 653.548 126.854C654.289 126.113 654.119 125.556 653.406 124.787C651.367 122.616 650.763 119.147 650.579 116.348Z" fill="#FFB573"/>
<path opacity="0.2" d="M646.594 122.407L648.227 119.504C648.261 119.579 648.299 119.66 648.34 119.745C648.485 120.103 648.602 120.472 648.689 120.849C648.987 122.138 647.986 123.978 646.886 124.856L646.759 124.606C646.561 124.188 646.307 123.799 646.004 123.45C645.984 123.431 645.962 123.415 645.938 123.403L646.594 122.407Z" fill="black"/>
<path d="M636.792 112.826C636.183 114.199 638.34 118.088 640.808 116.517C643.277 114.945 637.868 110.395 636.792 112.826Z" fill="#263238"/>
<path d="M648.689 130.784C648.656 130.785 648.625 130.773 648.6 130.753C648.575 130.732 648.558 130.703 648.552 130.671C648.373 129.505 647.608 128.783 646.744 127.905C645.649 126.833 644.408 125.616 644.002 123.232C643.996 123.197 644.004 123.161 644.024 123.132C644.044 123.102 644.076 123.083 644.111 123.076C644.146 123.07 644.182 123.078 644.211 123.098C644.24 123.119 644.26 123.15 644.266 123.185C644.663 125.484 645.871 126.668 646.933 127.711C647.806 128.566 648.628 129.373 648.821 130.628C648.825 130.646 648.824 130.664 648.82 130.682C648.816 130.699 648.809 130.716 648.798 130.731C648.788 130.745 648.774 130.758 648.759 130.767C648.743 130.776 648.726 130.782 648.708 130.784H648.689Z" fill="white"/>
<path d="M649.693 111.441C650.637 115.717 651.373 118.176 649.849 120.881C647.545 124.973 641.787 124.416 639.597 120.479C637.624 116.939 636.449 110.539 640.116 107.778C640.937 107.168 641.898 106.775 642.911 106.635C643.924 106.495 644.956 106.614 645.911 106.979C646.866 107.344 647.713 107.945 648.374 108.725C649.035 109.504 649.489 110.439 649.693 111.441Z" fill="#FFB573"/>
<path d="M650.966 114.379C649.493 116.47 645.632 112.633 645.948 110.056C642.116 112.236 637.953 115.149 635.427 112.694C632.51 109.862 633.308 105.803 636.725 105.44C636.121 106.62 639.557 107.144 641.384 105.322C644.476 102.263 649.361 102.9 649.271 105.378C651.627 104.444 654.199 109.787 650.966 114.379Z" fill="#263238"/>
<path d="M648.816 106.071C649.727 105.391 649.122 102.97 647.008 102.262C649.019 102.521 651.1 104.018 648.816 106.071Z" fill="#263238"/>
<path d="M652.329 114.191C652.369 115.169 652.05 116.127 651.432 116.886C650.62 117.853 649.369 117.084 649.072 115.876C648.812 114.795 649.147 113.119 650.214 112.6C651.281 112.081 652.272 112.973 652.329 114.191Z" fill="#FFB573"/>
<path d="M643.559 114.909C643.672 115.254 643.587 115.603 643.361 115.684C643.134 115.764 642.889 115.551 642.752 115.212C642.615 114.872 642.723 114.518 642.95 114.433C643.177 114.348 643.446 114.56 643.559 114.909Z" fill="#263238"/>
<path d="M639.688 116.329C639.806 116.678 639.717 117.027 639.49 117.107C639.263 117.188 638.994 116.975 638.881 116.635C638.768 116.295 638.858 115.941 639.079 115.861C639.301 115.781 639.575 115.984 639.688 116.329Z" fill="#263238"/>
<path d="M641.015 116.129C641.03 117.162 640.91 118.191 640.656 119.192C641.35 119.447 642.115 118.848 642.115 118.848L641.015 116.129Z" fill="#ED893E"/>
<path d="M643.087 120.769C643.489 120.637 643.86 120.424 644.177 120.144C644.494 119.864 644.751 119.523 644.932 119.14C644.944 119.114 644.944 119.084 644.933 119.058C644.923 119.031 644.902 119.01 644.876 118.999C644.849 118.989 644.819 118.99 644.793 119.002C644.767 119.013 644.746 119.034 644.734 119.06C644.531 119.472 644.237 119.832 643.872 120.112C643.508 120.392 643.084 120.585 642.634 120.674C642.619 120.676 642.605 120.681 642.592 120.689C642.579 120.697 642.568 120.707 642.56 120.719C642.551 120.731 642.545 120.745 642.542 120.759C642.538 120.774 642.538 120.789 642.541 120.803C642.544 120.818 642.55 120.832 642.559 120.844C642.567 120.856 642.578 120.867 642.591 120.874C642.603 120.882 642.617 120.887 642.632 120.89C642.647 120.892 642.662 120.891 642.676 120.887C642.816 120.857 642.953 120.817 643.087 120.769Z" fill="#263238"/>
<path d="M643.912 113.41C643.944 113.395 643.972 113.37 643.992 113.339C644.022 113.291 644.032 113.233 644.02 113.177C644.007 113.121 643.974 113.073 643.926 113.042C643.646 112.853 643.325 112.737 642.99 112.702C642.655 112.668 642.316 112.716 642.005 112.844C641.979 112.855 641.955 112.872 641.936 112.893C641.916 112.914 641.901 112.939 641.891 112.966C641.882 112.992 641.878 113.021 641.879 113.05C641.881 113.078 641.888 113.106 641.901 113.132C641.926 113.183 641.971 113.222 642.025 113.24C642.078 113.259 642.137 113.255 642.189 113.231C642.435 113.136 642.7 113.102 642.962 113.131C643.225 113.161 643.476 113.253 643.694 113.401C643.726 113.423 643.763 113.435 643.802 113.437C643.84 113.439 643.878 113.429 643.912 113.41Z" fill="#263238"/>
<path d="M638.924 114.09C638.933 114.055 638.933 114.017 638.924 113.982C638.902 113.93 638.859 113.888 638.806 113.867C638.753 113.846 638.694 113.846 638.641 113.869C638.327 113.99 638.048 114.188 637.829 114.444C637.61 114.701 637.457 115.007 637.386 115.336C637.376 115.392 637.39 115.449 637.422 115.495C637.455 115.541 637.505 115.573 637.56 115.582C637.616 115.591 637.673 115.578 637.719 115.545C637.765 115.513 637.796 115.463 637.806 115.407C637.867 115.15 637.991 114.911 638.165 114.712C638.339 114.513 638.559 114.36 638.806 114.265C638.839 114.248 638.867 114.224 638.888 114.193C638.909 114.162 638.921 114.127 638.924 114.09Z" fill="#263238"/>
<path d="M662.695 127.457C663.167 128.222 663.545 128.911 663.937 129.647C664.328 130.383 664.706 131.101 665.074 131.837C665.82 133.305 666.49 134.816 667.141 136.354C667.793 137.893 668.364 139.479 668.855 141.131C669.392 142.865 669.752 144.649 669.931 146.455C670.026 147.51 669.99 148.572 669.822 149.617C669.715 150.307 669.505 150.977 669.199 151.605C668.846 152.314 668.355 152.946 667.755 153.464C667.215 153.934 666.599 154.307 665.933 154.569C665.374 154.788 664.794 154.946 664.201 155.041C663.2 155.197 662.183 155.224 661.175 155.121C660.275 155.044 659.382 154.901 658.504 154.691C657.665 154.5 656.836 154.267 656.021 153.993C654.419 153.462 652.862 152.803 651.367 152.02L652.561 148.843C655.497 149.4 658.65 149.915 661.298 149.754C661.877 149.724 662.451 149.626 663.007 149.462C663.479 149.32 663.719 149.108 663.701 149.042C663.682 148.976 663.672 149.042 663.663 148.994C663.653 148.947 663.663 148.942 663.663 148.702C663.692 148.171 663.66 147.639 663.568 147.116C663.343 145.769 662.99 144.446 662.516 143.165C662.044 141.796 661.473 140.413 660.854 139.045C660.236 137.676 659.571 136.302 658.896 134.934C658.556 134.248 658.205 133.569 657.843 132.899L656.776 130.922L662.695 127.457Z" fill="#FFB573"/>
<path d="M660.491 124.298C655.931 123.604 653.689 127.517 655.837 133.361C656.946 136.522 658.339 139.575 660 142.484L669.832 138.175C668.043 132.393 665.154 125.011 660.491 124.298Z" fill="#263238"/>
<path d="M650.031 148.408L647.926 149.041L650.914 153.289C650.914 153.289 655.341 151.703 654.435 149.777L653.321 149.144C652.367 148.592 651.159 148.021 650.031 148.408Z" fill="#FFB573"/>
<path d="M646.059 151.969L648.168 154.074L650.911 153.286L647.923 149.043L646.059 151.969Z" fill="#FFB573"/>
<path d="M650.664 115.541C651.039 115.541 651.344 115.173 651.344 114.72C651.344 114.266 651.039 113.898 650.664 113.898C650.289 113.898 649.984 114.266 649.984 114.72C649.984 115.173 650.289 115.541 650.664 115.541Z" fill="white"/>
<path d="M651.222 116.888L650.831 116.874L650.59 114.982L651.336 114.816L651.222 116.888Z" fill="white"/>
<path d="M653.934 152.568C652.518 152.568 651.262 152.356 650.502 151.667C650.219 151.394 649.998 151.062 649.855 150.696C649.713 150.329 649.652 149.936 649.676 149.543C649.719 147.596 650.023 145.665 650.578 143.799C651.234 141.226 651.753 139.197 650.177 136.69C647.665 132.711 648.416 127.146 650.177 123.658C651.522 120.992 651.05 118.018 650.88 116.923C650.856 116.781 650.837 116.668 650.828 116.592C650.826 116.575 650.828 116.557 650.833 116.54C650.838 116.523 650.847 116.507 650.858 116.493C650.869 116.479 650.884 116.468 650.9 116.46C650.915 116.452 650.933 116.447 650.951 116.446C650.986 116.442 651.022 116.452 651.05 116.474C651.078 116.496 651.097 116.529 651.102 116.564C651.102 116.635 651.125 116.744 651.144 116.88C651.323 118.018 651.791 121.034 650.403 123.781C648.68 127.203 647.944 132.655 650.403 136.525C652.041 139.126 651.484 141.311 650.837 143.841C650.294 145.682 649.997 147.586 649.955 149.505C649.929 149.86 649.981 150.216 650.108 150.549C650.234 150.881 650.432 151.182 650.686 151.431C651.961 152.578 654.774 152.285 657.493 152.002C658.71 151.879 659.971 151.747 661.08 151.747C661.116 151.747 661.151 151.761 661.177 151.787C661.202 151.813 661.217 151.848 661.217 151.884C661.217 151.92 661.202 151.955 661.177 151.981C661.151 152.006 661.116 152.021 661.08 152.021C659.985 152.021 658.72 152.148 657.521 152.276C656.331 152.433 655.134 152.531 653.934 152.568Z" fill="white"/>
<path d="M666.729 151.559H661.357C661.201 151.559 661.074 151.685 661.074 151.842V152.219C661.074 152.376 661.201 152.503 661.357 152.503H666.729C666.885 152.503 667.012 152.376 667.012 152.219V151.842C667.012 151.685 666.885 151.559 666.729 151.559Z" fill="white"/>
<path d="M700.436 155.644H569.56C569.144 155.642 568.745 155.476 568.45 155.182C568.156 154.887 567.99 154.488 567.988 154.072C567.99 153.655 568.156 153.256 568.45 152.962C568.745 152.667 569.144 152.501 569.56 152.5H700.436C700.853 152.501 701.252 152.667 701.546 152.962C701.841 153.256 702.007 153.655 702.008 154.072C702.007 154.488 701.841 154.887 701.546 155.182C701.252 155.476 700.853 155.642 700.436 155.644Z" fill="#88C3DB"/>
<path opacity="0.3" d="M700.436 155.644H669.798C669.382 155.642 668.983 155.476 668.688 155.182C668.394 154.887 668.228 154.488 668.227 154.072C668.228 153.655 668.394 153.256 668.688 152.962C668.983 152.667 669.382 152.501 669.798 152.5H700.436C700.852 152.501 701.251 152.667 701.546 152.962C701.84 153.256 702.006 153.655 702.008 154.072C702.006 154.488 701.84 154.887 701.546 155.182C701.251 155.476 700.852 155.642 700.436 155.644Z" fill="#2A95BF"/>
<path d="M698.993 229.701H702.009L698.54 155.645H694.367L698.993 229.701Z" fill="#263238"/>
<path opacity="0.1" d="M698.993 229.701H702.009L698.54 155.645H694.367L698.993 229.701Z" fill="white"/>
<path d="M671.243 229.701H668.227L671.696 155.645H675.868L671.243 229.701Z" fill="#263238"/>
<path opacity="0.2" d="M671.243 229.701H668.227L671.696 155.645H675.868L671.243 229.701Z" fill="white"/>
<path d="M598.759 229.701H601.771L598.301 155.645H594.129L598.759 229.701Z" fill="#263238"/>
<path opacity="0.1" d="M598.759 229.701H601.771L598.301 155.645H594.129L598.759 229.701Z" fill="white"/>
<path d="M571.004 229.701H567.988L571.457 155.645H575.63L571.004 229.701Z" fill="#263238"/>
<path opacity="0.2" d="M571.004 229.701H567.988L571.457 155.645H575.63L571.004 229.701Z" fill="white"/>
<path d="M672.99 159.586H572.336V165.793H672.99V159.586Z" fill="#263238"/>
<path opacity="0.2" d="M672.99 159.586H572.336V165.793H672.99V159.586Z" fill="white"/>
<path d="M588.899 148.328C588.725 148.328 588.557 148.397 588.433 148.52C588.31 148.643 588.24 148.81 588.238 148.984V151.816C588.238 151.992 588.308 152.16 588.432 152.284C588.556 152.408 588.724 152.477 588.899 152.477H610.304C610.361 152.477 610.416 152.455 610.456 152.415C610.497 152.376 610.52 152.322 610.521 152.265V148.517C610.52 148.46 610.497 148.406 610.456 148.367C610.416 148.327 610.361 148.305 610.304 148.305L588.899 148.328Z" fill="#3EA9D3"/>
<path opacity="0.9" d="M601.566 148.723H610.534V152.102H601.566C601.465 152.102 601.367 152.062 601.296 151.99C601.224 151.919 601.184 151.821 601.184 151.72V149.1C601.185 149 601.226 148.904 601.297 148.833C601.369 148.762 601.465 148.723 601.566 148.723Z" fill="white"/>
<path d="M600.096 148.328H578.473C578.108 148.328 577.812 148.624 577.812 148.989V151.845C577.812 152.209 578.108 152.505 578.473 152.505H600.096C600.461 152.505 600.756 152.209 600.756 151.845V148.989C600.756 148.624 600.461 148.328 600.096 148.328Z" fill="#7873B8"/>
<path d="M600.096 148.328H578.473C578.108 148.328 577.812 148.624 577.812 148.989V151.845C577.812 152.209 578.108 152.505 578.473 152.505H600.096C600.461 152.505 600.756 152.209 600.756 151.845V148.989C600.756 148.624 600.461 148.328 600.096 148.328Z" fill="#2A95BF"/>
<path d="M589.46 148.328H586.179C586.031 148.328 585.91 148.449 585.91 148.597V152.236C585.91 152.385 586.031 152.505 586.179 152.505H589.46C589.608 152.505 589.729 152.385 589.729 152.236V148.597C589.729 148.449 589.608 148.328 589.46 148.328Z" fill="#3EA9D3"/>
<path d="M594.193 148.328H590.917C590.769 148.328 590.648 148.449 590.648 148.597V152.236C590.648 152.385 590.769 152.505 590.917 152.505H594.193C594.342 152.505 594.462 152.385 594.462 152.236V148.597C594.462 148.449 594.342 148.328 594.193 148.328Z" fill="#3EA9D3"/>
<path d="M585.028 143.185C584.941 143.185 584.855 143.202 584.775 143.236C584.695 143.269 584.622 143.317 584.561 143.379C584.499 143.44 584.451 143.513 584.417 143.593C584.384 143.673 584.367 143.759 584.367 143.846V147.669C584.367 147.756 584.384 147.842 584.417 147.922C584.451 148.002 584.499 148.075 584.561 148.136C584.622 148.198 584.695 148.247 584.775 148.28C584.855 148.313 584.941 148.33 585.028 148.33H608.217C608.274 148.329 608.328 148.305 608.368 148.265C608.408 148.224 608.43 148.17 608.43 148.113V143.393C608.43 143.336 608.408 143.282 608.368 143.241C608.328 143.2 608.274 143.177 608.217 143.176L585.028 143.185Z" fill="#3EA9D3"/>
<path opacity="0.9" d="M597.711 143.586H608.444V147.933H597.711C597.609 147.933 597.512 147.893 597.44 147.821C597.369 147.749 597.328 147.652 597.328 147.551V143.978C597.327 143.927 597.336 143.876 597.355 143.828C597.373 143.781 597.401 143.738 597.437 143.701C597.472 143.665 597.515 143.636 597.562 143.616C597.609 143.596 597.66 143.586 597.711 143.586Z" fill="white"/>
<path d="M596.217 143.184H578.036C577.671 143.184 577.375 143.479 577.375 143.844V147.663C577.375 148.028 577.671 148.324 578.036 148.324H596.217C596.582 148.324 596.878 148.028 596.878 147.663V143.844C596.878 143.479 596.582 143.184 596.217 143.184Z" fill="#3EA9D3"/>
<path opacity="0.6" d="M594.513 144.203H581.198C580.977 144.203 580.797 144.383 580.797 144.604V146.903C580.797 147.125 580.977 147.304 581.198 147.304H594.513C594.735 147.304 594.914 147.125 594.914 146.903V144.604C594.914 144.383 594.735 144.203 594.513 144.203Z" fill="#5CC7F1"/>
<path d="M591.829 140.723C591.465 140.723 591.168 140.897 591.168 141.11V142.795C591.168 143.007 591.465 143.182 591.829 143.182H613.239C613.357 143.182 613.451 143.125 613.451 143.059V140.85C613.451 140.779 613.357 140.723 613.239 140.723H591.829Z" fill="#3EA9D3"/>
<path opacity="0.9" d="M604.414 140.957H613.453V142.949H604.414C604.336 142.949 604.262 142.918 604.207 142.863C604.152 142.808 604.121 142.734 604.121 142.656V141.24C604.124 141.164 604.155 141.092 604.21 141.039C604.265 140.987 604.338 140.957 604.414 140.957Z" fill="white"/>
<path d="M603.181 140.723H581.247C580.968 140.723 580.742 140.949 580.742 141.228V142.681C580.742 142.96 580.968 143.186 581.247 143.186H603.181C603.46 143.186 603.686 142.96 603.686 142.681V141.228C603.686 140.949 603.46 140.723 603.181 140.723Z" fill="#7873B8"/>
<path d="M603.181 140.723H581.247C580.968 140.723 580.742 140.949 580.742 141.228V142.681C580.742 142.96 580.968 143.186 581.247 143.186H603.181C603.46 143.186 603.686 142.96 603.686 142.681V141.228C603.686 140.949 603.46 140.723 603.181 140.723Z" fill="#2A95BF"/>
<path d="M584.002 140.723H583.318C583.263 140.723 583.219 140.767 583.219 140.822V143.087C583.219 143.142 583.263 143.186 583.318 143.186H584.002C584.057 143.186 584.101 143.142 584.101 143.087V140.822C584.101 140.767 584.057 140.723 584.002 140.723Z" fill="#3EA9D3"/>
<path d="M601.808 140.723H601.138C601.083 140.723 601.039 140.767 601.039 140.822V143.087C601.039 143.142 601.083 143.186 601.138 143.186H601.808C601.863 143.186 601.908 143.142 601.908 143.087V140.822C601.908 140.767 601.863 140.723 601.808 140.723Z" fill="#3EA9D3"/>
<path d="M587.958 137.164C587.594 137.164 587.297 137.339 587.297 137.551V140.331C587.297 140.548 587.594 140.723 587.958 140.723H611.147C611.265 140.723 611.364 140.666 611.364 140.595V137.291C611.364 137.221 611.265 137.164 611.147 137.164H587.958Z" fill="#3EA9D3"/>
<path opacity="0.9" d="M600.543 137.398H611.366V140.49H600.543C600.465 140.49 600.391 140.459 600.336 140.404C600.281 140.349 600.25 140.275 600.25 140.197V137.691C600.25 137.613 600.281 137.539 600.336 137.484C600.391 137.429 600.465 137.398 600.543 137.398Z" fill="white"/>
<path d="M599.307 137.164H580.814C580.535 137.164 580.309 137.39 580.309 137.669V140.218C580.309 140.497 580.535 140.723 580.814 140.723H599.307C599.586 140.723 599.812 140.497 599.812 140.218V137.669C599.812 137.39 599.586 137.164 599.307 137.164Z" fill="#50BBE5"/>
<path d="M639.681 151.719H620.201C620.097 151.719 619.997 151.76 619.922 151.833C619.848 151.907 619.806 152.006 619.805 152.111C619.806 152.215 619.848 152.314 619.922 152.388C619.997 152.461 620.097 152.502 620.201 152.502H639.681C639.785 152.502 639.884 152.461 639.958 152.388C640.031 152.314 640.072 152.214 640.072 152.111C640.072 152.007 640.031 151.907 639.958 151.833C639.884 151.76 639.785 151.719 639.681 151.719Z" fill="white"/>
<path d="M677.789 150.781H690.59L691.746 152.457H676.633L677.789 150.781Z" fill="#263238"/>
<path d="M697.559 122.184C697.559 122.524 697.458 122.858 697.269 123.141C697.079 123.424 696.81 123.645 696.495 123.775C696.181 123.906 695.834 123.94 695.5 123.873C695.166 123.807 694.859 123.643 694.618 123.402C694.377 123.161 694.213 122.854 694.146 122.52C694.08 122.186 694.114 121.839 694.244 121.524C694.375 121.21 694.596 120.941 694.879 120.751C695.162 120.562 695.495 120.461 695.836 120.461C696.063 120.46 696.287 120.504 696.496 120.591C696.705 120.677 696.896 120.804 697.056 120.964C697.216 121.124 697.343 121.314 697.429 121.524C697.515 121.733 697.56 121.957 697.559 122.184Z" fill="black"/>
<path d="M684.616 151.914C684.527 151.913 684.438 151.891 684.359 151.849C684.28 151.806 684.213 151.745 684.163 151.67C684.113 151.596 684.082 151.51 684.073 151.421C684.064 151.332 684.077 151.241 684.111 151.158L696.445 121.97C696.508 121.848 696.615 121.755 696.745 121.708C696.874 121.662 697.016 121.665 697.143 121.719C697.27 121.772 697.372 121.872 697.428 121.997C697.485 122.122 697.493 122.264 697.45 122.395L685.117 151.579C685.075 151.677 685.006 151.761 684.917 151.821C684.828 151.881 684.723 151.913 684.616 151.914Z" fill="#263238"/>
<path d="M696.943 122.736C696.826 122.734 696.712 122.696 696.617 122.627L674.221 105.829C674.106 105.742 674.03 105.614 674.009 105.471C673.989 105.329 674.026 105.184 674.112 105.069C674.199 104.954 674.327 104.877 674.47 104.857C674.612 104.837 674.757 104.874 674.872 104.96L697.274 121.749C697.364 121.819 697.431 121.915 697.464 122.024C697.497 122.133 697.495 122.25 697.459 122.358C697.423 122.466 697.353 122.56 697.261 122.627C697.168 122.694 697.057 122.73 696.943 122.731V122.736Z" fill="#263238"/>
<path d="M698.664 122.184C698.664 122.524 698.563 122.858 698.374 123.141C698.185 123.424 697.916 123.645 697.601 123.775C697.286 123.906 696.94 123.94 696.605 123.873C696.271 123.807 695.964 123.643 695.723 123.402C695.482 123.161 695.318 122.854 695.252 122.52C695.185 122.186 695.219 121.839 695.35 121.524C695.48 121.21 695.701 120.941 695.984 120.751C696.268 120.562 696.601 120.461 696.942 120.461C697.168 120.46 697.392 120.504 697.602 120.591C697.811 120.677 698.001 120.804 698.161 120.964C698.321 121.124 698.448 121.314 698.534 121.524C698.621 121.733 698.665 121.957 698.664 122.184Z" fill="#263238"/>
<path d="M674.546 107.112C675.495 107.112 676.264 106.343 676.264 105.394C676.264 104.445 675.495 103.676 674.546 103.676C673.597 103.676 672.828 104.445 672.828 105.394C672.828 106.343 673.597 107.112 674.546 107.112Z" fill="#263238"/>
<path d="M672.141 113.251C671.603 113.789 670.916 114.156 670.169 114.305C669.422 114.453 668.648 114.377 667.944 114.086C667.24 113.794 666.639 113.3 666.216 112.667C665.792 112.034 665.566 111.289 665.566 110.527C665.566 109.766 665.792 109.021 666.216 108.388C666.639 107.754 667.24 107.26 667.944 106.969C668.648 106.677 669.422 106.601 670.169 106.75C670.916 106.898 671.603 107.265 672.141 107.804C672.863 108.527 673.268 109.506 673.268 110.527C673.268 111.548 672.863 112.528 672.141 113.251Z" fill="#2A95BF"/>
<path opacity="0.7" d="M672.141 113.251C671.603 113.789 670.916 114.156 670.169 114.305C669.422 114.453 668.648 114.377 667.944 114.086C667.24 113.794 666.639 113.3 666.216 112.667C665.792 112.034 665.566 111.289 665.566 110.527C665.566 109.766 665.792 109.021 666.216 108.388C666.639 107.754 667.24 107.26 667.944 106.969C668.648 106.677 669.422 106.601 670.169 106.75C670.916 106.898 671.603 107.265 672.141 107.804C672.863 108.527 673.268 109.506 673.268 110.527C673.268 111.548 672.863 112.528 672.141 113.251Z" fill="white"/>
<path d="M674.547 105.395C673.781 104.628 672.872 104.02 671.87 103.605C670.869 103.19 669.796 102.977 668.713 102.977C667.629 102.977 666.556 103.19 665.555 103.605C664.554 104.02 663.645 104.628 662.879 105.395L674.547 117.072C675.314 116.306 675.923 115.396 676.339 114.394C676.754 113.392 676.968 112.318 676.968 111.234C676.968 110.149 676.754 109.075 676.339 108.073C675.923 107.071 675.314 106.161 674.547 105.395Z" fill="#263238"/>
<g opacity="0.2">
<path d="M662.874 105.395L613.871 152.5H664.144L674.547 117.067L662.874 105.395Z" fill="#2A95BF"/>
<path opacity="0.7" d="M662.874 105.395L613.871 152.5H664.144L674.547 117.067L662.874 105.395Z" fill="white"/>
</g>
<defs>
<filter id="filter0_d_149_16852" x="487" y="0" width="296" height="296" filterUnits="userSpaceOnUse" color-interpolation-filters="sRGB">
<feFlood flood-opacity="0" result="BackgroundImageFix"/>
<feColorMatrix in="SourceAlpha" type="matrix" values="0 0 0 0 0 0 0 0 0 0 0 0 0 0 0 0 0 0 127 0" result="hardAlpha"/>
<feOffset dy="-4"/>
<feGaussianBlur stdDeviation="4"/>
<feComposite in2="hardAlpha" operator="out"/>
<feColorMatrix type="matrix" values="0 0 0 0 0.0705882 0 0 0 0 0.490196 0 0 0 0 0.654902 0 0 0 0.02 0"/>
<feBlend mode="normal" in2="BackgroundImageFix" result="effect1_dropShadow_149_16852"/>
<feBlend mode="normal" in="SourceGraphic" in2="effect1_dropShadow_149_16852" result="shape"/>
</filter>
<linearGradient id="paint0_linear_149_16852" x1="-1.68494e-06" y1="152" x2="625.5" y2="152" gradientUnits="userSpaceOnUse">
<stop stop-color="#0B76A0"/>
<stop offset="1" stop-color="#1681AB"/>
</linearGradient>
</defs>
</svg>
