<svg width="995" height="200" viewBox="0 0 995 200" fill="none" xmlns="http://www.w3.org/2000/svg">
<path d="M0 10C0 4.47716 7.45962 0 16.6615 0H883.942C889.667 0 894.992 1.76445 898.041 4.67259L992.438 94.6726C995.854 97.9285 995.854 102.072 992.438 105.327L898.041 195.327C894.992 198.236 889.667 200 883.942 200H16.6615C7.45962 200 0 195.523 0 190V10Z" fill="url(#paint0_linear_9_10)"/>
<path d="M8.89813e-08 49C-0.000976562 46.0316 8.04694 46.1583 17.9734 46.1583H853.974C859.512 46.1583 864.742 47.7048 868.148 50.35L924.201 93.8867C929.266 97.821 929.266 103.337 924.201 107.271L868.148 150.808C864.742 153.453 859.512 155 853.974 155H17.9734C8.04696 155 8.87812e-08 155 8.87812e-08 155L8.89813e-08 49Z" fill="white"/>
<defs>
<linearGradient id="paint0_linear_9_10" x1="998.027" y1="100" x2="-44.1531" y2="100" gradientUnits="userSpaceOnUse">
<stop stop-color="#0B76A0"/>
<stop offset="1" stop-color="#1681AB"/>
</linearGradient>
</defs>
</svg>
