<svg width="40" height="40" viewBox="0 0 40 40" fill="none" xmlns="http://www.w3.org/2000/svg">
<circle cx="20" cy="20" r="20" fill="white"/>
<path d="M25.8359 29.3307H14.1693C10.6693 29.3307 8.33594 26.9974 8.33594 23.4974V16.4974C8.33594 12.9974 10.6693 10.6641 14.1693 10.6641H25.8359C29.3359 10.6641 31.6693 12.9974 31.6693 16.4974V23.4974C31.6693 26.9974 29.3359 29.3307 25.8359 29.3307Z" stroke="#2A95BF" stroke-width="1.5" stroke-miterlimit="10" stroke-linecap="round" stroke-linejoin="round"/>
<path d="M19.3031 17.0838L22.2198 18.8338C23.2698 19.5338 23.2698 20.5838 22.2198 21.2838L19.3031 23.0338C18.1365 23.7338 17.2031 23.1505 17.2031 21.8672V18.3672C17.2031 16.8505 18.1365 16.3838 19.3031 17.0838Z" stroke="#2A95BF" stroke-width="1.5" stroke-miterlimit="10" stroke-linecap="round" stroke-linejoin="round"/>
</svg>
