<svg width="96" height="96" viewBox="0 0 96 96" fill="none" xmlns="http://www.w3.org/2000/svg">
<g filter="url(#filter0_f_149_18894)">
<circle cx="48" cy="48" r="35" fill="#26235D" fill-opacity="0.12"/>
</g>
<circle cx="48" cy="46" r="34.5" fill="#FF7B02" stroke="url(#paint0_linear_149_18894)"/>
<path d="M60.4625 53.9125C60.4625 54.3625 60.3625 54.825 60.15 55.275C59.9375 55.725 59.6625 56.15 59.3 56.55C58.6875 57.225 58.0125 57.7125 57.25 58.025C56.5 58.3375 55.6875 58.5 54.8125 58.5C53.5375 58.5 52.175 58.2 50.7375 57.5875C49.3 56.975 47.8625 56.15 46.4375 55.1125C45 54.0625 43.6375 52.9 42.3375 51.6125C41.05 50.3125 39.8875 48.95 38.85 47.525C37.825 46.1 37 44.675 36.4 43.2625C35.8 41.8375 35.5 40.475 35.5 39.175C35.5 38.325 35.65 37.5125 35.95 36.7625C36.25 36 36.725 35.3 37.3875 34.675C38.1875 33.8875 39.0625 33.5 39.9875 33.5C40.3375 33.5 40.6875 33.575 41 33.725C41.325 33.875 41.6125 34.1 41.8375 34.425L44.7375 38.5125C44.9625 38.825 45.125 39.1125 45.2375 39.3875C45.35 39.65 45.4125 39.9125 45.4125 40.15C45.4125 40.45 45.325 40.75 45.15 41.0375C44.9875 41.325 44.75 41.625 44.45 41.925L43.5 42.9125C43.3625 43.05 43.3 43.2125 43.3 43.4125C43.3 43.5125 43.3125 43.6 43.3375 43.7C43.375 43.8 43.4125 43.875 43.4375 43.95C43.6625 44.3625 44.05 44.9 44.6 45.55C45.1625 46.2 45.7625 46.8625 46.4125 47.525C47.0875 48.1875 47.7375 48.8 48.4 49.3625C49.05 49.9125 49.5875 50.2875 50.0125 50.5125C50.075 50.5375 50.15 50.575 50.2375 50.6125C50.3375 50.65 50.4375 50.6625 50.55 50.6625C50.7625 50.6625 50.925 50.5875 51.0625 50.45L52.0125 49.5125C52.325 49.2 52.625 48.9625 52.9125 48.8125C53.2 48.6375 53.4875 48.55 53.8 48.55C54.0375 48.55 54.2875 48.6 54.5625 48.7125C54.8375 48.825 55.125 48.9875 55.4375 49.2L59.575 52.1375C59.9 52.3625 60.125 52.625 60.2625 52.9375C60.3875 53.25 60.4625 53.5625 60.4625 53.9125Z" stroke="white" stroke-width="1.5" stroke-miterlimit="10"/>
<path d="M56.125 42.25C56.125 41.5 55.5375 40.35 54.6625 39.4125C53.8625 38.55 52.8 37.875 51.75 37.875" stroke="white" stroke-width="1.5" stroke-linecap="round" stroke-linejoin="round"/>
<path d="M60.5 42.25C60.5 37.4125 56.5875 33.5 51.75 33.5" stroke="white" stroke-width="1.5" stroke-linecap="round" stroke-linejoin="round"/>
<defs>
<filter id="filter0_f_149_18894" x="0" y="0" width="96" height="96" filterUnits="userSpaceOnUse" color-interpolation-filters="sRGB">
<feFlood flood-opacity="0" result="BackgroundImageFix"/>
<feBlend mode="normal" in="SourceGraphic" in2="BackgroundImageFix" result="shape"/>
<feGaussianBlur stdDeviation="6.5" result="effect1_foregroundBlur_149_18894"/>
</filter>
<linearGradient id="paint0_linear_149_18894" x1="83" y1="49.5" x2="14" y2="46" gradientUnits="userSpaceOnUse">
<stop stop-color="white" stop-opacity="0"/>
<stop offset="0.541667" stop-color="white"/>
<stop offset="1" stop-color="white" stop-opacity="0"/>
</linearGradient>
</defs>
</svg>
