<svg width="12" height="158" viewBox="0 0 12 158" fill="none" xmlns="http://www.w3.org/2000/svg">
<line x1="5.99992" y1="80.513" x2="4.99991" y2="157.513" stroke="#9DCFE1" stroke-width="2" stroke-dasharray="4 4"/>
<path d="M6 84.5L11.7735 74.5L0.226494 74.5L6 84.5ZM5 0.5L5 2.40909L7 2.40909L7 0.5L5 0.5ZM5 6.22727L5 10.0455L7 10.0455L7 6.22727L5 6.22727ZM5 13.8636L5 17.6818L7 17.6818L7 13.8636L5 13.8636ZM5 21.5L5 25.3182L7 25.3182L7 21.5L5 21.5ZM5 29.1364L5 32.9545L7 32.9545L7 29.1364L5 29.1364ZM5 36.7727L5 40.5909L7 40.5909L7 36.7727L5 36.7727ZM5 44.4091L5 48.2273L7 48.2273L7 44.4091L5 44.4091ZM5 52.0454L5 55.8636L7 55.8636L7 52.0454L5 52.0454ZM5 59.6818L5 63.5L7 63.5L7 59.6818L5 59.6818ZM5 67.3182L5 71.1364L7 71.1364L7 67.3182L5 67.3182ZM5 74.9545L5 78.7727L7 78.7727L7 74.9545L5 74.9545Z" fill="#9DCFE1"/>
</svg>
